<svg width="37" height="37" viewBox="0 0 37 37" fill="none" xmlns="http://www.w3.org/2000/svg">
<path d="M30.3149 2.55921C29.7736 1.59746 28.7413 1 27.6206 1H18.5649C16.8687 1 15.4887 2.37997 15.4887 4.07617V8.17773C15.4887 9.87394 16.8687 11.2539 18.5649 11.2539H24.7172C25.2826 11.2539 25.7426 11.7139 25.7426 12.2793V20.3343C22.786 19.526 19.6693 19.4261 16.6734 20.0356C14.3906 17.8513 11.1576 16.9627 7.92903 17.7699C4.70096 18.577 2.02189 21.2113 1.2551 24.4901C0.59571 27.3104 1.23856 30.2155 3.01905 32.4603C4.80316 34.7098 7.45462 36 10.2934 36C23.6792 36 32.9451 30.9137 35.4297 29.6711C35.7771 29.4974 35.9965 29.1423 35.9965 28.7539V24.3056C35.9965 16.6827 34.0318 9.16293 30.3149 2.55921ZM33.9457 28.1221C30.6145 29.8 22.1815 33.9492 10.2934 33.9492C8.08441 33.9492 6.01866 32.942 4.6257 31.1858C3.23664 29.4344 2.73591 27.1641 3.25202 24.9569C3.83184 22.4769 5.91134 20.3882 8.42641 19.7593C10.4914 19.2429 12.5617 19.5961 14.2334 20.6995C13.4339 20.9742 12.6494 21.3025 11.8856 21.6843C11.3791 21.9376 11.1738 22.5535 11.427 23.06C11.6803 23.5665 12.2962 23.7719 12.8027 23.5186C17.6735 21.0832 23.4893 21.0832 28.3602 23.5186C28.8676 23.7724 29.4831 23.5656 29.7359 23.06C29.9892 22.5535 29.7839 21.9376 29.2773 21.6843C28.7907 21.441 28.2954 21.2198 27.7934 21.0199V12.2793C27.7934 10.5831 26.4134 9.20312 24.7172 9.20312H23.6918V6.12695C23.6918 5.56066 23.2327 5.10156 22.6664 5.10156H20.6156C20.0494 5.10156 19.5903 5.56066 19.5903 6.12695C19.5903 6.69324 20.0494 7.15234 20.6156 7.15234H21.641V9.20312H18.5649C17.9995 9.20312 17.5395 8.74313 17.5395 8.17773V4.07617C17.5395 3.51077 17.9995 3.05078 18.5649 3.05078H27.6206C28.0016 3.05078 28.3492 3.24786 28.5278 3.56505C32.0723 9.86238 33.9458 17.0343 33.9458 24.3056V28.1221H33.9457Z" fill="#E73125" stroke="#E73125" stroke-width="0.7"/>
</svg>
