<svg width="44" height="32" viewBox="0 0 44 32" fill="none" xmlns="http://www.w3.org/2000/svg">
<path d="M37.5547 8.26665H25.7812C25.7812 7.90864 25.7812 2.17575 25.7812 1.82134C25.7812 0.824038 24.6744 0.17014 23.7725 0.751851C23.772 0.752194 23.7715 0.752452 23.7711 0.752796C21.623 2.13527 19.6507 2.18099 17.473 0.748843C17.0473 0.465335 16.5076 0.448577 16.0382 0.751851C16.0377 0.752194 16.0372 0.752452 16.0368 0.752796C13.8887 2.13527 11.9164 2.18099 9.7387 0.748843C9.30256 0.458374 8.73151 0.466366 8.30723 0.749702C8.30663 0.750132 8.30294 0.752452 8.30251 0.752796C6.14874 2.1388 4.17398 2.1791 2.0014 0.746952C1.14778 0.180882 0 0.79714 0 1.82134V27.6026C0 28.3145 0.577156 28.8917 1.28906 28.8917H2.79984C3.33197 30.392 4.7648 31.4698 6.44531 31.4698C8.12582 31.4698 9.55866 30.392 10.0908 28.8917H13.1124C13.6446 30.392 15.0774 31.4698 16.7579 31.4698C18.4384 31.4698 19.8712 30.392 20.4034 28.8917H31.1592C31.6913 30.392 33.1242 31.4698 34.8047 31.4698C36.4859 31.4698 37.9191 30.3911 38.4508 28.8898C38.4631 28.8901 38.4753 28.8917 38.4877 28.8917H42.7109C43.4228 28.8917 44 28.3145 44 27.6026V14.712C44 11.158 41.1086 8.26665 37.5547 8.26665ZM41.4219 14.712V16.001H36.0938V10.8448H37.5547C39.6871 10.8448 41.4219 12.5796 41.4219 14.712ZM30.9375 16.001V10.8448H33.5156V16.001H30.9375ZM16.7578 23.7354C15.0773 23.7354 13.6445 24.8131 13.1123 26.3135H10.0908C9.55866 24.8131 8.12582 23.7354 6.44531 23.7354C4.7648 23.7354 3.33197 24.8131 2.79984 26.3135H2.57812V21.1573H23.2031V26.3135H20.4033C19.8712 24.8132 18.4383 23.7354 16.7578 23.7354ZM23.2031 3.89321V18.5792H18.0469V3.89321C19.8573 4.56309 21.3783 4.56842 23.2031 3.89321ZM15.4688 3.89321V18.5792H10.3125V3.89321C12.1229 4.56309 13.644 4.56842 15.4688 3.89321ZM7.73438 3.89321V18.5792H2.57812V3.89321C4.38857 4.56309 5.90958 4.56842 7.73438 3.89321ZM6.44531 28.8917C5.73452 28.8917 5.15625 28.3134 5.15625 27.6026C5.15625 26.8918 5.73452 26.3135 6.44531 26.3135C7.1561 26.3135 7.73438 26.8918 7.73438 27.6026C7.73438 28.3134 7.1561 28.8917 6.44531 28.8917ZM16.7578 28.8917C16.047 28.8917 15.4688 28.3134 15.4688 27.6026C15.4688 26.8918 16.047 26.3135 16.7578 26.3135C17.4686 26.3135 18.0469 26.8918 18.0469 27.6026C18.0469 28.3134 17.4686 28.8917 16.7578 28.8917ZM34.8047 28.8917C34.0939 28.8917 33.5156 28.3134 33.5156 27.6026C33.5156 26.8918 34.0939 26.3135 34.8047 26.3135C35.5155 26.3135 36.0938 26.8918 36.0938 27.6026C36.0938 28.3134 35.5155 28.8917 34.8047 28.8917ZM38.4877 26.3135C38.4753 26.3135 38.4631 26.3151 38.4508 26.3154C37.9191 24.8141 36.4859 23.7354 34.8047 23.7354C33.1242 23.7354 31.6913 24.8131 31.1592 26.3135H25.7812V10.8448H28.3594V17.2901C28.3594 18.002 28.9365 18.5792 29.6484 18.5792H41.4219V21.1573H40.1328C39.4209 21.1573 38.8438 21.7344 38.8438 22.4463C38.8438 23.1582 39.4209 23.7354 40.1328 23.7354H41.4219V26.3135H38.4877Z" fill="#E73125"/>
</svg>
