<svg width="39" height="39" viewBox="0 0 39 39" fill="none" xmlns="http://www.w3.org/2000/svg">
<g clip-path="url(#clip0)">
<path d="M25.7473 24.7982C24.7886 22.7215 22.8557 21.2743 20.6426 20.8987V1.14258C20.6426 0.51157 20.131 0 19.5 0C18.869 0 18.3575 0.51157 18.3575 1.14258V20.8987C16.1448 21.274 14.2116 22.7212 13.2528 24.7983C11.0995 29.4629 7.44812 37.375 7.44812 37.375C7.2848 37.7288 7.31314 38.1414 7.52315 38.4696C7.73315 38.7978 8.09596 38.9964 8.48558 38.9964H11.2563C12.7778 38.9964 14.1892 38.3906 15.2167 37.3483C16.9992 39.1565 19.1781 38.9964 19.5114 38.9964C19.8336 38.9964 22.0044 39.1531 23.7835 37.3483C24.8109 38.3906 26.2224 38.9964 27.7438 38.9964H30.5145C30.9041 38.9964 31.2669 38.7978 31.4769 38.4696C31.6869 38.1414 31.7152 37.7288 31.5519 37.375C31.5519 37.375 27.9006 29.4629 25.7473 24.7982ZM15.3276 25.756C16.0686 24.1505 17.6814 23.1082 19.4475 23.0876C19.4651 23.0884 19.4823 23.0903 19.5 23.0903C19.5179 23.0903 19.5352 23.0885 19.5528 23.0876C21.3182 23.1079 22.9312 24.1503 23.6725 25.756C23.843 26.1254 24.0233 26.516 24.2101 26.9207H14.7899C14.9767 26.516 15.157 26.1254 15.3276 25.756ZM27.7437 36.7112C26.4916 36.7112 25.3656 36.0153 24.8053 34.8949C24.6117 34.5079 24.2161 34.2635 23.7834 34.2635C23.3507 34.2635 22.9551 34.5079 22.7616 34.8949C21.8083 36.8006 19.9365 36.7112 19.4901 36.7112C18.9543 36.7112 17.1593 36.7359 16.2384 34.8949C16.0449 34.5079 15.6493 34.2635 15.2166 34.2635C14.7838 34.2635 14.3883 34.5079 14.1947 34.8949C13.6343 36.0153 12.5084 36.7112 11.2563 36.7112H10.2712C11.0902 34.9365 12.4573 31.9743 13.7351 29.2057H25.2648C26.5427 31.9744 27.9098 34.9365 28.7287 36.7112H27.7437Z" fill="#E73125"/>
<path d="M38.1955 4.33427C36.5439 3.7754 35.2284 2.4609 34.6678 0.810103C34.5254 0.341266 34.0897 0.000244141 33.5743 0.000244141C33.0611 0.000244141 32.6269 0.338828 32.4827 0.804771C31.9238 2.45633 30.6094 3.77197 28.9585 4.33252C28.4897 4.47488 28.1486 4.91059 28.1486 5.42597C28.1486 5.93914 28.4871 6.37339 28.9531 6.51759C30.6047 7.07646 31.9203 8.39088 32.4809 10.0418C32.6232 10.5106 33.0589 10.8517 33.5743 10.8517C34.0875 10.8517 34.5217 10.5131 34.6659 10.0472C35.2248 8.3956 36.5393 7.07996 38.1901 6.51949C38.6589 6.37705 39 5.94135 39 5.42589C39 4.91272 38.6615 4.47854 38.1955 4.33427ZM33.5744 7.23406C33.073 6.53869 32.4617 5.92733 31.7663 5.42597C32.4616 4.9246 33.073 4.31325 33.5744 3.61787C34.0757 4.31325 34.6871 4.9246 35.3825 5.42597C34.6871 5.92725 34.0757 6.53869 33.5744 7.23406Z" fill="#E73125"/>
<path d="M6.03796 4.1209H6.73113V4.81406C6.73113 5.44507 7.2427 5.95664 7.87371 5.95664C8.50471 5.95664 9.01628 5.44507 9.01628 4.81406V4.1209H9.70945C10.3405 4.1209 10.852 3.60933 10.852 2.97832C10.852 2.34731 10.3405 1.83574 9.70945 1.83574H9.01628V1.14258C9.01628 0.51157 8.50471 0 7.87371 0C7.2427 0 6.73113 0.51157 6.73113 1.14258V1.83574H6.03796C5.40696 1.83574 4.89539 2.34731 4.89539 2.97832C4.89539 3.60933 5.40688 4.1209 6.03796 4.1209Z" fill="#E73125"/>
<path d="M32.9621 20.1932H32.269V19.5C32.269 18.869 31.7574 18.3574 31.1264 18.3574C30.4954 18.3574 29.9838 18.869 29.9838 19.5V20.1932H29.2906C28.6596 20.1932 28.1481 20.7047 28.1481 21.3357C28.1481 21.9668 28.6596 22.4783 29.2906 22.4783H29.9838V23.1715C29.9838 23.8025 30.4954 24.3141 31.1264 24.3141C31.7574 24.3141 32.269 23.8025 32.269 23.1715V22.4783H32.9621C33.5931 22.4783 34.1047 21.9668 34.1047 21.3357C34.1047 20.7047 33.5932 20.1932 32.9621 20.1932Z" fill="#E73125"/>
<path d="M10.0414 19.9814C10.5103 19.8391 10.8514 19.4034 10.8514 18.888C10.8514 18.3748 10.5128 17.9406 10.0468 17.7964C8.39521 17.2375 7.07949 15.9229 6.51902 14.2719C6.37658 13.8032 5.94095 13.4623 5.42565 13.4623C4.91248 13.4623 4.4783 13.8008 4.33403 14.2667C3.77515 15.9183 2.46066 17.234 0.809859 17.7945C0.341098 17.9368 0 18.3726 0 18.888C0 19.4012 0.338584 19.8354 0.804527 19.9796C2.45609 20.5385 3.77165 21.853 4.33228 23.5038C4.47464 23.9726 4.91034 24.3137 5.42572 24.3137C5.93889 24.3137 6.37315 23.9751 6.51734 23.5091C7.07621 21.8576 8.39064 20.542 10.0414 19.9814ZM5.42565 20.6961C4.92428 20.0007 4.31293 19.3894 3.61755 18.888C4.31293 18.3866 4.92428 17.7753 5.42565 17.0799C5.92701 17.7753 6.53837 18.3866 7.23374 18.888C6.53844 19.3894 5.92709 20.0007 5.42565 20.6961Z" fill="#E73125"/>
</g>
<defs>
<clipPath id="clip0">
<rect width="39" height="39" fill="white"/>
</clipPath>
</defs>
</svg>
