<svg width="26px" height="26px" viewBox="0 0 32 32" fill="#E73125" xmlns="http://www.w3.org/2000/svg">
<g clip-path="url(#clip0)">
<path fill-rule="evenodd" clip-rule="evenodd" d="M31.8002 23.26L30.2602 27.9C30.0854 28.4293 29.8018 28.9161 29.4278 29.3294C29.0538 29.7427 28.5975 30.0734 28.0882 30.3C24.5475 31.8628 20.6296 32.3654 16.809 31.747C12.9885 31.1287 9.42919 29.4159 6.5622 26.816C6.3082 26.588 6.07815 26.3599 5.88215 26.1639C4.7242 25.0304 3.71601 23.7534 2.88215 22.364C2.59925 21.8968 2.34025 21.4155 2.10615 20.922C0.708245 18.1564 -0.0134804 15.0987 0.000190657 12C-0.00656322 9.21547 0.574054 6.46086 1.70417 3.91599C1.93141 3.40712 2.26215 2.95121 2.67536 2.57725C3.08858 2.20329 3.57524 1.91948 4.10419 1.74399L8.74616 0.203955C9.7524 -0.1303 10.8502 -0.0513455 11.7983 0.423438C12.7464 0.898221 13.4671 1.72997 13.8022 2.73594L15.8022 8.73594C16.107 9.64862 16.0725 10.6407 15.7051 11.53C15.3378 12.4193 14.6622 13.1464 13.8022 13.578L12.3461 14.306C12.7297 15.5783 13.4272 16.7338 14.3742 17.666C15.2995 18.6026 16.4463 19.2905 17.7082 19.666L18.4362 18.212C18.8678 17.3516 19.5953 16.6756 20.4851 16.3082C21.3748 15.9408 22.3673 15.9067 23.2802 16.212L29.2802 18.212C30.2821 18.5496 31.1096 19.2701 31.5819 20.216C32.0541 21.162 32.1326 22.2563 31.8002 23.26ZM28.0002 22L22.0002 20L20.0002 24C16.8191 23.9952 13.7696 22.7294 11.5202 20.48C9.27081 18.2306 8.00495 15.1811 8.00019 12L12.0002 9.99998L10.0002 3.99998L5.35822 5.54002C4.45691 7.57408 3.99416 9.77517 4.00019 12C3.99084 14.4877 4.5735 16.942 5.70014 19.16C5.8803 19.5436 6.08068 19.9175 6.30024 20.28C6.96222 21.3841 7.76268 22.399 8.6822 23.3C8.8622 23.48 9.04213 23.6599 9.24213 23.8399C11.5338 25.9234 14.3809 27.2971 17.4379 27.7942C20.495 28.2912 23.6305 27.8902 26.4642 26.64L28.0002 22Z" fill="E73125"/>
</g>
<defs>
<clipPath id="clip0">
<rect width="32" height="32" fill="white"/>
</clipPath>
</defs>
</svg>
