<svg xmlns="http://www.w3.org/2000/svg" viewBox="0 0 32.78 32"><defs><style>.cls-1{fill:#fff;}.cls-2{fill:#fccf00;fill-rule:evenodd;}</style></defs><g id="Слой_2" data-name="Слой 2"><g id="Слой_1-2" data-name="Слой 1"><ellipse class="cls-1" cx="16.39" cy="16" rx="16.39" ry="16"/><path class="cls-2" d="M0,16A16.2,16.2,0,0,1,16.39,0,16.2,16.2,0,0,1,32.78,16,16.2,16.2,0,0,1,16.39,32a16.93,16.93,0,0,1-5.12-.79A18.77,18.77,0,0,1,22.35,16.93a3.69,3.69,0,0,0,2.76,1.24,3.56,3.56,0,1,0-3.64-3.57,25.41,25.41,0,0,0-16,13.33A16.37,16.37,0,0,1,3,25.18a18.27,18.27,0,0,1,8-14.68,3.64,3.64,0,0,0,2.72,1.2,3.6,3.6,0,0,0,3.64-3.56,3.64,3.64,0,0,0-7.28,0,2.91,2.91,0,0,0,0,.3A18.1,18.1,0,0,0,0,16.62c0-.2,0-.41,0-.62"/></g></g></svg>