<svg width="102" height="102" viewBox="0 0 102 102" fill="none" xmlns="http://www.w3.org/2000/svg">
<circle cx="51" cy="51" r="49.5" fill="white" stroke="#DD052C" stroke-width="3"/>
<g clip-path="url(#clip0)">
<path d="M41.7734 31.7864L52.345 27.5137L58.0427 25.7061L61.4678 30.0609L64.2287 34.4453L70.7306 53.227L70.9585 56.2721L51.9103 65.4566L46.7352 67.8822L42.3741 60.7814L33.1813 45.5871L28.1543 38.5668L41.7734 31.7864Z" fill="#C9C8C8"/>
<path d="M29.2138 57.165C29.2138 57.165 29.2138 57.165 29.2021 57.165L29.2121 57.1786L29.2288 57.1667L29.2138 57.165Z" fill="#201600"/>
<path d="M71.4234 56.0722C71.4234 56.0541 71.4234 56.0377 71.4234 56.0212C71.2476 55.8043 71.2867 55.5282 71.2199 55.2768C71.0392 54.5981 70.8764 53.9145 70.7315 53.2276C70.642 52.7839 70.5215 52.3484 70.406 51.9129C70.3233 51.5215 70.2201 51.1347 70.0967 50.7544C70.0587 50.6659 70.049 50.5676 70.069 50.4734C70.0407 50.4556 70.0167 50.4316 69.9989 50.4031C69.9812 50.3746 69.9701 50.3425 69.9664 50.309C69.745 49.4134 69.4894 48.5276 69.2127 47.6468C69.0695 47.1867 68.9588 46.715 68.8074 46.2582C68.726 46.0183 68.2832 45.0323 68.2099 44.7907C68.0486 44.8182 67.885 44.8287 67.7215 44.8219C67.6362 44.8168 67.5514 44.8059 67.4676 44.7891C67.4676 44.7891 68.0862 46.4324 68.2132 46.8399C68.3255 47.1965 68.4427 47.5531 68.5387 47.9114C68.6348 48.2696 68.7585 48.6164 68.8562 48.973C69.0271 49.5975 69.2453 50.2088 69.3967 50.8382C69.4862 51.2145 69.618 51.5777 69.688 51.9622C69.7334 52.2061 69.7987 52.4458 69.8834 52.6787C69.9741 52.9389 70.039 53.2075 70.0771 53.4807C70.112 53.6306 70.156 53.7782 70.209 53.9227C70.2708 54.1511 70.3392 54.3894 70.3799 54.6178C70.4304 54.9087 70.5671 55.1799 70.5687 55.4806C70.5693 55.538 70.5838 55.5945 70.6111 55.6449C70.6448 55.6996 70.6647 55.7617 70.6691 55.8259C70.6736 55.8901 70.6624 55.9544 70.6365 56.0133C70.6107 56.0721 70.571 56.1237 70.5208 56.1634C70.4707 56.2032 70.4117 56.23 70.349 56.2415C69.8606 56.3976 69.4032 56.6474 68.9197 56.8248C68.5941 56.9464 68.2685 57.0861 67.9527 57.2307C67.6369 57.3754 67.3097 57.515 66.9874 57.6564L65.5678 58.2907C65.2276 58.4419 64.8776 58.575 64.5455 58.7459C64.1336 58.9595 63.712 59.1551 63.2887 59.3375C62.7434 59.5758 62.2176 59.8519 61.6722 60.0885C61.1269 60.3251 60.5718 60.5618 60.0443 60.8477C59.3443 61.229 58.6199 61.5543 57.915 61.9257C57.2639 62.2659 56.6127 62.5979 55.9762 62.9413C55.3836 63.2601 54.7927 63.5822 54.2132 63.9273C53.8583 64.1377 53.492 64.325 53.1436 64.5485C53.0346 64.6192 52.9125 64.6767 52.8018 64.7523C52.639 64.8574 52.5218 64.7309 52.4143 64.657C52.0725 64.4187 52.0204 63.9454 52.2141 63.5264C52.4078 63.1073 52.5185 62.6455 52.3004 62.1837C52.219 62.0268 52.0826 61.9061 51.9178 61.8452C51.8063 61.787 51.6816 61.7594 51.5561 61.7651C51.4307 61.7709 51.309 61.8099 51.2032 61.8781C50.9671 62.0112 50.8776 62.2478 50.7506 62.4713C50.5439 62.803 50.2765 63.0919 49.9627 63.3226C49.9219 63.3503 49.8827 63.3805 49.8455 63.413C49.4743 63.8074 49.3929 63.8156 48.8948 63.5773C48.5139 63.39 48.1313 63.2075 47.7553 63.0235C47.7341 63.0136 47.708 62.9939 47.695 63.0235C47.6877 63.0465 47.6877 63.0712 47.695 63.0942C47.7935 63.3681 47.7935 63.6682 47.695 63.9421C47.6813 64.023 47.6775 64.1052 47.6836 64.187C47.6755 64.4565 47.568 64.5156 47.3157 64.4795C47.1301 64.4532 46.9608 64.3677 46.7785 64.3579C46.5962 64.348 46.5229 64.0046 46.6011 63.8649C46.6758 63.6766 46.7203 63.4774 46.7329 63.2749C46.785 63.0169 46.676 62.9463 46.3846 62.8575C45.9678 62.7425 45.5592 62.5946 45.1474 62.4549C44.8315 62.3481 44.5043 62.2676 44.1706 62.1903C43.8369 62.1131 43.4185 62.1427 43.1597 61.8337C43.0402 61.6732 42.9412 61.4982 42.865 61.3128C42.6485 60.8477 42.406 60.3974 42.1667 59.9455C41.9811 59.5939 41.8036 59.234 41.6246 58.8774C41.5343 58.6553 41.4253 58.4414 41.299 58.2381C41.1134 57.9817 41.1118 57.6777 41.1362 57.3737C41.1362 57.2669 41.1362 57.1584 41.1362 57.045C41.1118 56.6589 40.9083 56.3499 40.7276 56.0245C40.5751 55.8016 40.4041 55.5921 40.2164 55.3984C40.1399 55.3031 40.2457 55.1388 40.3922 55.1207C40.9734 55.0517 41.548 54.935 42.0201 54.5702C42.2041 54.4272 42.4678 54.2859 42.5085 54.0295C42.5818 53.5809 42.5704 53.1438 42.2415 52.7559C41.9127 52.3681 41.4455 52.1643 40.975 52.0148C40.7253 51.9616 40.4698 51.9406 40.2148 51.9524C39.9918 51.9425 39.8892 51.7765 39.9999 51.5859C40.1822 51.2868 40.389 51.0025 40.5615 50.6985C40.8243 50.2798 41.0374 49.8314 41.1964 49.3625C41.31 49.0702 41.3786 48.762 41.3999 48.4488C41.3885 47.7273 40.962 47.4053 40.236 47.5712C39.4594 47.7487 38.8408 48.2039 38.232 48.6887C37.7941 49.0387 37.3839 49.42 36.9704 49.7996C36.8841 49.8785 36.8336 49.839 36.7653 49.7766C36.5129 49.5465 36.3794 49.2343 36.1987 48.9549C35.9285 48.5342 35.6605 48.1124 35.3946 47.6895C35.1813 47.3609 34.9762 47.0076 34.7532 46.6789C34.5122 46.3206 33.8594 45.407 33.8594 45.407C33.8594 45.407 33.4118 45.3823 33.2181 45.3511C33.0243 45.3199 32.7069 45.0224 32.7069 45.0224C32.7069 45.0224 33.4053 46.0265 33.5681 46.25C34.0011 46.8432 34.4374 47.4365 34.8215 48.0577C35.2057 48.6788 35.6355 49.2852 35.9611 49.9524C36.0032 50.0497 36.058 50.1409 36.1239 50.2236C36.2427 50.3567 36.1825 50.4536 36.0799 50.5424C35.9409 50.6599 35.8153 50.7928 35.7055 50.9384C35.6903 50.9646 35.6696 50.9872 35.6449 51.0044C35.6201 51.0217 35.5919 51.0332 35.5622 51.0383C35.5326 51.0433 35.5022 51.0416 35.4732 51.0335C35.4442 51.0253 35.4174 51.0108 35.3946 50.991C34.8044 50.5829 34.1846 50.2203 33.5404 49.9064C32.4936 49.4134 31.4241 49.0091 30.2292 49.1176C29.6656 49.1729 29.1468 49.4519 28.7869 49.8933C28.4613 50.2729 28.1015 50.6377 27.7971 51.0436C27.7749 51.0813 27.7411 51.1107 27.7009 51.1273C27.6606 51.1439 27.6161 51.1468 27.5741 51.1356C27.3539 51.0895 27.1262 51.0952 26.9086 51.1522C26.6909 51.2091 26.4892 51.3159 26.319 51.4643C25.9063 51.769 25.5806 52.1783 25.3748 52.6508C25.2841 52.8804 25.2667 53.133 25.325 53.3731C25.3834 53.6132 25.5146 53.8289 25.7004 53.9901C25.7524 54.0247 25.7889 54.0786 25.8017 54.1402C25.8145 54.2018 25.8026 54.266 25.7687 54.3188C25.5636 54.7345 25.3357 55.1404 25.2446 55.6055C25.0818 56.4436 25.1713 57.2028 25.8648 57.801C26.2346 58.114 26.6648 58.3463 27.1281 58.483C27.3894 58.5663 27.6552 58.6349 27.9241 58.6884C28.056 58.7147 28.0462 58.8034 28.0527 58.9004C28.0869 59.4936 28.2936 59.9965 28.8536 60.2676C29.2675 60.4628 29.7351 60.5091 30.1787 60.3991C30.5573 60.3149 30.9299 60.2051 31.2939 60.0704C31.3188 60.0665 31.3429 60.0587 31.3655 60.0474C31.6569 59.8206 31.9027 59.9932 32.1534 60.1345C32.5045 60.3358 32.8806 60.4889 33.2718 60.5897C33.3125 60.5996 33.3743 60.5897 33.3792 60.6423C33.3841 60.6949 33.3255 60.7195 33.2783 60.7393C33.0453 60.8297 32.8181 60.9346 32.5978 61.0531C32.4452 61.1409 32.3069 61.2517 32.1876 61.3818C31.9483 61.6529 31.9287 61.9011 32.1599 62.2035C32.469 62.5972 32.8396 62.9375 33.2571 63.2108C33.7115 63.5361 34.2029 63.8053 34.7206 64.0128C34.8001 64.0494 34.8645 64.1127 34.9029 64.1919C35.3063 64.9703 35.7741 65.713 36.3013 66.412C36.5439 66.7407 36.8043 67.0497 37.0746 67.352C37.1308 67.4063 37.1701 67.476 37.1874 67.5525C37.2048 67.629 37.1995 67.709 37.1722 67.7826C36.9927 68.3586 36.8567 68.9475 36.7653 69.5442C36.7392 69.7086 36.6464 69.7316 36.526 69.7398C36.0262 69.7743 35.5248 69.7842 35.0283 69.8433C34.255 69.9386 33.485 70.075 32.7215 70.241C32.6483 70.2574 32.5587 70.2755 32.5425 70.3577C32.5262 70.4399 32.6353 70.4448 32.689 70.4727C33.3028 70.8021 33.8756 71.2043 34.395 71.6707C34.4276 71.6986 34.4846 71.7118 34.4732 71.766C34.4618 71.8202 34.4015 71.8383 34.3543 71.8416C34.1736 71.8515 33.9913 71.8531 33.8106 71.8613C33.7097 71.8613 33.669 71.7923 33.6218 71.7282C33.5715 71.6481 33.496 71.5875 33.4073 71.5562C33.3187 71.5249 33.2222 71.5247 33.1334 71.5557C32.6812 71.6463 32.2496 71.8207 31.8604 72.07C31.4941 72.3149 31.4274 72.2574 31.5674 72.7537C31.6348 72.9831 31.6892 73.2163 31.7301 73.4521C31.7513 73.5868 31.8067 73.6345 31.9369 73.6345C32.3504 73.6345 32.3276 73.6444 32.3618 74.0585C32.4204 74.7667 32.5246 75.4717 32.8583 76.1126C32.9125 76.2112 32.9769 76.3038 33.0504 76.3887C33.0862 76.4331 33.1481 76.4577 33.122 76.5268C33.096 76.5958 33.0243 76.6155 32.9592 76.6188C31.8474 76.6779 30.7355 76.7519 29.6236 76.8258C29.4946 76.8174 29.365 76.8291 29.2394 76.8604C29.2312 76.8607 29.2231 76.8628 29.2157 76.8666C29.2083 76.8704 29.2019 76.8757 29.1967 76.8823C29.1916 76.8889 29.188 76.8965 29.1861 76.9046C29.1842 76.9127 29.1841 76.9212 29.1857 76.9294C29.1971 76.959 29.2346 76.9672 29.2655 76.9705C29.6139 77.0017 29.9574 76.9935 30.3074 76.9935C34.6018 76.9935 38.8967 76.9935 43.1922 76.9935C43.3925 76.9935 43.5927 76.9935 43.7913 76.9754C43.8418 76.9754 43.9248 76.9754 43.9232 76.9031C43.9215 76.8308 43.8385 76.8423 43.788 76.839C43.0897 76.7963 42.3978 76.6632 41.6946 76.6533C41.3462 76.6533 40.9962 76.6073 40.6478 76.5826C40.5894 76.584 40.5316 76.5695 40.4806 76.5406C40.4296 76.5117 40.3873 76.4694 40.3581 76.4183C40.236 76.2162 40.0797 76.0354 39.9397 75.8431C39.9099 75.8035 39.8715 75.7712 39.8275 75.7487C39.7835 75.7262 39.735 75.7141 39.6857 75.7133C39.1088 75.6543 38.5373 75.5499 37.9764 75.4011C37.7534 75.3419 37.7387 75.2992 37.8641 75.1036C38.0755 74.7727 38.3508 74.4882 38.6736 74.2672C38.9964 74.0461 39.36 73.893 39.7427 73.8169C40.4534 73.6581 41.1891 73.6503 41.9029 73.7939C42.0429 73.8218 42.1129 73.7939 42.1162 73.6296C42.1357 72.6436 42.3653 71.6921 42.515 70.7274C42.5443 70.5417 42.5964 70.3577 42.6241 70.172C42.6518 69.9863 42.7413 69.9649 42.8732 70.0652C43.1467 70.2739 43.4185 70.4842 43.6871 70.7061C44.3481 71.2599 44.9797 71.8482 45.5836 72.4628C46.2576 73.1508 46.9039 73.8629 47.5225 74.5991C47.866 75.0067 48.2062 75.4208 48.522 75.8464C48.5415 75.8744 48.5497 75.9204 48.6034 75.9089C48.6248 75.9041 48.6442 75.8927 48.6589 75.8762C48.6735 75.8596 48.6826 75.8389 48.6848 75.8168C48.8134 75.1842 49.1064 74.609 49.305 74.0092C49.4597 73.531 49.6827 73.0758 49.8748 72.6107C49.8881 72.5686 49.899 72.5258 49.9074 72.4825C49.9578 72.3067 50.0604 72.282 50.2069 72.3856C50.3208 72.4568 50.4159 72.5548 50.484 72.6713C50.552 72.7878 50.591 72.9193 50.5976 73.0544C50.6187 73.4241 50.8743 73.6378 51.1576 73.8268C51.5442 74.0885 51.9496 74.3209 52.3704 74.5219C52.3996 74.5425 52.433 74.5564 52.4682 74.5626C52.5033 74.5688 52.5394 74.5671 52.5739 74.5577C52.6083 74.5483 52.6403 74.5314 52.6676 74.5082C52.6949 74.485 52.7168 74.456 52.7318 74.4233C52.932 74.1209 53.1387 73.8235 53.3406 73.5227C53.3839 73.4729 53.4093 73.4099 53.4128 73.3437C53.4164 73.2776 53.3978 73.2122 53.3601 73.1579C53.2348 72.9624 53.2885 72.8161 53.4953 72.7159C53.8208 72.5515 54.1464 72.3971 54.472 72.2393C54.692 72.1057 54.8708 71.9128 54.9881 71.6822C55.4064 71.0446 55.8215 70.4037 56.1829 69.7299C56.465 69.2134 56.7204 68.6824 56.948 68.1392C57.1428 67.6706 57.3001 67.187 57.4185 66.6931C57.4511 66.5599 57.5194 66.3989 57.4332 66.2921C57.3469 66.1853 57.202 66.2921 57.0864 66.3134C56.7039 66.371 56.476 66.6421 56.2546 66.9264C55.929 67.3471 55.7092 67.8368 55.4064 68.2723C55.1516 68.6736 54.8475 69.0408 54.5013 69.3651C54.3719 69.4627 54.2272 69.5377 54.0732 69.587C53.3091 69.8631 52.6289 70.3341 52.0985 70.9542C52.0676 70.9937 52.0464 71.0397 52.0187 71.0824C51.9915 71.1397 51.9439 71.1846 51.8855 71.2083C51.827 71.2321 51.7619 71.2329 51.7029 71.2106C51.5532 71.1613 51.3953 71.1301 51.2748 71.2878C51.2178 71.3634 51.1332 71.3305 51.0648 71.319C50.9183 71.2944 50.7815 71.2287 50.6285 71.2106C50.5113 71.1958 50.5032 71.0857 50.5471 70.9854C50.679 70.6781 50.8092 70.3725 50.946 70.0685C51.0648 69.8072 51.0518 69.7743 50.7832 69.6412C50.6204 69.5557 50.4576 69.4506 50.2948 69.3536C50.2622 69.3355 50.2232 69.3125 50.2297 69.2714C50.2362 69.2304 50.2899 69.2205 50.3322 69.2106C50.4283 69.1991 50.5198 69.1628 50.5979 69.1053C50.676 69.0477 50.7381 68.9708 50.7783 68.882C50.797 68.8416 50.8273 68.8078 50.8654 68.7852C50.9035 68.7626 50.9475 68.7523 50.9915 68.7554C51.0917 68.7476 51.1924 68.7531 51.2911 68.7719C51.7794 68.8935 52.105 68.6371 52.4127 68.3282C52.6667 68.0685 52.9011 67.7924 52.8848 67.3833C52.8848 67.2781 52.9532 67.2452 53.0622 67.2469C53.5587 67.2469 53.9478 67.0464 54.1497 66.5747C54.2929 66.2461 54.3271 65.6742 53.9478 65.4244C53.8241 65.3422 53.6808 65.2929 53.5506 65.2206C53.4448 65.1615 53.4171 65.1089 53.5506 65.0218C53.925 64.7704 54.3336 64.583 54.7211 64.3644C55.3087 64.0259 55.9029 63.6989 56.5004 63.3784C57.1515 63.0301 57.8125 62.6965 58.4685 62.3563C58.9748 62.095 59.4811 61.8288 59.9906 61.5741C60.5588 61.2881 61.1301 61.0088 61.7015 60.731C62.3674 60.4024 63.0348 60.0869 63.7071 59.7779C64.2101 59.5462 64.7213 59.3358 65.2308 59.1206C65.6671 58.9299 66.1001 58.7311 66.5332 58.552C67.116 58.3153 67.7036 58.0918 68.2913 57.8684C68.6934 57.7172 69.0939 57.5643 69.5025 57.4329C69.8557 57.3178 70.2025 57.1847 70.5606 57.0845C70.8471 57.0056 71.1353 56.9317 71.4201 56.8462C71.565 56.8035 71.5325 56.6539 71.4885 56.5553C71.4255 56.4027 71.4031 56.2362 71.4234 56.0722ZM46.4822 64.8262C46.5132 64.7063 46.6076 64.6948 46.7053 64.7194C46.9014 64.781 47.1016 64.8287 47.3043 64.8624C47.389 64.8706 47.428 64.9232 47.402 65.0267C47.2765 65.4455 47.1186 65.8538 46.9299 66.2477C46.9142 66.2765 46.8903 66.2999 46.8613 66.3148C46.8322 66.3298 46.7994 66.3356 46.7671 66.3315C46.5734 66.2855 46.3715 66.2214 46.1599 66.1902C46.0297 66.1721 46.0541 66.0259 46.0899 65.919C46.2153 65.5542 46.3846 65.2042 46.4822 64.8262ZM40.7276 58.9234C40.8269 58.7837 40.8904 58.787 40.9799 58.9431C41.3055 59.5446 41.6474 60.1362 41.9567 60.7425C42.0787 60.9775 42.2106 61.2076 42.3343 61.441C42.3539 61.4656 42.3653 61.4959 42.3667 61.5275C42.3682 61.5591 42.3597 61.5904 42.3425 61.6168C42.2839 61.699 42.2464 61.6168 42.1992 61.6168C41.6048 61.5492 41.0065 61.5223 40.4085 61.5363C40.032 61.5375 39.6577 61.5928 39.2967 61.7006C39.1485 61.7532 39.0215 61.7236 39.0476 61.5116C39.0516 61.4597 39.0516 61.4075 39.0476 61.3555C39.0281 60.971 39.1599 60.6242 39.2104 60.2643C39.2278 60.2002 39.2601 60.1411 39.3045 60.092C39.3489 60.0428 39.4043 60.005 39.466 59.9817C39.9637 59.7349 40.3962 59.3722 40.7276 58.9234ZM41.0532 52.5834C41.5415 52.8447 41.8769 53.2276 41.7483 53.8323C41.6815 54.1446 41.4422 54.3352 41.1899 54.4897C40.6389 54.7873 40.0241 54.9441 39.3992 54.9465C38.8439 54.978 38.2871 54.9226 37.7485 54.7822C37.6382 54.7638 37.5294 54.7375 37.4229 54.7033C37.3074 54.6523 37.2455 54.5735 37.3692 54.4436C37.47 54.3086 37.5466 54.1568 37.5955 53.995C37.7496 53.6454 37.8643 53.2794 37.9374 52.9038C37.9911 52.6113 38.245 52.5752 38.4501 52.5029C38.8517 52.3767 39.2701 52.3135 39.6906 52.3155C40.205 52.327 40.6494 52.3714 41.0499 52.5834H41.0532ZM36.0229 51.4216C36.1857 51.2654 36.3485 51.0748 36.5113 50.9171C36.7946 50.6591 37.0762 50.3978 37.3692 50.1496C37.5987 49.9541 37.8234 49.7503 38.0611 49.5646C38.4425 49.244 38.8504 48.957 39.2804 48.7068C39.5372 48.5428 39.8099 48.4057 40.0943 48.2976C40.1455 48.2741 40.2009 48.2618 40.2571 48.2614C40.2809 48.269 40.3033 48.2801 40.3239 48.2943C40.311 48.3138 40.2963 48.332 40.2799 48.3485C40.1399 48.4833 39.9983 48.6131 39.8599 48.7479C39.5719 49.032 39.3103 49.3423 39.0785 49.6747C38.4388 50.629 37.9245 51.6631 37.5483 52.751C37.3799 53.2535 37.1379 53.7276 36.8304 54.1577C36.3945 54.764 35.8626 55.2936 35.2562 55.7254C34.6423 56.1527 33.9826 56.5088 33.2897 56.787C32.7492 57.004 32.1827 57.0943 31.626 57.2357C31.5575 57.2445 31.488 57.2337 31.4253 57.2047C31.3625 57.1756 31.3091 57.1294 31.2711 57.0713C31.1994 56.9432 31.2581 56.8166 31.3557 56.6983C31.7741 56.1856 32.1697 55.6515 32.5978 55.1486C32.8339 54.8709 33.0504 54.5751 33.3092 54.3138C33.529 54.0903 33.7113 53.8208 33.9213 53.5957C34.0564 53.4461 34.2127 53.3163 34.3592 53.175C34.4813 53.0583 34.5497 52.9038 34.6718 52.7822C35.1194 52.3352 35.546 51.8587 36.0229 51.4216ZM26.7081 51.7404C26.862 51.5906 27.063 51.5 27.2762 51.484C27.3201 51.484 27.3657 51.4709 27.3967 51.5152C27.4276 51.5596 27.3739 51.5908 27.3511 51.6237C27.0142 52.099 26.7029 52.5921 26.4183 53.101C26.3776 53.1783 26.3011 53.2243 26.2555 53.3048C26.2099 53.3853 26.1448 53.3278 26.1074 53.2654C26.0522 53.1715 26.0245 53.0638 26.0276 52.9548C26.0882 52.4776 26.329 52.0425 26.6999 51.7404H26.7081ZM27.8834 57.9653C27.5714 57.8667 27.2654 57.7498 26.9669 57.6153C26.4999 57.3698 26.1486 56.9472 25.9901 56.4403C25.7769 55.801 26.096 55.2735 26.2946 54.7247C26.4412 54.3397 26.6158 53.9661 26.8171 53.6072C27.0351 53.2052 27.2832 52.8206 27.5594 52.4569C27.7369 52.2235 27.9046 51.9819 28.095 51.7617C28.3628 51.4279 28.6527 51.1127 28.9627 50.8185C29.1369 50.6656 29.3013 50.4799 29.4739 50.3255C29.6842 50.1178 29.9566 49.986 30.2487 49.9508C30.4978 49.9294 30.7371 49.8374 30.9943 49.8752C31.4036 49.9114 31.8099 49.9762 32.2104 50.0691C32.5685 50.1726 32.9315 50.263 33.2783 50.3978C33.625 50.5325 33.9506 50.6475 34.2762 50.8102C34.5708 50.9581 34.8915 51.0534 35.1797 51.2244C35.3132 51.3016 35.3067 51.3788 35.2285 51.4791C35.0496 51.7175 34.8583 51.9463 34.6555 52.1643C34.2111 52.6376 33.7943 53.1372 33.3955 53.6532C32.9592 54.2169 32.5115 54.7723 32.0753 55.3376C31.8457 55.6334 31.6504 55.9555 31.4062 56.2365C31.2434 56.4255 31.1539 56.6769 30.9178 56.8117C30.7281 56.8989 30.5204 56.939 30.3122 56.9284C29.9354 56.9298 29.5639 57.0186 29.2264 57.188C29.0636 57.2915 28.9546 57.4674 28.756 57.5282C28.655 57.5594 28.6094 57.6744 28.5525 57.7599C28.4816 57.8669 28.3762 57.9458 28.2543 57.9832C28.1323 58.0207 28.0013 58.0144 27.8834 57.9653ZM32.8681 60.054C32.4068 59.8384 32.0094 59.5047 31.7155 59.0861C31.5724 58.8769 31.3755 58.711 31.1461 58.6062C30.9167 58.5014 30.6633 58.4616 30.4132 58.4912C30.3949 58.488 30.3761 58.488 30.3578 58.4912C30.2583 58.5231 30.1682 58.5796 30.0957 58.6555C30.177 58.6812 30.2637 58.684 30.3464 58.6637C30.8169 58.6473 31.0969 58.9332 31.3232 59.2948C31.3736 59.3753 31.3655 59.4377 31.2581 59.4854C30.747 59.7129 30.1837 59.7937 29.6301 59.7187C29.3946 59.6847 29.175 59.579 29.0005 59.4158C28.826 59.2525 28.7049 59.0395 28.6534 58.8051C28.5769 58.4501 28.8439 57.9423 29.2346 57.7221C29.846 57.383 30.5581 57.278 31.2401 57.4263C31.561 57.4968 31.8709 57.6107 32.1615 57.7648C32.212 57.7895 32.2706 57.8371 32.3129 57.7911C32.3553 57.7451 32.2771 57.7188 32.2576 57.6827C32.1876 57.5413 32.3032 57.5446 32.3846 57.5282C32.7101 57.4608 33.0357 57.4509 33.3613 57.3638C34.0227 57.1983 34.6594 56.9446 35.2546 56.6096C35.9839 56.2004 36.5422 55.5989 37.0648 54.9662C37.1218 54.8972 37.1576 54.8758 37.2276 54.9038C37.786 55.1141 38.385 55.1355 38.9581 55.2735C39.0316 55.291 39.1071 55.2987 39.1827 55.2965C39.3162 55.2941 39.4483 55.3237 39.5683 55.3829C39.6883 55.442 39.7927 55.529 39.8729 55.6367C40.2929 56.1297 40.5648 56.6884 40.5143 57.3671C40.4745 57.8268 40.2723 58.2567 39.9446 58.5783C39.4271 59.0885 38.8124 59.4871 38.1376 59.75C37.4715 60.036 36.7708 60.2316 36.0539 60.3317C35.6615 60.3859 35.2725 60.5125 34.9941 60.4665C34.2662 60.4693 33.5446 60.3292 32.8697 60.054H32.8681ZM36.5341 61.012C36.0653 61.1501 35.6029 61.3276 35.069 61.3407C34.7987 61.413 34.6311 61.1665 34.4178 61.0252C34.3641 60.989 34.2404 60.9825 34.2697 60.8888C34.299 60.7951 34.4032 60.8395 34.4699 60.8543C35.1294 60.9696 35.8032 60.974 36.4641 60.8674C36.5829 60.8526 36.7767 60.7787 36.806 60.8872C36.8353 60.9956 36.6318 60.989 36.5357 61.012H36.5341ZM37.2878 75.1562C36.8521 74.9759 36.4322 74.7587 36.0327 74.5071C35.8362 74.3982 35.6155 74.3416 35.3913 74.3428C34.9957 74.3346 34.8069 74.1308 34.7304 73.7709V73.7528C34.5855 73.2598 34.5855 73.2598 35.1715 72.9624C35.5264 72.7783 35.5281 72.7767 35.8015 73.0708C36.3016 73.6124 36.7645 74.1878 37.1869 74.793C37.2601 74.8982 37.3415 74.9985 37.4181 75.0971C37.3888 75.1611 37.3676 75.1891 37.2894 75.1562H37.2878ZM50.3225 70.0093C50.4853 70.1917 50.3078 70.3495 50.2492 70.4924C49.9855 71.1498 49.7006 71.7923 49.4141 72.4365C49.178 72.964 48.9257 73.4882 48.6881 74.0125C48.6164 74.1669 48.4927 74.1768 48.3869 74.0535C47.9824 73.527 47.5475 73.0249 47.0846 72.5499C46.6419 72.1194 46.1779 71.7119 45.6943 71.3289C45.359 71.0693 45.0204 70.8129 44.6655 70.5845C44.3106 70.356 43.9899 70.1391 43.6383 69.937C43.2378 69.7036 42.8341 69.4785 42.4287 69.2583C41.7605 68.8982 41.0699 68.582 40.3613 68.3117C40.3108 68.292 40.236 68.2148 40.1985 68.2871C40.1611 68.3594 40.2571 68.4136 40.3157 68.4432C40.8139 68.7012 41.3022 68.9773 41.7808 69.2797C41.8456 69.3165 41.8959 69.3745 41.9234 69.4442C41.9509 69.5138 41.9541 69.5909 41.9322 69.6626C41.7712 70.5025 41.5252 71.3235 41.198 72.1128C41.1394 72.264 41.0792 72.4151 41.019 72.5663C40.975 72.6764 40.9278 72.7126 40.8187 72.706C40.2453 72.6926 39.6745 72.7873 39.1355 72.9854C38.6314 73.1537 38.1579 73.404 37.7339 73.7265C37.6215 73.812 37.5174 73.8416 37.4229 73.6904C37.029 73.0996 36.5563 72.5665 36.0181 72.1062C35.8354 71.9303 35.6424 71.7656 35.4401 71.6132C35.1781 71.4226 34.9078 71.2451 34.6555 71.0413C34.4927 70.9115 34.4927 70.8688 34.675 70.7751C35.028 70.6089 35.404 70.4981 35.7901 70.4464C36.1417 70.3578 36.5044 70.3229 36.8662 70.3429H37.2422C37.5597 70.3429 37.5792 70.3429 37.6134 70.0142C37.6639 69.5212 37.7583 69.0282 37.8478 68.5352C37.8657 68.4383 37.8478 68.2953 37.9699 68.2707C38.092 68.246 38.1539 68.384 38.2108 68.4695C38.3606 68.6913 38.5999 68.7982 38.7985 68.9625C38.8283 68.9803 38.8633 68.9867 38.8973 68.9807C38.9314 68.9746 38.9621 68.9565 38.9841 68.9296C39.0232 68.877 38.9467 68.8491 38.9141 68.8146C38.3867 68.2394 37.895 67.6347 37.4197 67.0069C36.8888 66.2895 36.3996 65.5417 35.9546 64.7671C35.9106 64.6948 35.8178 64.5945 35.8715 64.514C35.9253 64.4335 36.0262 64.5304 36.106 64.5403C36.2687 64.5567 36.3892 64.7046 36.5553 64.7046C36.5862 64.7046 36.6236 64.7326 36.6399 64.7046C36.6562 64.6767 36.6106 64.6487 36.5846 64.6274C36.329 64.4088 36.0099 64.2987 35.7299 64.1212C35.2057 63.7926 34.6669 63.4738 34.1671 63.1057C33.7884 62.8155 33.4418 62.485 33.1334 62.1197C33.0797 62.0589 33.0048 61.9767 33.052 61.883C33.0992 61.7893 33.1887 61.8436 33.2571 61.8485C33.9539 61.8863 34.6425 61.7647 35.3262 61.6727C36.2903 61.5519 37.2266 61.2639 38.0936 60.8214C38.2418 60.7442 38.2971 60.7836 38.3053 60.943C38.3199 61.2898 38.276 61.6382 38.346 61.9833C38.3655 62.0819 38.2727 62.1476 38.1962 62.2035C38.0441 62.3013 37.9179 62.435 37.8283 62.5929C37.8183 62.6198 37.8123 62.6481 37.8104 62.6767C37.8395 62.6796 37.8689 62.6762 37.8967 62.6669C38.722 62.2084 39.6174 62.095 40.542 62.0704C41.2289 62.0672 41.9148 62.1255 42.5915 62.2445C43.3502 62.3635 44.0997 62.5354 44.8348 62.7589C45.219 62.8739 45.6032 62.9956 45.9857 63.1172C46.0305 63.1252 46.073 63.1428 46.1104 63.1689C46.1478 63.1951 46.1791 63.229 46.2023 63.2685C46.2255 63.308 46.24 63.352 46.2447 63.3977C46.2495 63.4433 46.2444 63.4894 46.2299 63.5329C46.1746 63.8205 46.1241 64.1097 46.0671 64.399C45.947 64.9734 45.7618 65.532 45.5153 66.0637C45.3378 66.463 45.1587 66.8607 44.9618 67.2501C44.8706 67.4309 44.7892 67.398 44.6899 67.2847C44.4017 66.9676 44.0634 66.701 43.6887 66.4959C43.2017 66.2183 42.6919 65.9835 42.165 65.7941C41.6767 65.6167 41.1883 65.4655 40.6918 65.3307C40.1252 65.1725 39.5694 64.977 39.0281 64.7457C38.6018 64.5734 38.1902 64.3662 37.7974 64.1262C37.6997 64.0621 37.6053 63.9914 37.5076 63.924C37.4815 63.906 37.462 63.8484 37.4213 63.8928C37.3806 63.9372 37.4294 63.9602 37.4539 63.9865C37.7152 64.2576 38.0181 64.4846 38.3508 64.6586C39.041 65.0404 39.7627 65.3609 40.5078 65.6167C40.9084 65.7416 41.2982 65.8993 41.6734 66.0883C42.3194 66.4201 42.9307 66.8165 43.4983 67.2715C43.9464 67.6335 44.3354 68.0644 44.6508 68.5484C44.7241 68.6667 44.7908 68.693 44.869 68.5319C45.0546 68.1523 45.2597 67.7826 45.4567 67.4079C45.5283 67.2731 45.7432 67.2616 45.945 67.3898C46.0785 67.4769 46.0248 67.5755 45.9564 67.6774C45.8457 67.8417 45.7383 68.0061 45.6422 68.1868C45.6097 68.246 45.556 68.3183 45.6146 68.3972C45.6732 68.4761 45.7594 68.4333 45.8181 68.4284C46.1876 68.3988 46.5539 68.343 46.9218 68.3068C47.0768 68.2915 47.2306 68.2663 47.3825 68.2312C47.708 68.1573 47.9571 68.361 48.2192 68.4991C48.8631 68.862 49.4771 69.2763 50.0555 69.7381C50.1543 69.8187 50.2443 69.9096 50.3241 70.0093H50.3225ZM53.5278 65.8402C53.5607 65.8976 53.578 65.9628 53.578 66.0291C53.578 66.0955 53.5607 66.1607 53.5278 66.2181C53.4139 66.4153 53.3357 66.6405 53.129 66.7686C53.0755 66.8103 53.0093 66.8318 52.9418 66.8294C52.7432 66.8163 52.5429 66.8294 52.3443 66.8294C52.1815 66.8294 52.1311 66.9215 52.1913 67.0612C52.2678 67.2436 52.3671 67.4293 52.2548 67.6182C52.0998 67.8433 51.8902 68.0243 51.646 68.1441C51.5678 68.1918 51.4392 68.1523 51.3074 68.1523C51.0746 68.1934 50.8287 68.108 50.5813 68.0669C50.4543 68.0472 50.4185 68.0767 50.4283 68.1885C50.4283 68.3643 50.4967 68.5599 50.2525 68.647C50.0837 68.7062 49.8996 68.7027 49.7332 68.6371C49.21 68.4512 48.7465 68.1258 48.3918 67.6955C48.3185 67.6117 48.242 67.6347 48.1541 67.6626C47.6283 67.8352 47.0797 67.8532 46.5376 67.9025C46.4725 67.9025 46.3829 67.9403 46.339 67.8483C46.295 67.7563 46.3943 67.7201 46.4383 67.6741C46.8751 67.2384 47.2419 66.7366 47.5257 66.1869C47.8746 65.5199 48.061 64.7785 48.0694 64.0243C48.0694 63.6381 48.1036 63.6184 48.4341 63.8254C48.7646 64.0325 49.1194 64.2774 49.4629 64.5041C49.502 64.5304 49.5362 64.5896 49.5883 64.5436C49.6404 64.4976 49.6046 64.4565 49.5883 64.4203C49.4499 64.187 49.5883 64.0539 49.7511 63.9142C50.236 63.4849 50.6908 63.022 51.112 62.5288C51.1653 62.4476 51.2354 62.3789 51.3174 62.3276C51.3995 62.2762 51.4916 62.2434 51.5874 62.2314C51.6411 62.2219 51.6962 62.225 51.7486 62.2404C51.8009 62.2558 51.8491 62.2831 51.8894 62.3203C51.9296 62.3574 51.9609 62.4034 51.9808 62.4546C52.0007 62.5059 52.0086 62.5611 52.0041 62.6159C51.9809 63.0103 51.8508 63.3906 51.628 63.7153C51.5153 63.8936 51.422 64.0837 51.3497 64.2823C51.2732 64.4893 51.3627 64.5945 51.5239 64.6734C52.066 64.9462 52.6162 65.2075 53.1518 65.4951C53.3119 65.5649 53.4447 65.6862 53.5294 65.8402H53.5278Z" fill="#201600"/>
<path d="M57.5201 26.2734C57.6094 26.2561 57.7018 26.2674 57.7844 26.3057C57.867 26.344 57.9356 26.4074 57.9808 26.487C58.4155 27.0688 58.8729 27.6374 59.3011 28.2224C59.8041 28.9126 60.2778 29.6242 60.7336 30.3407C61.0169 30.7811 61.2855 31.2313 61.5476 31.6849C62.1858 31.8528 62.7795 32.1608 63.2862 32.5871C63.0306 32.0941 62.7734 31.6011 62.4934 31.1245C62.1287 30.5001 61.7521 29.8816 61.3636 29.2692C60.8866 28.5182 60.3869 27.7902 59.8562 27.0754C59.4799 26.5493 59.0739 26.0456 58.6401 25.5668C58.5148 25.4428 58.4004 25.3081 58.2983 25.1642C58.1534 24.939 57.9613 24.9801 57.7725 25.0524C57.3997 25.1937 57.009 25.2759 56.6329 25.4008C56.1787 25.5503 55.7213 25.6933 55.2655 25.8412C54.9285 25.9497 54.5932 26.0581 54.2594 26.1699C53.7819 26.3309 53.3066 26.4953 52.8334 26.6629C52.4166 26.8108 52.0015 26.962 51.588 27.1197C50.9369 27.3712 50.2857 27.6275 49.6345 27.8822C49.055 28.1222 48.4771 28.3292 47.9073 28.5642C47.2057 28.8534 46.509 29.1575 45.8139 29.4631C45.1187 29.7688 44.4041 30.0892 43.6976 30.4113C42.9911 30.7334 42.3139 31.0555 41.6285 31.3973C41.0327 31.6876 40.4423 31.9889 39.8573 32.3012C39.2062 32.6413 38.5778 32.9963 37.9413 33.348C37.3048 33.6996 36.639 34.0677 35.9878 34.4408C35.5759 34.6807 33.7087 35.6996 33.292 35.9395C33.5232 36.0151 34.132 36.0036 34.3697 36.1038C34.4874 36.1455 34.5955 36.2106 34.6878 36.2953C34.7801 36.38 34.8546 36.4825 34.9069 36.5968C35.0697 36.5032 36.4306 35.6305 36.5934 35.5796L37.059 35.297C37.5473 34.9913 38.0601 34.7021 38.5615 34.4128C39.0629 34.1236 39.5904 33.8442 40.1064 33.5649C40.5655 33.3167 41.0083 33.0407 41.4771 32.8155C41.9134 32.6052 42.3399 32.3767 42.7794 32.1582C43.2515 31.9265 43.7122 31.6652 44.1859 31.4483C44.5701 31.2659 44.9576 31.0884 45.3434 30.9093C45.5957 30.7909 45.8497 30.6595 46.1036 30.5494C46.3576 30.4393 46.6001 30.2946 46.8622 30.196C47.2155 30.0613 47.5557 29.897 47.9008 29.7474C48.3241 29.5634 48.7425 29.3629 49.1722 29.2002C49.602 29.0375 50.0334 28.8387 50.4648 28.6612C50.665 28.5774 50.8734 28.5067 51.0801 28.4344C51.4057 28.321 51.715 28.1764 52.0373 28.0679C52.3906 27.9496 52.739 27.8214 53.0873 27.6916C53.4357 27.5618 53.7825 27.4205 54.1341 27.312C54.4857 27.2035 54.7852 27.0425 55.1466 27.0129C55.2786 26.9881 55.4063 26.9444 55.5259 26.8831C55.985 26.7007 56.4636 26.5906 56.9325 26.4476C57.1327 26.3901 57.3215 26.3145 57.5201 26.2734Z" fill="#201600"/>
<path d="M25.2939 49.8782C24.6706 49.3785 23.9328 49.0451 23.1484 48.9086C22.9121 48.844 22.6626 48.8485 22.4288 48.9218C22.1032 49.05 21.9405 49.2044 21.9307 49.4739C21.9295 49.6283 21.9758 49.7792 22.0633 49.9058C22.1508 50.0324 22.2751 50.1284 22.4191 50.1806C22.9384 50.3876 23.6514 50.2364 24.1967 50.1806C24.3139 50.1691 24.9228 50.0442 24.5223 49.9801C24.0958 49.8958 23.6627 49.8507 23.2281 49.8453C23.1497 49.8536 23.0706 49.8536 22.9921 49.8453C22.9208 49.8298 22.8518 49.805 22.787 49.7714C22.66 49.7106 22.52 49.5972 22.5509 49.4575C22.6535 48.9957 23.78 49.372 24.0323 49.4575C24.4431 49.5975 24.8282 49.8052 25.1718 50.0721C25.2451 50.1313 25.346 50.2693 25.4339 50.1477C25.5218 50.0261 25.3688 49.9357 25.2939 49.8782Z" fill="#000B0D"/>
<path d="M36.8663 70.3361H37.2423C37.5597 70.3361 37.5793 70.3361 37.6135 70.0074C37.6639 69.5144 37.7583 69.0214 37.8479 68.5284C37.8658 68.4315 37.8479 68.2885 37.97 68.2638C38.0921 68.2392 38.1539 68.3772 38.2109 68.4627C38.3607 68.6845 38.6 68.7913 38.7986 68.9557C38.8283 68.9734 38.8634 68.9799 38.8974 68.9739C38.9314 68.9678 38.9622 68.9497 38.9842 68.9228C39.0232 68.8702 38.9467 68.8423 38.9142 68.8078C38.3867 68.2326 37.8951 67.6279 37.4197 67.0001C36.8889 66.2827 36.3997 65.5348 35.9546 64.7602C35.9107 64.6879 35.8179 64.5877 35.8716 64.5072C35.9253 64.4266 36.0263 64.5236 36.106 64.5335C36.2688 64.5499 36.3893 64.6978 36.5553 64.6978C36.5863 64.6978 36.6237 64.7257 36.64 64.6978C36.6563 64.6699 36.6107 64.6419 36.5846 64.6206C36.329 64.402 36.01 64.2919 35.73 64.1144C35.2058 63.7857 34.6669 63.4669 34.1672 63.0988C33.7884 62.8087 33.4418 62.4781 33.1335 62.1128C33.0797 62.052 33.0049 61.9699 33.0521 61.8762C33.0993 61.7825 33.1888 61.8367 33.2572 61.8417C33.9539 61.8795 34.6425 61.7579 35.3263 61.6658C36.2904 61.5451 37.2266 61.2571 38.0937 60.8146C38.2418 60.7374 38.2972 60.7768 38.3053 60.9362C38.32 61.2829 38.276 61.6313 38.346 61.9764C38.3656 62.075 38.2728 62.1408 38.1963 62.1966C38.0442 62.2945 37.9179 62.4281 37.8283 62.5861C37.8184 62.613 37.8123 62.6412 37.8104 62.6699C37.8401 62.6726 37.87 62.6693 37.8983 62.6601C38.7221 62.2016 39.6174 62.0882 40.5421 62.0635C41.229 62.0603 41.9149 62.1186 42.5916 62.2377C43.3502 62.3567 44.0998 62.5285 44.8349 62.7521C45.219 62.8671 45.6032 62.9887 45.9858 63.1103C46.0305 63.1183 46.0731 63.136 46.1104 63.1621C46.1478 63.1882 46.1792 63.2222 46.2024 63.2617C46.2255 63.3011 46.24 63.3452 46.2448 63.3908C46.2495 63.4365 46.2445 63.4826 46.23 63.5261C46.1746 63.8137 46.1242 64.1029 46.0672 64.3921C45.9472 64.9668 45.7615 65.5255 45.5137 66.0568C45.3379 66.4562 45.1588 66.8538 44.9618 67.2433C44.8707 67.4241 44.7893 67.3912 44.69 67.2778C44.4018 66.9608 44.0635 66.6942 43.6888 66.489C43.2018 66.2114 42.692 65.9767 42.1651 65.7873C41.6767 65.6098 41.1883 65.4587 40.6918 65.3239C40.1252 65.1656 39.5695 64.9702 39.0281 64.7389C38.6018 64.5666 38.1902 64.3594 37.7974 64.1193C37.6997 64.0553 37.6053 63.9846 37.5076 63.9172C37.4816 63.8991 37.4621 63.8416 37.4214 63.886C37.3807 63.9304 37.4295 63.9534 37.4539 63.9797C37.7153 64.2508 38.0181 64.4778 38.3509 64.6518C39.0409 65.0338 39.7627 65.3544 40.5079 65.6098C40.9085 65.7348 41.2983 65.8925 41.6735 66.0815C42.3194 66.4133 42.9308 66.8097 43.4983 67.2647C43.947 67.6286 44.336 68.0618 44.6509 68.5481C44.7242 68.6664 44.7909 68.6927 44.869 68.5317C45.0546 68.1521 45.2597 67.7823 45.4567 67.4077C45.5283 67.2729 45.7432 67.2614 45.9451 67.3896C46.0786 67.4767 46.0249 67.5753 45.9565 67.6772C45.8458 67.8415 45.7383 68.0058 45.6423 68.1866C45.6097 68.2458 45.556 68.3181 45.6146 68.3969C45.6732 68.4758 45.7595 68.4331 45.8181 68.4282C46.1876 68.3986 46.5539 68.3427 46.9218 68.3066C47.0768 68.2912 47.2307 68.266 47.3825 68.231C47.7081 68.157 47.9572 68.3608 48.2193 68.4988C48.8631 68.8617 49.4772 69.2761 50.0555 69.7379C50.1561 69.8187 50.2478 69.9101 50.329 70.0107C50.4918 70.1931 50.3144 70.3509 50.2558 70.4938C49.9921 71.1512 49.7072 71.7937 49.4207 72.4379C49.1846 72.9654 48.9323 73.4896 48.6946 74.0139C48.623 74.1683 48.4993 74.1782 48.3935 74.0549C47.9889 73.5284 47.5541 73.0263 47.0911 72.5513C46.6485 72.1208 46.1845 71.7133 45.7009 71.3303C45.3656 71.0706 45.0269 70.8143 44.6721 70.5859C44.3172 70.3574 43.9965 70.1405 43.6449 69.9384C43.2444 69.705 42.8407 69.4799 42.4353 69.2597C41.7671 68.8996 41.0765 68.5834 40.3679 68.3131C40.3174 68.2934 40.2425 68.2162 40.2051 68.2885C40.1676 68.3608 40.2637 68.415 40.3223 68.4446C40.8204 68.7026 41.3088 68.9787 41.7874 69.2811C41.8521 69.3179 41.9024 69.3759 41.93 69.4456C41.9575 69.5152 41.9606 69.5923 41.9388 69.664C41.7778 70.5039 41.5318 71.3249 41.2046 72.1142C41.146 72.2654 41.0858 72.4165 41.0256 72.5677C40.9816 72.6778 40.9344 72.714 40.8253 72.7074C40.2498 72.6926 39.6767 72.7868 39.1356 72.9851C38.6315 73.1534 38.158 73.4038 37.7339 73.7263C37.6216 73.8117 37.5174 73.8413 37.423 73.6901C37.0291 73.0993 36.5564 72.5663 36.0181 72.1059C35.8355 71.93 35.6425 71.7654 35.4402 71.6129C35.1781 71.4223 34.9079 71.2448 34.6556 71.0411C34.4928 70.9112 34.4928 70.8685 34.6751 70.7748C35.0281 70.6087 35.4041 70.4979 35.7902 70.4462C36.1414 70.3554 36.5041 70.3183 36.8663 70.3361Z" fill="#E73125"/>
<path d="M30.4202 57.0074C30.0333 57.0081 29.6518 57.0986 29.3051 57.272C29.3051 57.272 29.3051 57.2621 29.2937 57.2572H29.3035H29.3197C29.1423 57.3607 29.03 57.553 28.82 57.6171C28.7158 57.6499 28.6702 57.7683 28.61 57.857C28.5384 57.9637 28.4333 58.043 28.3116 58.0821C28.1899 58.1212 28.0588 58.1177 27.9393 58.0723C27.6188 57.9704 27.3041 57.8508 26.9967 57.714C26.7583 57.5895 26.5466 57.4187 26.3737 57.2114C26.2008 57.0041 26.0701 56.7645 25.989 56.5062C25.7693 55.8488 26.0965 55.3065 26.3 54.7429C26.4517 54.347 26.6312 53.9626 26.8372 53.5925C27.062 53.1799 27.3172 52.785 27.6007 52.411C27.7814 52.1711 27.9555 51.918 28.1509 51.6961C28.4263 51.3536 28.7244 51.0302 29.043 50.7282C29.2204 50.5639 29.3897 50.3798 29.5688 50.2155C29.7845 50.0027 30.0637 49.8675 30.3632 49.831C30.6188 49.8079 30.8679 49.7143 31.13 49.7537C31.5507 49.7916 31.9683 49.858 32.3802 49.9526C32.7465 50.0594 33.1209 50.1514 33.4758 50.2812C33.8307 50.411 34.1676 50.5392 34.503 50.7068C34.8042 50.858 35.133 50.9566 35.4309 51.1308C35.5676 51.2114 35.5611 51.2952 35.4814 51.3938C35.297 51.6382 35.1003 51.873 34.8921 52.0971C34.4346 52.5901 34.0065 53.0979 33.5897 53.6271C33.1404 54.2072 32.6797 54.7774 32.2321 55.3575C31.9976 55.6615 31.7974 55.9935 31.5451 56.2827C31.3823 56.4766 31.2862 56.7346 31.0339 56.8726C30.843 56.9665 30.6325 57.0127 30.4202 57.0074Z" fill="white"/>
<path d="M35.0029 60.481C34.2713 60.4802 33.5468 60.3351 32.8703 60.0537C32.4091 59.8382 32.0117 59.5045 31.7178 59.0858C31.5746 58.8766 31.3778 58.7108 31.1484 58.606C30.9189 58.5011 30.6656 58.4614 30.4154 58.4909C30.3971 58.4877 30.3784 58.4877 30.3601 58.4909C30.2606 58.5229 30.1705 58.5793 30.098 58.6553C30.1793 58.6809 30.266 58.6838 30.3487 58.6635C30.8192 58.647 31.0992 58.933 31.3254 59.2945C31.3759 59.375 31.3678 59.4375 31.2603 59.4851C30.7493 59.7127 30.186 59.7934 29.6324 59.7185C29.3968 59.6849 29.1769 59.5794 29.0023 59.416C28.8277 59.2527 28.7068 59.0395 28.6557 58.8048C28.5792 58.4498 28.8461 57.942 29.2368 57.7218C29.8483 57.3827 30.5604 57.2777 31.2424 57.426C31.5632 57.4965 31.8732 57.6104 32.1638 57.7646C32.2143 57.7892 32.2729 57.8369 32.3152 57.7909C32.3575 57.7448 32.2794 57.7185 32.2599 57.6824C32.1899 57.5411 32.3054 57.5444 32.3868 57.5279C32.7124 57.4605 33.038 57.4507 33.3636 57.3636C34.025 57.198 34.6617 56.9443 35.2568 56.6093C35.9861 56.2001 36.5445 55.5986 37.0671 54.966C37.1241 54.8969 37.1599 54.8756 37.2299 54.9035C37.7882 55.1139 38.3873 55.1352 38.9603 55.2733C39.0339 55.2907 39.1094 55.2985 39.185 55.2963C39.3185 55.2939 39.4506 55.3235 39.5706 55.3826C39.6906 55.4417 39.795 55.5287 39.8752 55.6364C40.2952 56.1294 40.5671 56.6882 40.5166 57.3669C40.4768 57.8265 40.2746 58.2564 39.9468 58.578C39.4294 59.0882 38.8147 59.4868 38.1399 59.7497C37.4738 60.0357 36.7731 60.2313 36.0561 60.3315C35.6703 60.4005 35.2813 60.527 35.0029 60.481Z" fill="#CEB48D"/>
<path d="M51.3026 68.1486C51.0698 68.1897 50.824 68.1043 50.5766 68.0632C50.4496 68.0434 50.4138 68.073 50.4235 68.1848C50.4235 68.3606 50.4919 68.5562 50.2477 68.6433C50.079 68.7025 49.8948 68.699 49.7284 68.6334C49.2053 68.4475 48.7417 68.1221 48.387 67.6918C48.3138 67.608 48.2372 67.631 48.1493 67.6589C47.6235 67.8315 47.0749 67.8495 46.5328 67.8988C46.4677 67.8988 46.3782 67.9366 46.3342 67.8446C46.2903 67.7526 46.3896 67.7164 46.4335 67.6704C46.8703 67.2347 47.2372 66.7329 47.521 66.1832C47.871 65.5176 48.0591 64.7774 48.0696 64.0239C48.0696 63.6377 48.1038 63.618 48.4342 63.825C48.7647 64.0321 49.1196 64.2769 49.4631 64.5037C49.5021 64.53 49.5363 64.5892 49.5884 64.5431C49.6405 64.4971 49.6047 64.4561 49.5884 64.4199C49.45 64.1865 49.5884 64.0534 49.7512 63.9138C50.2362 63.4844 50.6909 63.0215 51.1121 62.5284C51.1654 62.4472 51.2355 62.3785 51.3175 62.3272C51.3996 62.2758 51.4917 62.243 51.5875 62.231C51.6412 62.2215 51.6964 62.2246 51.7487 62.24C51.8011 62.2554 51.8492 62.2827 51.8895 62.3198C51.9297 62.357 51.961 62.403 51.9809 62.4542C52.0008 62.5055 52.0088 62.5607 52.0042 62.6155C51.9808 63.0095 51.8514 63.3897 51.6298 63.7149C51.5159 63.8928 51.422 64.083 51.3498 64.2819C51.2733 64.4889 51.3628 64.5941 51.524 64.673C52.0661 64.9458 52.6163 65.2071 53.1519 65.4946C53.3144 65.5644 53.449 65.6871 53.5345 65.843C53.5673 65.9005 53.5846 65.9657 53.5846 66.032C53.5846 66.0984 53.5673 66.1635 53.5345 66.221C53.4205 66.4182 53.3424 66.6433 53.1356 66.7715C53.0822 66.8132 53.0159 66.8347 52.9484 66.8323C52.7498 66.8192 52.5496 66.8323 52.351 66.8323C52.1882 66.8323 52.1377 66.9243 52.198 67.064C52.2745 67.2464 52.3754 67.4321 52.2614 67.6211C52.1064 67.8461 51.8968 68.0272 51.6526 68.147C51.5631 68.1881 51.4345 68.1486 51.3026 68.1486Z" fill="white"/>
<path d="M31.6279 57.2353C31.5594 57.2441 31.4899 57.2334 31.4272 57.2044C31.3645 57.1753 31.3111 57.1291 31.273 57.071C31.2014 56.9428 31.26 56.8163 31.3576 56.698C31.776 56.1853 32.1716 55.6512 32.5997 55.1483C32.8358 54.8706 33.0523 54.5748 33.3111 54.3135C33.5309 54.09 33.7132 53.8205 33.9232 53.5954C34.0583 53.4458 34.2146 53.316 34.3611 53.1747C34.4832 53.0596 34.5516 52.9035 34.6737 52.7819C35.1279 52.3316 35.5544 51.8551 36.0232 51.4179C36.186 51.2618 36.3488 51.0712 36.5116 50.9134C36.7949 50.6554 37.0765 50.3941 37.3695 50.146C37.599 49.9504 37.8237 49.7467 38.0614 49.561C38.4428 49.2404 38.8507 48.9534 39.2807 48.7032C39.5375 48.5392 39.8102 48.402 40.0946 48.294C40.1458 48.2705 40.2012 48.2582 40.2574 48.2578C40.2811 48.2654 40.3036 48.2765 40.3242 48.2907C40.3113 48.3102 40.2966 48.3283 40.2802 48.3449C40.1402 48.4797 39.9986 48.6095 39.8602 48.7442C39.5722 49.0284 39.3106 49.3386 39.0788 49.6711C38.4391 50.6254 37.9248 51.6595 37.5486 52.7474C37.3802 53.2499 37.1382 53.724 36.8307 54.1541C36.3948 54.7604 35.8629 55.29 35.2565 55.7218C34.6425 56.1491 33.9829 56.5052 33.29 56.7834C32.743 57.0036 32.1765 57.094 31.6279 57.2353Z" fill="white"/>
<path d="M39.6898 52.3115C40.2058 52.3263 40.6502 52.3707 41.0507 52.5827C41.5391 52.844 41.8744 53.2269 41.7458 53.8316C41.6791 54.1439 41.4398 54.3345 41.1874 54.489C40.6365 54.7866 40.0216 54.9435 39.3967 54.9458C38.8414 54.9773 38.2846 54.9219 37.746 54.7815C37.6358 54.7631 37.5269 54.7368 37.4204 54.7026C37.3049 54.6517 37.243 54.5728 37.3667 54.443C37.4676 54.3079 37.5441 54.1561 37.593 53.9943C37.7471 53.6447 37.8618 53.2787 37.9349 52.9031C37.9886 52.6106 38.2442 52.5745 38.4477 52.5022C38.8496 52.3747 39.2685 52.3104 39.6898 52.3115Z" fill="#CEB48D"/>
<path d="M41.1463 48.7082C41.1176 48.8293 41.0756 48.9467 41.0209 49.0582C40.9816 49.1848 40.936 49.3094 40.8842 49.4313C40.5663 50.1823 40.1608 50.8923 39.6763 51.5463C39.5809 51.6788 39.4376 51.768 39.2774 51.7944C39.0088 51.8338 38.7891 51.9834 38.5449 52.0721C38.4928 52.0902 38.4423 52.1346 38.3935 52.0886C38.3446 52.0425 38.3658 51.9817 38.3935 51.9242C38.5432 51.6235 38.6312 51.2981 38.7825 50.9974C39.0204 50.4787 39.3003 49.9807 39.6193 49.5085C39.9183 49.0812 40.2872 48.7083 40.71 48.4058C40.754 48.3742 40.8046 48.353 40.8579 48.3439C40.9111 48.3348 40.9658 48.338 41.0177 48.3533C41.13 48.4173 41.1528 48.5669 41.1463 48.7082Z" fill="#E73125"/>
<path d="M46.7672 66.3317C46.5735 66.2857 46.3716 66.2216 46.16 66.1904C46.0298 66.1723 46.0542 66.0261 46.09 65.9193C46.2186 65.5544 46.3879 65.2044 46.4856 64.8264C46.5165 64.7065 46.6109 64.695 46.7086 64.7196C46.9048 64.7812 47.105 64.829 47.3077 64.8626C47.3923 64.8708 47.4314 64.9234 47.4054 65.0269C47.2788 65.4458 47.1198 65.8541 46.93 66.2479C46.9143 66.2767 46.8904 66.3001 46.8614 66.3151C46.8323 66.33 46.7995 66.3358 46.7672 66.3317Z" fill="#CEB48D"/>
<path d="M26.0314 52.9237C26.094 52.4352 26.3413 51.99 26.7216 51.6814C26.8799 51.527 27.0866 51.4334 27.3061 51.4168C27.35 51.4168 27.3988 51.4036 27.4281 51.4496C27.4574 51.4957 27.4054 51.5269 27.3826 51.5597C27.0394 52.0473 26.7215 52.5525 26.4302 53.0733C26.3895 53.1538 26.3098 53.1998 26.2675 53.282C26.2251 53.3641 26.1535 53.3066 26.1144 53.2425C26.0576 53.1462 26.0289 53.0357 26.0314 52.9237Z" fill="white"/>
<path d="M35.0674 61.3456C34.7972 61.4179 34.6295 61.1714 34.4162 61.0301C34.3625 60.9939 34.2388 60.9874 34.2681 60.8937C34.2974 60.8 34.4016 60.8444 34.4683 60.8592C35.1278 60.9745 35.8016 60.9789 36.4625 60.8723C36.5814 60.8575 36.7751 60.7836 36.8044 60.8921C36.8337 61.0005 36.6302 60.9841 36.5341 61.012C36.0669 61.1533 35.6046 61.3275 35.0674 61.3456Z" fill="#CEB48D"/>
<path d="M26.0181 59.7682C26.0149 59.7572 26.0093 59.747 26.0017 59.7385C25.9941 59.73 25.9847 59.7233 25.9742 59.7189C25.9351 59.7057 25.8928 59.7057 25.8537 59.7189C24.877 59.9604 23.9149 60.9645 23.446 61.8338C23.2768 62.0967 23.1816 62.4013 23.1709 62.7146C23.1335 63.183 23.6349 63.5002 24.1151 63.372C24.4814 63.2783 24.68 63.0104 24.8607 62.7064C24.9586 62.4871 25.0371 62.2594 25.0951 62.0261L25.4207 61.1453C25.463 61.0269 25.5249 60.9218 25.5737 60.8067C25.5992 60.6885 25.6358 60.573 25.6828 60.4616C25.6974 60.4419 25.6649 60.4091 25.6405 60.4222C25.2286 60.6753 24.9779 61.2094 24.7646 61.6498C24.6588 61.8683 24.2323 62.8724 23.8628 62.6243C23.823 62.5936 23.7911 62.5537 23.7698 62.5079C23.7485 62.4621 23.7386 62.4118 23.7407 62.3613C23.7407 61.8388 24.2421 61.3112 24.566 60.9514C24.9804 60.5118 25.4571 60.1368 25.9807 59.8388C25.9932 59.8324 26.0043 59.8235 26.0132 59.8125C26.0173 59.806 26.0199 59.7986 26.0208 59.7909C26.0216 59.7832 26.0207 59.7754 26.0181 59.7682Z" fill="#000B0D"/>
<path d="M77.6313 52.4056L43.8604 51.8058L44.041 45.967L79.0769 45.3672L77.6313 52.4056Z" fill="white"/>
<path d="M77.9683 52.8298C72.2554 52.7203 66.5523 52.5905 60.859 52.4404L43.8571 51.9704H43.6943V51.806L43.875 45.9673V45.8029H44.0297L79.0655 45.2031H79.2592L79.2283 45.4053C79.0443 46.6065 78.8539 47.8325 78.6439 49.0748C78.4339 50.3172 78.2141 51.5727 77.9683 52.8298ZM77.296 51.9819C77.5304 50.894 77.7843 49.8061 78.0562 48.6952C78.3281 47.5843 78.6195 46.4718 78.9174 45.328L79.0802 45.5252L44.0427 46.125L44.2055 45.9607L44.0264 51.7978L43.8636 51.6335L60.6311 51.7633C66.2018 51.8236 71.7567 51.8964 77.296 51.9819Z" fill="#201600"/>
<path d="M49.8608 50.1087L49.7566 50.1909C49.4522 50.4317 49.0755 50.5604 48.6887 50.5557C48.4704 50.5567 48.2539 50.516 48.0506 50.4357C47.8504 50.3564 47.6669 50.2393 47.5101 50.0906C47.3493 49.9377 47.2203 49.7539 47.1308 49.55C47.0439 49.3483 46.999 49.1307 46.999 48.9107C46.999 48.6907 47.0439 48.4731 47.1308 48.2714C47.2208 48.0692 47.3497 47.8871 47.5101 47.7357C47.665 47.5834 47.8489 47.4643 48.0506 47.3857C48.2539 47.3054 48.4704 47.2647 48.6887 47.2657C49.0736 47.2616 49.4484 47.3897 49.7518 47.6289L49.8559 47.7078L49.6004 48.4818L49.3952 48.2879C49.301 48.1995 49.1903 48.1308 49.0697 48.0857C48.9463 48.0392 48.8155 48.0158 48.6838 48.0167C48.552 48.0154 48.421 48.0394 48.298 48.0874C48.1775 48.1342 48.067 48.204 47.9724 48.2928C47.886 48.3703 47.8169 48.4655 47.7698 48.572C47.7226 48.6785 47.6985 48.794 47.699 48.9107C47.699 49.024 47.7228 49.136 47.769 49.2394C47.8173 49.3469 47.8865 49.4435 47.9724 49.5237C48.0671 49.612 48.1776 49.6812 48.298 49.7274C48.4209 49.776 48.5519 49.8005 48.6838 49.7997C48.8163 49.8002 48.9477 49.7757 49.0713 49.7274C49.1918 49.6814 49.3024 49.6122 49.3969 49.5237L49.602 49.3297L49.8608 50.1087Z" fill="#201600"/>
<path d="M52.8931 48.0849C52.8686 48.0849 52.8556 48.0964 52.8556 48.1211V48.7341C52.8556 48.762 52.8686 48.7751 52.8931 48.7751H54.3761V49.5081H52.8931C52.8686 49.5081 52.8556 49.5229 52.8556 49.5492V49.7891C52.8551 49.7942 52.8557 49.7993 52.8574 49.8041C52.8591 49.8089 52.8619 49.8133 52.8655 49.8169C52.869 49.8206 52.8734 49.8233 52.8781 49.825C52.8829 49.8268 52.888 49.8274 52.8931 49.8269H54.7277V50.5631H52.123V47.3389H54.7277V48.0849H52.8931Z" fill="#201600"/>
<path d="M58.5742 47.3496C58.7606 47.3487 58.9451 47.3868 59.1163 47.4614C59.4495 47.6023 59.7152 47.8687 59.857 48.2042C59.9309 48.3769 59.9686 48.5632 59.9677 48.7514C59.9669 48.9251 59.9326 49.097 59.8667 49.2575C59.8011 49.4221 59.7068 49.5735 59.5884 49.7045C59.4607 49.8481 59.3043 49.9627 59.1294 50.0406C58.9546 50.1185 58.7653 50.158 58.5742 50.1564H57.7602V50.5706H57.0342V47.3496H58.5742ZM58.5742 49.4186C58.6624 49.4194 58.75 49.402 58.8314 49.3676C58.9102 49.3352 58.982 49.2878 59.043 49.228C59.1043 49.1673 59.1534 49.0953 59.1879 49.016C59.2224 48.9333 59.2402 48.8444 59.24 48.7547C59.2403 48.6655 59.2225 48.5771 59.1879 48.495C59.1534 48.416 59.1055 48.3437 59.0463 48.2814C58.9862 48.2196 58.9149 48.1699 58.8363 48.1351C58.7544 48.1003 58.6663 48.0824 58.5774 48.0826H57.8156C57.8088 48.0818 57.8019 48.0825 57.7954 48.0848C57.7889 48.0871 57.783 48.0908 57.7782 48.0957C57.7733 48.1006 57.7696 48.1066 57.7674 48.1131C57.7651 48.1196 57.7643 48.1266 57.7651 48.1335V49.3726C57.7651 49.4038 57.783 49.4186 57.8156 49.4186H58.5742Z" fill="#201600"/>
<path d="M64.6137 48.9387C64.6918 49.0263 64.7531 49.1277 64.7944 49.2378C64.8353 49.3482 64.8563 49.4651 64.8563 49.5829C64.8569 49.7134 64.8308 49.8426 64.7798 49.9625C64.683 50.1983 64.4974 50.3857 64.2637 50.4835C64.145 50.535 64.017 50.5613 63.8877 50.5607H62.1768V47.3496H63.8877C64.0196 47.3489 64.1503 47.3752 64.2719 47.4269C64.389 47.4771 64.4943 47.5515 64.5812 47.6454C64.6617 47.7357 64.7247 47.8405 64.7668 47.9544C64.8109 48.0737 64.8329 48.2001 64.8319 48.3274C64.8345 48.551 64.757 48.7681 64.6137 48.9387ZM62.9012 48.541C62.9012 48.569 62.9175 48.5838 62.9468 48.5838H63.86C63.8909 48.5827 63.9213 48.5753 63.9493 48.562C63.9773 48.5488 64.0023 48.5299 64.0228 48.5065C64.0466 48.483 64.0653 48.4549 64.0779 48.4238C64.0905 48.3927 64.0967 48.3593 64.0961 48.3258C64.0984 48.2929 64.0935 48.2599 64.0817 48.2292C64.0699 48.1985 64.0514 48.1709 64.0277 48.1483C64.0048 48.1252 63.9777 48.1069 63.9478 48.0945C63.9179 48.0821 63.8858 48.0758 63.8535 48.076H62.9402C62.9109 48.076 62.8947 48.0908 62.8947 48.1187L62.9012 48.541ZM62.9012 49.7867C62.9012 49.813 62.9175 49.8278 62.9468 49.8278H63.8828C63.9151 49.828 63.9472 49.8217 63.9771 49.8093C64.007 49.7968 64.0341 49.7786 64.057 49.7555C64.0808 49.7327 64.0997 49.7051 64.1123 49.6746C64.1249 49.644 64.131 49.6111 64.1302 49.578C64.128 49.5102 64.1007 49.4457 64.0537 49.3972C64.0335 49.3736 64.0085 49.3545 63.9805 49.3412C63.9524 49.3279 63.9219 49.3206 63.8909 49.32H62.95C62.9207 49.32 62.9044 49.3348 62.9044 49.3627L62.9012 49.7867Z" fill="#201600"/>
<path d="M67.9142 47.3389V49.0249C67.9142 49.0249 67.9142 49.0348 67.9142 49.0364C67.9142 49.0381 67.9142 49.0364 67.924 49.0364L69.0554 47.3454H69.7212V50.5746H68.9919V48.785C68.9919 48.785 68.9919 48.7751 68.9919 48.7735C68.9919 48.7719 68.9919 48.7735 68.9821 48.7735L67.8426 50.5614H67.1914V47.3389H67.9142Z" fill="#201600"/>
<path d="M74.852 50.1087L74.7479 50.1909C74.4434 50.4317 74.0667 50.5604 73.6799 50.5557C73.4616 50.5567 73.2451 50.516 73.0418 50.4357C72.8416 50.3564 72.6581 50.2393 72.5013 50.0906C72.3405 49.9377 72.2115 49.7539 72.122 49.55C72.0351 49.3483 71.9902 49.1307 71.9902 48.9107C71.9902 48.6907 72.0351 48.4731 72.122 48.2714C72.212 48.0692 72.341 47.8871 72.5013 47.7357C72.6562 47.5834 72.8401 47.4643 73.0418 47.3857C73.2451 47.3054 73.4616 47.2647 73.6799 47.2657C74.0648 47.2616 74.4397 47.3897 74.743 47.6289L74.8472 47.7078L74.5916 48.4818L74.3865 48.2879C74.2922 48.1995 74.1815 48.1308 74.0609 48.0857C73.9381 48.0391 73.8079 48.0157 73.6767 48.0167C73.5448 48.0153 73.4138 48.0392 73.2909 48.0874C73.1703 48.1342 73.0598 48.204 72.9653 48.2928C72.8789 48.3703 72.8098 48.4655 72.7626 48.572C72.7154 48.6785 72.6913 48.794 72.6918 48.9107C72.6918 49.024 72.7157 49.136 72.7618 49.2394C72.8102 49.3469 72.8794 49.4435 72.9653 49.5237C73.0599 49.612 73.1704 49.6812 73.2909 49.7274C73.4137 49.7761 73.5447 49.8007 73.6767 49.7997C73.8092 49.8002 73.9406 49.7757 74.0641 49.7274C74.1847 49.6814 74.2953 49.6122 74.3897 49.5237L74.5948 49.3297L74.852 50.1087Z" fill="#201600"/>
<path d="M25.5334 36.0418C25.2193 36.5802 24.8563 37.0879 24.4492 37.5586L23.6352 38.5774L23.1631 39.409C23.7217 40.6197 24.4095 41.7653 25.2143 42.8254C25.2306 43.2889 24.8382 43.7172 24.0373 44.1105C23.2364 44.5038 22.767 44.603 22.6292 44.408L21.2487 42.1928L19.9073 43.5518C18.7624 44.804 18.0439 45.3649 17.752 45.2346C17.471 45.2582 17.1912 45.1769 16.9657 45.0061C16.7801 44.8473 16.5744 44.6528 16.3487 44.4228C16.0513 43.9747 16.4193 43.2078 17.4524 42.1221L19.5817 39.3827C19.2844 38.9291 18.942 38.4471 18.5545 37.9365C17.9181 37.2667 17.3362 36.5462 16.8143 35.7821C16.7 35.6476 16.6294 35.4809 16.612 35.3046C16.5945 35.1283 16.631 34.9508 16.7166 34.7961C16.8322 34.5617 16.9914 34.3519 17.1855 34.1782C17.3793 34.0107 17.588 33.8616 17.8089 33.7329C18.1182 33.6376 18.4357 33.7329 18.758 34.027C19.1934 34.4417 19.5937 34.8924 19.9545 35.3746C20.3355 35.8237 20.7598 36.2729 21.2275 36.7221C22.0252 35.517 22.6677 34.5573 23.155 33.843C23.5338 33.6107 23.9565 33.6562 24.4231 33.9794C24.8898 34.3026 25.3239 34.6312 25.7255 34.9654C25.9121 35.282 25.8481 35.6408 25.5334 36.0418Z" fill="#E73125"/>
<path d="M17.8476 45.5022C17.8007 45.5024 17.754 45.4952 17.7093 45.4808C17.3864 45.4959 17.0688 45.3939 16.8139 45.1932C16.6251 45.0289 16.4118 44.8301 16.1806 44.5967L16.1448 44.5556C15.7672 43.9854 16.1237 43.1604 17.2665 41.9592L19.2753 39.3709C19.0067 38.9699 18.7006 38.5492 18.362 38.0957C17.7217 37.4188 17.1354 36.6918 16.6088 35.9216C16.4701 35.7525 16.3846 35.5455 16.3631 35.3272C16.3417 35.1088 16.3853 34.8889 16.4883 34.6956C16.6176 34.4319 16.7962 34.1959 17.0141 34.0005C17.2191 33.8237 17.4398 33.6664 17.6734 33.5305L17.7255 33.5058C18.1211 33.3842 18.52 33.5058 18.909 33.8526C19.3551 34.2767 19.7652 34.738 20.1348 35.2314C20.4458 35.5962 20.7958 35.9725 21.1751 36.3488C21.9027 35.2494 22.4969 34.367 22.9495 33.7096L22.9788 33.6669L23.0244 33.639C23.35 33.4434 23.8709 33.3103 24.5562 33.7836C25.0267 34.1122 25.4744 34.4409 25.8846 34.7893L25.9172 34.8172L25.9383 34.8534C26.1011 35.1311 26.1972 35.5863 25.7365 36.1861C25.414 36.7297 25.0429 37.2424 24.6279 37.7177L23.8269 38.7169L23.4395 39.4186C23.9803 40.5711 24.64 41.6628 25.4076 42.6757L25.4548 42.7381V42.817C25.4744 43.3839 25.0332 43.8934 24.1395 44.3321C23.1627 44.8103 22.6532 44.8761 22.4253 44.5507L21.2093 42.5836L20.0811 43.734C18.7674 45.1637 18.1846 45.5022 17.8476 45.5022ZM17.8004 44.9878L17.8493 45.0092C17.8786 45.0092 18.2416 45.0092 19.7279 43.3839L21.2906 41.7998L22.8209 44.2549C22.8665 44.2664 23.1074 44.2927 23.9295 43.8884C24.3869 43.6649 24.9241 43.3166 24.9665 42.9024C24.1751 41.8478 23.4968 40.7114 22.943 39.5122L22.8893 39.3972L23.4411 38.4227L24.2551 37.4022C24.6532 36.9432 25.0085 36.4481 25.3165 35.9232L25.336 35.8936C25.6388 35.5074 25.603 35.279 25.533 35.1377C25.1439 34.809 24.719 34.4968 24.2762 34.1878C23.8139 33.8559 23.5095 33.9265 23.3255 34.0383C22.8372 34.7318 22.2006 35.6816 21.4241 36.8599L21.2613 37.1048L21.0465 36.901C20.576 36.4474 20.143 35.9889 19.7572 35.537C19.4033 35.0637 19.0112 34.6207 18.5851 34.2125C18.3441 33.989 18.1162 33.9068 17.8997 33.9627C17.7016 34.0813 17.5137 34.2165 17.3381 34.367C17.1685 34.52 17.0297 34.7047 16.9295 34.9109C16.8654 35.0235 16.8381 35.1536 16.8512 35.2827C16.8644 35.4119 16.9174 35.5336 17.0027 35.6307L17.0158 35.6488C17.5296 36.4014 18.1028 37.1109 18.73 37.7703L18.743 37.7867C19.132 38.2995 19.4804 38.7908 19.78 39.246L19.8776 39.3939L17.6279 42.2944C16.433 43.5466 16.4248 44.0659 16.5404 44.2664C16.7537 44.4833 16.9506 44.6674 17.1232 44.8153C17.3045 44.9444 17.526 45.0028 17.7467 44.9796L17.8004 44.9878Z" fill="#201600"/>
<path d="M32.4178 39.2409C31.5508 39.1711 30.6796 39.175 29.8132 39.2524C29.8295 39.6797 29.8523 40.3063 29.8816 41.1324C29.9214 41.8985 29.8378 42.666 29.6341 43.4051C29.4377 44.0888 29.0188 44.4525 28.3774 44.4963C27.8378 44.5544 27.2924 44.4718 26.7934 44.2564C26.3767 44.0542 26.1976 43.8176 26.253 43.5448C26.2966 43.3017 26.3891 43.0701 26.5248 42.8645C26.6247 42.7148 26.7453 42.5803 26.883 42.4651C26.9953 42.3764 27.1451 42.4076 27.3355 42.5572C27.4916 42.6936 27.6878 42.7745 27.8939 42.7872C28.0762 42.7872 28.2081 42.6344 28.2862 42.3156C28.3741 41.9084 28.4031 41.4905 28.3725 41.0749C28.3475 40.5687 28.2889 39.8166 28.1967 38.8186C28.1044 37.8205 28.1245 37.2289 28.2569 37.0438C28.3904 36.8581 29.0432 36.7496 30.2202 36.7151C31.3971 36.6806 32.1639 36.6724 32.5269 36.6888C32.8899 36.7053 33.2269 36.7348 33.5378 36.7759C33.8488 36.817 34.0539 37.0438 34.1532 37.453C34.2732 38.0422 34.3316 38.6426 34.3274 39.2442C34.3437 40.0297 34.3854 40.7687 34.4527 41.4611C34.52 42.1535 34.5531 42.7861 34.552 43.3591C34.552 43.9288 34.4158 44.2493 34.1434 44.3205C33.8944 44.3872 33.6376 44.4198 33.3799 44.4174C33.2802 44.4242 33.1806 44.4035 33.0917 44.3575C33.0028 44.3114 32.928 44.2418 32.8753 44.1561C32.776 43.9918 32.6799 43.4692 32.5871 42.5999C32.4944 41.7306 32.4423 40.6115 32.4178 39.2409Z" fill="#E73125"/>
<path d="M28.0566 44.7481C27.5856 44.7616 27.1177 44.6678 26.6875 44.4737C26.0363 44.1549 25.9582 43.7638 26.0135 43.4877C26.0638 43.2112 26.1702 42.9483 26.3261 42.7153C26.4388 42.5447 26.5759 42.3918 26.7331 42.2618C26.8519 42.1681 27.1075 42.058 27.4852 42.3554C27.6003 42.4582 27.7454 42.5205 27.8987 42.5329C27.9377 42.5329 28.0012 42.4442 28.0501 42.247C28.1293 41.8647 28.1545 41.473 28.1249 41.0835C28.1005 40.5905 28.0419 39.8264 27.9508 38.8387C27.8205 37.437 27.9312 37.0688 28.0566 36.8947C28.1819 36.7205 28.5547 36.5134 30.2087 36.4657C31.4019 36.4329 32.1621 36.423 32.5349 36.4394C32.9077 36.4559 33.2512 36.4871 33.567 36.5298C33.8535 36.5676 34.2296 36.75 34.381 37.3909C34.5051 37.998 34.5657 38.6166 34.5617 39.2364C34.578 40.0088 34.6187 40.7483 34.6854 41.4352C34.7508 42.0734 34.7845 42.7146 34.7863 43.3562C34.7863 44.0514 34.5845 44.4556 34.1938 44.5559C33.9237 44.6292 33.6448 44.6646 33.3652 44.661C33.2234 44.6682 33.0823 44.6363 32.957 44.5689C32.8318 44.5015 32.7269 44.401 32.6538 44.2781C32.5724 44.1401 32.4633 43.8262 32.3282 42.6233C32.2403 41.8016 32.1849 40.7401 32.1654 39.4714C31.464 39.4241 30.7603 39.4241 30.0589 39.4714C30.0752 39.8822 30.0953 40.43 30.1191 41.1147C30.1569 41.9055 30.0684 42.6973 29.857 43.4598C29.6324 44.2404 29.1212 44.6775 28.3821 44.7268C28.278 44.7449 28.1656 44.7481 28.0566 44.7481ZM27.0228 42.6578C26.9093 42.7595 26.8092 42.8755 26.7249 43.0029C26.6085 43.1804 26.5293 43.3801 26.4921 43.5896C26.4628 43.7358 26.5996 43.8837 26.8991 44.03C27.3612 44.2272 27.8657 44.3013 28.3642 44.2453C28.9031 44.2091 29.2335 43.9166 29.4028 43.3316C29.5984 42.6196 29.6792 41.8805 29.6421 41.1427C29.6128 40.321 29.5901 39.6883 29.5738 39.2627V39.0326L29.8001 39.008C30.6783 38.9302 31.5615 38.9258 32.4405 38.9948L32.6668 39.0096V39.238C32.6847 40.5938 32.7401 41.7162 32.8296 42.574C32.9501 43.703 33.0477 43.9692 33.0852 44.0316C33.1226 44.0941 33.1894 44.168 33.3847 44.1713C33.6205 44.1733 33.8554 44.1428 34.0831 44.0809C34.2247 44.0448 34.3061 43.7819 34.3077 43.3579C34.3077 42.7991 34.2752 42.1681 34.2084 41.4861C34.1417 40.8041 34.0994 40.0351 34.0831 39.2495C34.0876 38.6665 34.033 38.0844 33.9203 37.5125C33.821 37.1083 33.637 37.0393 33.5084 37.0195C33.2073 36.9785 32.8752 36.9505 32.5203 36.9341C32.1654 36.9177 31.3938 36.9341 30.2298 36.9604C28.7305 37.0048 28.4863 37.1625 28.4521 37.1937C28.418 37.225 28.3203 37.4632 28.4521 38.7943C28.5433 39.7803 28.6035 40.5527 28.628 41.0605C28.6602 41.5008 28.63 41.9435 28.5384 42.3752C28.4033 42.9175 28.1266 43.0325 27.9149 43.0325H27.884C27.6262 43.0173 27.3804 42.9174 27.184 42.7482C27.0701 42.6595 27.0228 42.6578 27.0228 42.6578Z" fill="#201600"/>
<path d="M42.0348 44.7462C41.6007 45.0595 41.1948 44.887 40.8171 44.2286C40.2984 44.601 39.848 44.7851 39.466 44.7807C39.0038 44.7625 38.5459 44.6846 38.1034 44.549C37.4955 44.3528 36.936 44.0278 36.4625 43.5959C35.9448 43.0109 35.6984 42.1267 35.7234 40.9435C35.7753 39.8761 36.2024 38.8623 36.9281 38.0841C37.2594 37.7083 37.6652 37.4067 38.1192 37.1989C38.5731 36.9912 39.0652 36.8818 39.5636 36.8779C40.0117 36.8851 40.4541 36.9806 40.866 37.1589C41.1561 37.2742 41.4114 37.464 41.6067 37.7095C41.754 37.8967 41.851 38.1191 41.8883 38.3553C41.9143 38.5656 41.955 38.8549 42.0104 39.223C42.069 39.6971 42.0827 40.1759 42.0511 40.6527C42.016 41.1154 42.0384 41.5808 42.1178 42.038C42.1894 42.3667 42.266 42.6953 42.3441 42.9911C42.43 43.3051 42.5623 43.6043 42.7364 43.8785C42.7388 44.0482 42.6811 44.2131 42.5736 44.3436C42.4088 44.4969 42.2281 44.6318 42.0348 44.7462ZM39.1241 38.5985C38.4729 38.8899 38.0562 39.1928 37.8739 39.5073C37.6915 39.8217 37.5629 40.3399 37.4881 41.0619C37.4175 41.7816 37.6139 42.285 38.0774 42.5721C38.5408 42.8591 39.2006 42.8761 40.0569 42.623C40.2655 42.4142 40.3995 42.1414 40.4378 41.8474C40.5571 41.2514 40.6306 40.6471 40.6576 40.0397C40.6629 39.7873 40.6416 39.535 40.5941 39.2871C40.5233 39.0831 40.3862 38.9093 40.205 38.7941C39.9885 38.6215 39.6271 38.5591 39.1241 38.5985Z" fill="#E73125"/>
<path d="M41.6249 45.1459C41.5701 45.1454 41.5155 45.1388 41.4621 45.1262C41.1645 45.0411 40.9105 44.8441 40.7524 44.5757C40.2738 44.8847 39.8538 45.0342 39.4712 45.0276C38.987 45.0094 38.5072 44.9282 38.0435 44.7861C37.402 44.5804 36.8114 44.2386 36.3114 43.7836L36.2887 43.7606C35.7303 43.1296 35.46 42.1814 35.4861 40.939C35.5411 39.8111 35.9911 38.7395 36.7559 37.9153C37.1099 37.5158 37.5428 37.1952 38.0266 36.9742C38.5104 36.7532 39.0346 36.6366 39.5656 36.6318C40.0475 36.6395 40.5235 36.7411 40.9673 36.9309C41.2994 37.0627 41.5913 37.2803 41.8138 37.562C41.9857 37.7835 42.0978 38.0462 42.1393 38.3245C42.1638 38.5332 42.2045 38.8175 42.2598 39.1872C42.3206 39.6777 42.3353 40.1729 42.3038 40.6662C42.2702 41.1053 42.291 41.547 42.3656 41.9809C42.4356 42.3096 42.5105 42.6284 42.5886 42.9225C42.6678 43.2134 42.7902 43.4904 42.9517 43.7442L42.994 43.8116V43.8921C42.9908 44.1207 42.9065 44.3405 42.7563 44.5116C42.5801 44.6776 42.387 44.8241 42.18 44.9487C42.0203 45.0721 41.826 45.1411 41.6249 45.1459ZM40.894 43.8707L41.0291 44.1057C41.2098 44.4212 41.3938 44.6086 41.5598 44.6447C41.6192 44.6534 41.6797 44.6491 41.7373 44.6321C41.7949 44.6151 41.8482 44.5858 41.8935 44.5461H41.9049C42.08 44.4409 42.2436 44.3175 42.3933 44.178C42.4467 44.1107 42.479 44.0289 42.4861 43.943C42.3198 43.6682 42.1927 43.3711 42.1084 43.0606C42.0286 42.7582 41.9456 42.4344 41.8789 42.0959C41.7952 41.6182 41.7711 41.1319 41.8073 40.6481C41.8386 40.1878 41.8255 39.7255 41.7682 39.2677C41.7128 38.898 41.6721 38.6104 41.6461 38.3918C41.6144 38.198 41.5337 38.0158 41.4117 37.8627C41.2382 37.6518 41.014 37.4895 40.7605 37.3911C40.3793 37.2269 39.9702 37.1387 39.5559 37.1314C39.0901 37.1339 38.6301 37.2356 38.206 37.4299C37.7818 37.6241 37.4031 37.9066 37.0945 38.2587C36.409 38.9968 36.0052 39.9565 35.9549 40.967C35.9321 42.0614 36.1568 42.8913 36.6224 43.432C37.0656 43.836 37.5889 44.1402 38.1575 44.3243C38.5801 44.4556 39.0179 44.5307 39.4598 44.5478H39.4712C39.7968 44.5478 40.1973 44.3834 40.6661 44.0416L40.894 43.8707ZM38.9877 43.0491C38.6261 43.0605 38.2686 42.9694 37.9556 42.7861C37.407 42.4476 37.1693 41.8609 37.2491 41.0409C37.324 40.2768 37.4591 39.7361 37.6642 39.3861C37.8693 39.036 38.3154 38.6909 39.0268 38.3771L39.0642 38.3606H39.1049C39.6747 38.3146 40.0817 38.3918 40.3568 38.5989C40.5843 38.7454 40.7541 38.9674 40.837 39.2267C40.8877 39.4936 40.9111 39.7651 40.907 40.0368C40.881 40.6619 40.8059 41.284 40.6824 41.8971C40.6373 42.2425 40.4785 42.5626 40.2314 42.8058L40.1875 42.8486L40.1305 42.8666C39.7597 42.98 39.3751 43.0403 38.9877 43.0458V43.0491ZM39.1847 38.8454C38.4684 39.1741 38.19 39.4534 38.0842 39.6358C37.9214 39.9185 37.8026 40.4082 37.7359 41.0902C37.6756 41.713 37.8303 42.1304 38.2112 42.3654C38.5921 42.6004 39.1798 42.6201 39.9319 42.4082C40.0802 42.2426 40.174 42.0348 40.2005 41.8133C40.3183 41.2271 40.3912 40.6326 40.4186 40.0352C40.4244 39.801 40.4053 39.5669 40.3617 39.3368C40.3486 39.2792 40.2917 39.1593 40.0638 38.9867C39.9498 38.8996 39.7024 38.8043 39.1847 38.8421V38.8454Z" fill="#201600"/>
<path d="M52.0616 43.7834C51.6915 43.5884 51.4115 43.1688 51.2216 42.5246C51.0317 41.8804 50.8081 41.2346 50.5509 40.5871C50.4776 40.7268 50.3197 41.0686 50.0772 41.6093C49.9023 42.015 49.7072 42.4115 49.4927 42.7974C49.3589 43.0328 49.1664 43.2288 48.9344 43.366C48.7005 43.498 48.4372 43.5676 48.1693 43.5681C48.049 43.5797 47.9279 43.5598 47.8175 43.5103C47.7071 43.4608 47.6113 43.3833 47.5393 43.2855C47.3174 42.9016 47.1378 42.4943 47.0037 42.071C46.8179 41.532 46.5819 41.0121 46.2988 40.5181C45.831 42.122 45.531 43.1299 45.3986 43.5418C45.2651 43.9527 44.959 44.1548 44.4772 44.1449C43.8081 44.1449 43.5134 43.9149 43.59 43.4728C43.6665 43.0308 43.8862 42.1762 44.2411 40.9076C44.596 39.6389 44.85 38.7219 44.9802 38.1501C45.1104 37.5782 45.2472 37.1887 45.3872 36.98C45.4744 36.8661 45.5844 36.7721 45.7101 36.7042C45.8358 36.6362 45.9742 36.5958 46.1165 36.5856C46.4353 36.5301 46.7633 36.5882 47.0444 36.7499C47.3211 36.9088 47.7612 37.8603 48.3646 39.6044C48.7251 38.7699 49.1272 37.9543 49.5693 37.1608C49.7863 36.8135 50.1705 36.6108 50.7218 36.5527C51.1679 36.5527 51.4902 36.7664 51.6986 37.2101C51.9458 37.7948 52.144 38.3995 52.2911 39.0177C52.4832 39.7737 52.7165 40.6589 52.9911 41.6734C53.2646 42.6906 53.2727 43.2904 53.0172 43.481C52.735 43.6743 52.4026 43.7795 52.0616 43.7834Z" fill="#E73125"/>
<path d="M44.51 44.391H44.4725C43.9939 44.391 43.6716 44.276 43.4958 44.0623C43.4273 43.9756 43.3791 43.8744 43.3549 43.7663C43.3306 43.6581 43.3309 43.5459 43.3558 43.4378C43.4356 42.9826 43.6537 42.1363 44.02 40.848C44.3798 39.5892 44.6272 38.6656 44.7558 38.1019C44.8942 37.4956 45.0391 37.0847 45.2002 36.8481C45.3059 36.7076 45.4396 36.5912 45.5928 36.5062C45.7459 36.4213 45.915 36.3698 46.0891 36.3551C46.4618 36.2888 46.8457 36.3556 47.1749 36.5441C47.3979 36.6722 47.7202 37.0732 48.4039 38.9614C48.694 38.2994 49.0173 37.6527 49.3726 37.0239C49.6298 36.6131 50.0791 36.3666 50.7042 36.3041H50.727C50.9846 36.2974 51.2379 36.3713 51.4521 36.5158C51.6664 36.6603 51.8311 36.8682 51.9235 37.111C52.1755 37.7077 52.378 38.3244 52.5291 38.9548C52.7212 39.7042 52.9556 40.5982 53.2274 41.6072C53.5416 42.7756 53.5221 43.4148 53.1623 43.6745C52.8449 43.8975 52.4696 44.0215 52.083 44.0311H52.0146L51.956 43.9999C51.5295 43.7731 51.2056 43.2998 50.9956 42.5932C50.8605 42.1347 50.7058 41.6713 50.5349 41.2062C50.4698 41.3475 50.3932 41.5152 50.307 41.7091C50.1289 42.123 49.9294 42.5273 49.7095 42.9202C49.5537 43.1934 49.329 43.4202 49.0584 43.5775C48.7891 43.7311 48.4853 43.812 48.176 43.8125C48.0159 43.8245 47.8555 43.7951 47.7097 43.7273C47.5639 43.6595 47.4376 43.5553 47.3425 43.4247C47.1077 43.0234 46.9182 42.5968 46.7777 42.1528C46.6584 41.8172 46.522 41.4881 46.3691 41.1668C45.993 42.4518 45.7521 43.2571 45.6349 43.6219C45.5177 43.9867 45.2279 44.391 44.51 44.391ZM46.3723 36.8119C46.3004 36.8118 46.2285 36.8173 46.1574 36.8284C46.0492 36.8352 45.9435 36.8644 45.8469 36.9142C45.7503 36.9639 45.6648 37.0332 45.5958 37.1176C45.5112 37.2441 45.3777 37.535 45.2246 38.2055C45.0944 38.7774 44.8437 39.7091 44.4839 40.9761C44.1242 42.2431 43.906 43.0845 43.8328 43.5151C43.8067 43.6663 43.8507 43.7221 43.8653 43.7402C43.9126 43.7977 44.0558 43.8931 44.4807 43.9046C44.86 43.9144 45.07 43.778 45.1693 43.4707C45.2995 43.0665 45.6023 42.0509 46.0679 40.4552L46.2307 39.9129L46.5172 40.4059C46.8078 40.9136 47.0504 41.4479 47.2416 42.0016C47.5086 42.7411 47.6632 43.0385 47.7479 43.1519C47.7964 43.2172 47.8615 43.2682 47.9362 43.2994C48.011 43.3307 48.0927 43.341 48.1728 43.3294C48.4002 43.3321 48.6245 43.2755 48.8239 43.1651C49.0202 43.0494 49.1825 42.8832 49.2944 42.6836C49.436 42.442 49.6281 42.0509 49.8658 41.5201C50.1035 40.9893 50.2712 40.6278 50.346 40.4848L50.5919 40.0115L50.7888 40.5045C51.046 41.1618 51.2772 41.8192 51.466 42.4617C51.6288 43.0024 51.8502 43.3655 52.1302 43.543C52.3987 43.5275 52.6578 43.4377 52.8791 43.2834C52.9051 43.2653 53.1151 43.0665 52.7602 41.7452C52.4867 40.7329 52.2523 39.8373 52.0586 39.0863C51.915 38.4833 51.7217 37.8935 51.4807 37.323C51.3179 36.968 51.09 36.8037 50.7481 36.8054C50.2777 36.8579 49.9635 37.019 49.7877 37.2984C49.5777 37.627 49.1788 38.4487 48.6026 39.7108L48.3502 40.2662L48.15 39.6894C47.336 37.3444 47.0105 37.0141 46.9388 36.968C46.7673 36.8657 46.5716 36.8118 46.3723 36.8119Z" fill="#201600"/>
<path d="M60.307 44.0117C58.1646 44.2648 56.6018 43.8917 55.6186 42.8926C54.6353 41.8934 54.1155 40.6089 54.0591 39.039C53.984 37.5449 54.3671 36.0638 55.1563 34.7975C55.9442 33.5398 56.9784 32.8036 58.2591 32.5889C59.5397 32.3742 60.6325 32.3879 61.5377 32.63C62.4754 32.8971 63.2963 33.4762 63.8672 34.2733C64.5184 35.1256 64.8586 36.2721 64.8879 37.7128C64.9301 39.0895 64.709 40.4615 64.2367 41.7538C63.769 43.0071 62.4591 43.7597 60.307 44.0117ZM58.6009 35.6044C57.5222 35.7939 56.9491 36.6052 56.8818 38.0382C56.8146 39.4712 57.1461 40.358 57.8765 40.6987C58.525 41.0222 59.2385 41.1908 59.9618 41.1917C60.5621 41.2007 61.1453 40.9893 61.6028 40.5969C62.0369 40.2145 62.3342 39.5024 62.4949 38.4605C62.6555 37.4186 62.3169 36.6353 61.479 36.1106C60.6391 35.5836 59.6797 35.4149 58.6009 35.6044Z" fill="#E73125"/>
<path d="M59.0907 44.3331C57.4986 44.3331 56.2744 43.9092 55.4442 43.0661C54.4202 42.0259 53.8732 40.6734 53.8163 39.0465C53.7427 37.5028 54.1405 35.9735 54.9558 34.6654C55.7779 33.3507 56.8783 32.5718 58.2246 32.345C59.5351 32.1248 60.6665 32.1396 61.6058 32.391C62.5955 32.6723 63.4626 33.2819 64.0672 34.1215C64.746 35.0122 65.1058 36.2167 65.1384 37.7056C65.1785 39.114 64.9503 40.5171 64.466 41.8386C63.9646 43.1795 62.5777 43.993 60.3425 44.2559C59.9271 44.3067 59.5091 44.3325 59.0907 44.3331ZM59.9388 32.6835C59.3893 32.6874 58.841 32.7368 58.2995 32.8314C57.0949 33.0336 56.1067 33.7386 55.3693 34.9283C54.6063 36.1554 54.2363 37.5898 54.3095 39.0367C54.3632 40.537 54.863 41.7778 55.7974 42.7276C56.7318 43.6774 58.2311 44.0176 60.2856 43.7744C62.3253 43.5345 63.5772 42.8278 64.0086 41.6726C64.4707 40.4115 64.6884 39.0726 64.65 37.7286C64.6191 36.3482 64.2935 35.2406 63.6732 34.4419C63.1344 33.6885 62.3595 33.1408 61.4739 32.8873C60.9732 32.7522 60.4571 32.6837 59.9388 32.6835ZM59.8851 41.4327C59.151 41.4187 58.4288 41.2431 57.7688 40.9183C56.9435 40.5338 56.5609 39.5593 56.6293 38.0227C56.6977 36.4862 57.3488 35.5692 58.5502 35.3573C59.5968 35.1427 60.685 35.3327 61.5993 35.8897C62.5272 36.4681 62.9016 37.3424 62.7274 38.4878C62.5549 39.6003 62.2391 40.3497 61.7507 40.7753C61.2515 41.2047 60.6158 41.4381 59.96 41.4327H59.8851ZM59.4293 35.7714C59.1683 35.7735 58.908 35.7983 58.6511 35.8453C57.6907 36.0097 57.1958 36.7344 57.1339 38.0474C57.0721 39.3604 57.3586 40.1837 57.987 40.4729C58.5994 40.7757 59.2716 40.9352 59.9535 40.9397C60.4965 40.9513 61.0248 40.7613 61.4381 40.4056C61.8239 40.0638 62.0974 39.3933 62.2521 38.4139C62.3986 37.4689 62.1039 36.782 61.3486 36.312C60.7718 35.9538 60.1064 35.7675 59.4293 35.7747V35.7714Z" fill="#201600"/>
<path d="M70.8096 39.8918C71.05 40.1228 71.2586 40.3853 71.4298 40.6723C71.6599 41.0306 71.7657 41.5548 71.7472 42.245C71.7288 42.9352 71.2122 43.4523 70.1975 43.7963C69.306 44.1222 68.359 44.2652 67.4121 44.217C66.5705 44.1529 66.1391 44.0034 66.1098 43.77C66.0805 43.5367 66.0512 42.5079 66.004 40.6855C65.9568 38.863 65.9437 37.7554 65.9649 37.361C65.9861 36.9666 66.043 36.7267 66.1423 36.6396C66.3341 36.5137 66.5498 36.4297 66.7756 36.3931C67.2487 36.3033 67.7303 36.2669 68.2114 36.2846C68.9108 36.3095 69.5915 36.5186 70.1861 36.891C70.8698 37.2909 71.2203 37.8206 71.2377 38.4801C71.2551 39.1397 71.1124 39.6102 70.8096 39.8918ZM68.9635 42.5211C69.9826 42.2341 70.3825 41.8654 70.1633 41.4151C69.9441 40.9649 69.6434 40.7069 69.2614 40.6411C68.9045 40.5776 68.5429 40.5446 68.1805 40.5425C67.8419 40.5425 67.6498 40.6066 67.6026 40.7381C67.5261 41.1345 67.4863 41.5372 67.4837 41.941C67.4501 42.6104 67.9434 42.8032 68.9635 42.5195V42.5211ZM69.4128 38.3257C69.3978 38.2076 69.3547 38.095 69.2872 37.9975C69.2198 37.8999 69.1299 37.8202 69.0254 37.7653C68.7687 37.6304 68.4808 37.568 68.1919 37.5845C67.8565 37.5845 67.6644 37.6272 67.6156 37.6963C67.5547 37.8086 67.5297 37.9372 67.544 38.0644C67.544 38.2419 67.5586 38.4243 67.5765 38.6132C67.5758 38.6864 67.5921 38.7586 67.6241 38.8243C67.656 38.8899 67.7027 38.9471 67.7605 38.9912C67.9456 39.0691 68.147 39.099 68.3465 39.0783C68.6168 39.0783 68.8829 39.0112 69.1214 38.8828C69.2255 38.8367 69.3111 38.7564 69.364 38.6549C69.4169 38.5534 69.4342 38.4367 69.4128 38.324V38.3257Z" fill="#E73125"/>
<path d="M67.8094 44.4782C67.6694 44.4782 67.5294 44.4782 67.3926 44.4618C66.367 44.3829 65.9112 44.184 65.8722 43.7946C65.8477 43.553 65.8119 42.5374 65.7647 40.6919C65.7175 38.8465 65.7045 37.7537 65.7256 37.3494C65.7501 36.8679 65.8298 36.5918 65.9877 36.4538C66.2081 36.299 66.4601 36.1962 66.7252 36.1531C67.2168 36.0573 67.7177 36.0187 68.218 36.038C68.9595 36.0636 69.6817 36.2839 70.3131 36.6773C71.0717 37.121 71.4673 37.7257 71.4868 38.4734C71.5031 39.0782 71.3891 39.5498 71.1466 39.8801C71.3269 40.0854 71.4902 40.3053 71.6349 40.5375C71.8922 40.9417 72.0094 41.5021 71.9898 42.2498C71.9703 43.0518 71.3924 43.6499 70.274 44.0296C69.4815 44.311 68.6494 44.4625 67.8094 44.4782ZM66.3556 43.7338C66.3833 43.7633 66.5591 43.9063 67.4301 43.972C68.3441 44.0188 69.2582 43.882 70.1194 43.5694C71.0359 43.2605 71.4901 42.8266 71.5031 42.2548C71.5194 41.6171 71.4266 41.1356 71.2247 40.8218C71.0657 40.5537 70.8719 40.3083 70.6484 40.0921L70.4417 39.9097L70.6452 39.724C70.8959 39.4956 71.0147 39.0848 70.9984 38.503C70.9822 37.9213 70.6729 37.4759 70.0673 37.1193C69.5099 36.7684 68.8712 36.5706 68.2147 36.5458C67.7533 36.5278 67.2914 36.562 66.8375 36.6477C66.6485 36.6719 66.4663 36.7345 66.3019 36.8318C66.3019 36.8318 66.2303 36.9254 66.2059 37.3806C66.1863 37.7668 66.2059 38.8793 66.2466 40.6854C66.3019 42.4552 66.3329 43.4807 66.3556 43.7338ZM68.1952 42.894C67.9565 42.9083 67.7205 42.8379 67.5277 42.6952C67.4207 42.6012 67.3384 42.4819 67.2881 42.348C67.2378 42.2141 67.2212 42.0697 67.2396 41.9277C67.2852 41.0042 67.3356 40.761 67.3731 40.6541C67.5017 40.2943 68.0145 40.2943 68.187 40.2959C68.5625 40.2983 68.9372 40.3323 69.307 40.3978C69.7694 40.4767 70.1324 40.7823 70.388 41.3066C70.4378 41.4008 70.4659 41.5051 70.4701 41.6119C70.4743 41.7186 70.4546 41.8249 70.4124 41.9228C70.2496 42.2712 69.8198 42.5374 69.0336 42.7593C68.7611 42.8405 68.4792 42.8852 68.1952 42.8924V42.894ZM67.8273 40.8382C67.7649 41.2063 67.7317 41.5789 67.728 41.9524C67.7149 42.2153 67.8045 42.281 67.8338 42.3106C67.9249 42.3862 68.187 42.475 68.8984 42.2843C69.7368 42.0477 69.9208 41.8111 69.9615 41.7207C69.9746 41.6889 69.9799 41.6544 69.9771 41.6201C69.9743 41.5858 69.9633 41.5526 69.9452 41.5235C69.7612 41.1455 69.5235 40.9368 69.2208 40.8842C68.8772 40.8234 68.5293 40.7915 68.1805 40.7889C68.0607 40.7771 67.9398 40.7934 67.8273 40.8366V40.8382ZM68.2847 39.3263C68.0605 39.3438 67.8358 39.3007 67.6336 39.2014C67.543 39.1385 67.4686 39.0547 67.4165 38.957C67.3644 38.8593 67.3361 38.7504 67.334 38.6394C67.3145 38.4472 67.3031 38.2549 67.2998 38.0708C67.2822 37.8888 67.3239 37.7058 67.4187 37.5499C67.5245 37.4069 67.7442 37.3478 68.187 37.3395C68.5197 37.3242 68.8505 37.3979 69.1459 37.5532C69.2827 37.6266 69.4002 37.7317 69.4888 37.86C69.5774 37.9883 69.6345 38.1361 69.6554 38.291C69.6819 38.4537 69.6549 38.6207 69.5785 38.7665C69.502 38.9122 69.3804 39.0286 69.2322 39.0979C68.959 39.2449 68.6544 39.3222 68.3449 39.323L68.2847 39.3263ZM67.7963 37.8671C67.784 37.9303 67.7791 37.9949 67.7817 38.0593C67.7817 38.2319 67.7963 38.4094 67.8143 38.5885C67.8256 38.7068 67.8566 38.766 67.881 38.7807C68.0266 38.8348 68.183 38.8522 68.3368 38.8317C68.5676 38.8319 68.795 38.7755 68.9994 38.6674C69.0586 38.6444 69.1076 38.6008 69.1375 38.5443C69.1674 38.4879 69.1761 38.4225 69.1622 38.3601C69.153 38.2809 69.125 38.2052 69.0804 38.1393C69.0359 38.0735 68.9763 38.0195 68.9066 37.9821C68.6867 37.8697 68.4412 37.8181 68.1952 37.8325C68.0636 37.828 67.9319 37.839 67.8029 37.8654L67.7963 37.8671Z" fill="#201600"/>
<path d="M79.8014 37.9687C80.3983 39.3195 80.3869 40.6007 79.7672 41.8124C79.1475 43.0241 78.1973 43.6612 76.9167 43.7236C75.6372 43.7861 74.6366 43.5472 73.9149 43.0071C73.1931 42.467 72.8035 41.6881 72.746 40.6703C72.6947 39.6192 72.8993 38.5715 73.3418 37.6186C73.7955 36.6009 74.8363 36.0668 76.4642 36.0164C78.0921 35.966 79.2045 36.6168 79.8014 37.9687ZM78.5723 39.5611C78.5532 39.3232 78.4831 39.0923 78.3667 38.8846C78.2503 38.6769 78.0905 38.4972 77.8983 38.3581C77.4957 38.0558 76.9531 37.9506 76.2704 38.0426C75.5878 38.1346 75.1314 38.4047 74.9014 38.8528C74.6726 39.3132 74.5912 39.8341 74.6686 40.3433C74.7402 40.8911 74.9611 41.2844 75.3311 41.5232C75.7373 41.7704 76.2091 41.8851 76.6823 41.8519C77.2141 41.8343 77.6753 41.5719 78.066 41.0647C78.4567 40.5575 78.6255 40.0562 78.5723 39.5611Z" fill="#E73125"/>
<path d="M76.532 43.9804C75.3925 43.9804 74.4564 43.7207 73.7646 43.2064C72.9848 42.6214 72.5599 41.7734 72.4981 40.6839C72.4456 39.5934 72.6574 38.5064 73.1151 37.5172C73.6034 36.4112 74.7332 35.8229 76.4539 35.7703C78.1746 35.7177 79.3841 36.4276 80.0206 37.8688C80.6474 39.2854 80.6343 40.651 79.9799 41.9262C79.3255 43.2015 78.2918 43.8982 76.9243 43.9705C76.7887 43.9771 76.6579 43.9804 76.532 43.9804ZM76.6411 36.2567H76.4783C74.9383 36.3044 73.9876 36.7809 73.5709 37.7127C73.1459 38.6299 72.9486 39.6379 72.9962 40.6494C73.0483 41.5992 73.3983 42.3042 74.0657 42.8038C74.7332 43.3033 75.6937 43.5318 76.9113 43.471C78.129 43.4102 78.9723 42.8317 79.5567 41.6945C80.1411 40.5573 80.1557 39.3544 79.5843 38.0627C79.0406 36.8533 78.0785 36.26 76.6411 36.26V36.2567ZM76.5662 42.0988C76.0828 42.1115 75.6061 41.9825 75.1939 41.7274C74.7625 41.4497 74.502 40.9928 74.4223 40.3733C74.3385 39.8147 74.4278 39.2436 74.6778 38.7382C74.9416 38.2156 75.4657 37.9001 76.2325 37.7949C76.9992 37.6897 77.5902 37.8162 78.0427 38.1581C78.2624 38.3173 78.4452 38.5228 78.5787 38.7602C78.7122 38.9977 78.7932 39.2615 78.816 39.5335C78.8697 40.0939 78.6809 40.6609 78.2527 41.2163C77.8246 41.7718 77.2906 42.0758 76.685 42.0971L76.5662 42.0988ZM76.7209 38.2583C76.5793 38.2589 76.4379 38.2687 76.2976 38.2879C75.6904 38.3701 75.303 38.5919 75.1125 38.9649C74.9078 39.3813 74.8356 39.8514 74.9057 40.3108C74.9676 40.7874 75.1483 41.1161 75.4576 41.3149C75.8219 41.5359 76.2449 41.638 76.6688 41.6074C77.1295 41.591 77.5202 41.3658 77.8669 40.9156C78.2137 40.4653 78.3716 40.0216 78.3292 39.5861C78.3133 39.3822 78.2533 39.1842 78.1535 39.0062C78.0536 38.8282 77.9164 38.6744 77.7513 38.5557C77.4492 38.3458 77.0873 38.2413 76.7209 38.2583Z" fill="#201600"/>
<path d="M82.7865 37.7204C82.4902 37.6185 82.2623 37.3654 82.1027 36.9644C81.9432 36.5635 82.1614 36.2463 82.7539 36.0179C83.0532 35.9061 83.3733 35.8629 83.6912 35.8913C84.009 35.9197 84.3167 36.0191 84.5918 36.1822C84.8942 36.3388 85.1535 36.5686 85.3464 36.851C85.5393 37.1335 85.6598 37.4599 85.6972 37.8009C85.8111 38.5491 85.631 39.1314 85.1567 39.5477C85.373 39.7644 85.5376 40.0279 85.638 40.3184C85.7384 40.6088 85.772 40.9185 85.7362 41.2239C85.6872 41.8137 85.4689 42.3763 85.1079 42.8426C84.7584 43.2874 84.2038 43.5279 83.4441 43.5641C82.6845 43.6002 82.1033 43.4698 81.7007 43.1729C81.2969 42.8749 81.1265 42.5627 81.1895 42.2362C81.2233 41.9646 81.3521 41.714 81.5525 41.5296C81.7294 41.385 81.96 41.408 82.2444 41.5986C82.4941 41.7738 82.774 41.9003 83.0697 41.9717C83.1895 42.0031 83.3153 42.0026 83.4348 41.9704C83.5543 41.9381 83.6636 41.8752 83.7518 41.7876C83.9385 41.6068 83.9564 41.3516 83.8055 41.0218C83.6547 40.6921 83.4517 40.4987 83.1967 40.4417C82.9449 40.3858 82.8527 40.1366 82.92 39.694C82.9872 39.2514 83.1099 38.9978 83.2879 38.9331C83.4722 38.861 83.645 38.7619 83.8007 38.639C83.9624 38.5174 83.97 38.307 83.8234 38.0079C83.6769 37.7089 83.3313 37.613 82.7865 37.7204Z" fill="#E73125"/>
<path d="M83.2163 43.8092C82.5195 43.8092 81.9644 43.6597 81.5623 43.3655C81.0739 43.0089 80.8737 42.6112 80.9567 42.1823C81.0019 41.8538 81.1611 41.5521 81.406 41.3311C81.59 41.1799 81.9107 41.0665 82.3828 41.3869C82.6078 41.5421 82.8596 41.6536 83.1251 41.7156C83.2056 41.7387 83.2909 41.7396 83.3719 41.7182C83.4529 41.6968 83.5268 41.6539 83.5858 41.594C83.633 41.5496 83.7486 41.4461 83.5858 41.1109C83.4653 40.8512 83.3221 40.7066 83.1463 40.6671C82.9216 40.6178 82.5618 40.4174 82.6807 39.6417C82.7344 39.2966 82.8435 38.82 83.2049 38.6869C83.3643 38.6267 83.514 38.5431 83.6493 38.4388C83.7209 38.3846 83.6379 38.1939 83.6004 38.1101C83.5093 37.9244 83.2488 37.8718 82.8272 37.9458L82.7637 37.9573L82.7018 37.9359C82.3388 37.8094 82.0588 37.507 81.8716 37.0387C81.8273 36.9391 81.8037 36.8315 81.8023 36.7224C81.8009 36.6132 81.8217 36.505 81.8635 36.4043C81.979 36.1398 82.2428 35.9327 82.6774 35.77C83.0079 35.6441 83.3618 35.5935 83.7139 35.6219C84.066 35.6504 84.4075 35.757 84.7139 35.9344C85.0513 36.1097 85.3404 36.3664 85.5557 36.6818C85.771 36.9972 85.9057 37.3614 85.9479 37.742C86.0586 38.4766 85.9072 39.0797 85.4986 39.5382C85.689 39.7717 85.8305 40.0419 85.9144 40.3323C85.9984 40.6227 86.023 40.9272 85.987 41.2275C85.9316 41.8636 85.696 42.47 85.3081 42.9744C84.9125 43.4674 84.2923 43.7484 83.4637 43.7862C83.3774 43.8076 83.296 43.8092 83.2163 43.8092ZM81.8195 41.6729C81.7804 41.672 81.7422 41.6854 81.7121 41.7107C81.5581 41.8607 81.4603 42.0598 81.4353 42.2743C81.419 42.3581 81.3702 42.603 81.8504 42.9629C82.2053 43.2242 82.7393 43.3409 83.4393 43.308C84.1393 43.2751 84.6163 43.0697 84.9239 42.6802C85.2545 42.2493 85.4546 41.7312 85.5002 41.1881C85.532 40.9183 85.5022 40.6447 85.413 40.3883C85.3238 40.132 85.1777 39.8996 84.9858 39.7091L84.81 39.5234L85.0021 39.3591C85.4123 38.9975 85.5637 38.4996 85.4628 37.8357C85.4315 37.5326 85.3258 37.2423 85.1552 36.9909C84.9847 36.7395 84.7546 36.5351 84.486 36.3961C84.241 36.2502 83.9667 36.1617 83.6833 36.1369C83.3998 36.1122 83.1146 36.1519 82.8483 36.2532C82.4837 36.3912 82.36 36.5325 82.3176 36.6246C82.3019 36.665 82.2949 36.7083 82.2972 36.7517C82.2994 36.7951 82.3108 36.8374 82.3307 36.876C82.4092 37.1312 82.5848 37.3446 82.819 37.4692C83.5956 37.341 83.9163 37.6336 84.0497 37.908C84.3167 38.4569 84.1051 38.7297 83.9537 38.8447C83.7805 38.9772 83.5891 39.0835 83.3856 39.1602C83.34 39.1783 83.2374 39.3245 83.1756 39.7288C83.1446 39.9276 83.1349 40.1692 83.2635 40.1972C83.589 40.2711 83.8528 40.5127 84.0383 40.9137C84.289 41.4559 84.1197 41.7846 83.9325 41.9637C83.8154 42.0789 83.6711 42.1619 83.5132 42.2047C83.3553 42.2476 83.1892 42.2489 83.0307 42.2086C82.7052 42.1307 82.3971 41.9919 82.1223 41.7994C82.0356 41.7291 81.9303 41.6863 81.8195 41.6762V41.6729Z" fill="#201600"/>
</g>
<defs>
<clipPath id="clip0">
<rect width="70" height="52" fill="white" transform="translate(16 25)"/>
</clipPath>
</defs>
</svg>
