<svg width="114" height="84" viewBox="0 0 114 84" fill="none" xmlns="http://www.w3.org/2000/svg">
<g clip-path="url(#clip0)">
<path d="M41.9736 10.9634L59.1902 4.06137L68.4693 1.1413L74.0473 8.17603L78.5437 15.2585L89.1325 45.5981L89.5036 50.5171L58.4824 65.3538L50.0543 69.272L42.9519 57.8014L27.9807 33.2568L19.7939 21.9163L41.9736 10.9634Z" fill="#C9C8C8"/>
<path d="M21.5196 51.9586C21.5196 51.9586 21.5196 51.9586 21.501 51.9586L21.517 51.98L21.5436 51.9613L21.5196 51.9586Z" fill="black"/>
<path d="M90.2615 50.1933C90.2615 50.1641 90.2615 50.1376 90.2615 50.111C89.9752 49.7606 90.0388 49.3146 89.9301 48.9085C89.6359 47.8121 89.3708 46.7078 89.1348 45.5982C88.989 44.8814 88.7928 44.178 88.6046 43.4745C88.47 42.8421 88.3019 42.2174 88.1008 41.603C88.039 41.4601 88.0233 41.3014 88.0558 41.149C88.0097 41.1204 87.9706 41.0816 87.9417 41.0356C87.9128 40.9896 87.8947 40.9376 87.8888 40.8836C87.5282 39.4368 87.112 38.006 86.6613 36.5831C86.428 35.8398 86.2477 35.0779 86.0011 34.34C85.8686 33.9524 85.1474 32.3596 85.0281 31.9694C84.7655 32.0138 84.4989 32.0307 84.2328 32.0198C84.0939 32.0116 83.9557 31.9939 83.8192 31.9667C83.8192 31.9667 84.8267 34.6214 85.0334 35.2797C85.2164 35.8557 85.4073 36.4318 85.5637 37.0105C85.7201 37.5892 85.9216 38.1493 86.0807 38.7254C86.359 39.7341 86.7143 40.7217 86.9608 41.7384C87.1067 42.3463 87.3214 42.933 87.4354 43.5541C87.5092 43.9481 87.6156 44.3352 87.7535 44.7115C87.9012 45.1319 88.0069 45.5658 88.069 46.007C88.1258 46.2492 88.1975 46.4877 88.2838 46.7211C88.3845 47.0901 88.4959 47.475 88.5621 47.844C88.6443 48.3139 88.867 48.7519 88.8697 49.2377C88.8705 49.3305 88.8942 49.4216 88.9386 49.5031C88.9935 49.5914 89.026 49.6918 89.0332 49.7955C89.0404 49.8992 89.0222 50.0031 88.9801 50.0981C88.938 50.1932 88.8733 50.2765 88.7917 50.3407C88.71 50.405 88.6139 50.4482 88.5118 50.4668C87.7164 50.7189 86.9714 51.1224 86.1841 51.4091C85.6538 51.6056 85.1236 51.8312 84.6093 52.0648C84.0949 52.2984 83.562 52.5241 83.0371 52.7524L80.7253 53.7771C80.1712 54.0213 79.6012 54.2363 79.0604 54.5124C78.3896 54.8575 77.703 55.1734 77.0137 55.468C76.1255 55.853 75.2692 56.2989 74.3811 56.6812C73.4929 57.0635 72.5889 57.4457 71.7299 57.9076C70.5899 58.5235 69.4101 59.0491 68.2622 59.6491C67.2017 60.1986 66.1413 60.7348 65.1046 61.2896C64.1396 61.8046 63.1773 62.3249 62.2334 62.8824C61.6555 63.2222 61.059 63.5248 60.4916 63.8858C60.314 64 60.1152 64.0929 59.9349 64.215C59.6698 64.3849 59.4789 64.1805 59.3039 64.061C58.7472 63.6761 58.6623 62.9116 58.9778 62.2347C59.2933 61.5577 59.4736 60.8118 59.1183 60.0658C58.9859 59.8123 58.7637 59.6173 58.4953 59.519C58.3137 59.4249 58.1105 59.3803 57.9063 59.3896C57.702 59.3989 57.5038 59.4619 57.3314 59.5721C56.947 59.7871 56.8012 60.1694 56.5944 60.5304C56.2577 61.0661 55.8222 61.5328 55.3113 61.9055C55.2448 61.9503 55.181 61.9991 55.1204 62.0515C54.5159 62.6886 54.3833 62.7019 53.5721 62.317C52.9517 62.0143 52.3287 61.7197 51.7163 61.4223C51.6818 61.4064 51.6394 61.3746 51.6182 61.4223C51.6062 61.4595 51.6062 61.4994 51.6182 61.5365C51.7786 61.979 51.7786 62.4638 51.6182 62.9063C51.5959 63.0369 51.5897 63.1697 51.5996 63.3018C51.5864 63.7372 51.4114 63.8327 51.0005 63.7743C50.6982 63.7319 50.4225 63.5938 50.1256 63.5779C49.8286 63.562 49.7093 63.0072 49.8366 62.7815C49.9583 62.4773 50.0308 62.1556 50.0513 61.8285C50.1362 61.4117 49.9585 61.2976 49.484 61.1542C48.8053 60.9684 48.1399 60.7295 47.4691 60.5039C46.9548 60.3313 46.4219 60.2012 45.8784 60.0765C45.3349 59.9517 44.6536 59.9995 44.232 59.5004C44.0375 59.2412 43.8762 58.9584 43.7522 58.6589C43.3996 57.9076 43.0046 57.1803 42.6148 56.4503C42.3126 55.8822 42.0236 55.3008 41.732 54.7248C41.5849 54.366 41.4076 54.0206 41.2018 53.6921C40.8995 53.278 40.8969 52.7869 40.9366 52.2958C40.9366 52.1232 40.9366 51.948 40.9366 51.7649C40.8969 51.141 40.5655 50.642 40.2712 50.1163C40.0229 49.7562 39.7444 49.4178 39.4387 49.1049C39.3141 48.951 39.4865 48.6855 39.7251 48.6563C40.6715 48.5448 41.6074 48.3563 42.3762 47.767C42.6758 47.5361 43.1053 47.3078 43.1716 46.8936C43.2909 46.1689 43.2723 45.4628 42.7368 44.8363C42.2012 44.2098 41.4404 43.8806 40.6742 43.6391C40.2674 43.5531 39.8514 43.5192 39.4361 43.5382C39.0729 43.5223 38.9059 43.2542 39.0861 42.9462C39.3831 42.4631 39.7198 42.0038 40.0008 41.5127C40.4287 40.8364 40.7757 40.112 41.0347 39.3545C41.2197 38.8823 41.3315 38.3846 41.3661 37.8786C41.3476 36.7132 40.653 36.1929 39.4706 36.461C38.2059 36.7477 37.1985 37.483 36.207 38.2661C35.4938 38.8316 34.8257 39.4474 34.1523 40.0607C34.0118 40.1881 33.9296 40.1244 33.8183 40.0235C33.4073 39.6518 33.1899 39.1475 32.8957 38.6962C32.4556 38.0166 32.019 37.3353 31.586 36.6521C31.2387 36.1212 30.9046 35.5505 30.5414 35.0195C30.1491 34.4408 29.0859 32.9649 29.0859 32.9649C29.0859 32.9649 28.3569 32.9251 28.0414 32.8746C27.7259 32.8242 27.2089 32.3437 27.2089 32.3437C27.2089 32.3437 28.3463 33.9657 28.6114 34.3267C29.3166 35.285 30.0271 36.2433 30.6528 37.2468C31.2785 38.2502 31.9784 39.2298 32.5086 40.3075C32.5772 40.4646 32.6664 40.6119 32.7737 40.7456C32.9672 40.9606 32.8692 41.1172 32.7021 41.2605C32.4758 41.4505 32.2713 41.665 32.0924 41.9003C32.0677 41.9427 32.034 41.9791 31.9936 42.007C31.9533 42.0348 31.9074 42.0535 31.8591 42.0616C31.8107 42.0697 31.7612 42.0671 31.714 42.0539C31.6668 42.0407 31.6231 42.0173 31.586 41.9853C30.6249 41.326 29.6155 40.7403 28.5663 40.2332C26.8616 39.4368 25.1198 38.7838 23.1739 38.959C22.2559 39.0483 21.411 39.499 20.8249 40.212C20.2947 40.8252 19.7088 41.4145 19.213 42.0702C19.1768 42.1311 19.1218 42.1785 19.0562 42.2054C18.9907 42.2322 18.9183 42.2369 18.8498 42.2189C18.4912 42.1444 18.1204 42.1535 17.7659 42.2456C17.4115 42.3376 17.0829 42.5102 16.8058 42.7498C16.1336 43.242 15.6032 43.9031 15.2681 44.6664C15.1203 45.0374 15.092 45.4453 15.187 45.8332C15.2821 46.2211 15.4958 46.5696 15.7983 46.8299C15.8831 46.8858 15.9424 46.9729 15.9633 47.0724C15.9841 47.1719 15.9649 47.2756 15.9097 47.3609C15.5756 48.0325 15.2045 48.6882 15.056 49.4394C14.7909 50.7933 14.9367 52.0197 16.0661 52.986C16.6684 53.4917 17.3689 53.8668 18.1234 54.0876C18.549 54.2222 18.9819 54.333 19.4198 54.4195C19.6345 54.4619 19.6186 54.6053 19.6292 54.7619C19.6849 55.7202 20.0216 56.5325 20.9336 56.9706C21.6077 57.2858 22.3692 57.3607 23.0917 57.1829C23.7082 57.0469 24.3149 56.8695 24.9077 56.652C24.9483 56.6457 24.9876 56.6331 25.0244 56.6148C25.4989 56.2485 25.8992 56.5272 26.3075 56.7555C26.8793 57.0807 27.4918 57.328 28.1289 57.4909C28.1952 57.5068 28.2959 57.4909 28.3039 57.5758C28.3118 57.6608 28.2164 57.7006 28.1395 57.7324C27.7601 57.8786 27.39 58.0479 27.0313 58.2395C26.7828 58.3812 26.5575 58.5603 26.3632 58.7704C25.9735 59.2084 25.9417 59.6092 26.3181 60.0977C26.8215 60.7337 27.425 61.2834 28.105 61.725C28.8451 62.2504 29.6452 62.6853 30.4884 63.0204C30.6178 63.0796 30.7228 63.1818 30.7853 63.3098C31.4423 64.5673 32.2041 65.767 33.0627 66.8962C33.4577 67.4271 33.8819 67.9262 34.322 68.4146C34.4136 68.5022 34.4775 68.6148 34.5058 68.7385C34.5341 68.8621 34.5255 68.9913 34.4811 69.1101C34.1887 70.0406 33.9672 70.9919 33.8183 71.9559C33.7759 72.2213 33.6247 72.2585 33.4285 72.2718C32.6146 72.3275 31.7981 72.3434 30.9895 72.439C29.7302 72.593 28.4762 72.8133 27.2328 73.0814C27.1135 73.108 26.9677 73.1372 26.9412 73.2699C26.9146 73.4026 27.0923 73.4106 27.1798 73.4557C28.1795 73.9879 29.1122 74.6375 29.9582 75.3909C30.0112 75.4361 30.104 75.4573 30.0854 75.5449C30.0669 75.6325 29.9688 75.6617 29.8919 75.667C29.5976 75.6829 29.3007 75.6856 29.0064 75.6989C28.842 75.6989 28.7758 75.5874 28.6989 75.4838C28.6171 75.3544 28.494 75.2565 28.3496 75.2059C28.2053 75.1553 28.0481 75.155 27.9035 75.2051C27.1672 75.3516 26.4642 75.6333 25.8303 76.036C25.2338 76.4315 25.1251 76.3386 25.3531 77.1403C25.463 77.511 25.5515 77.8877 25.6182 78.2685C25.6527 78.4862 25.7428 78.5632 25.9549 78.5632C26.6283 78.5632 26.5912 78.5791 26.6469 79.2481C26.7423 80.3922 26.912 81.5311 27.4555 82.5664C27.5438 82.7256 27.6487 82.8751 27.7683 83.0123C27.8266 83.084 27.9274 83.1238 27.885 83.2353C27.8425 83.3468 27.7259 83.3787 27.6199 83.384C25.8091 83.4795 23.9984 83.599 22.1876 83.7185C21.9774 83.7049 21.7664 83.7237 21.5619 83.7742C21.5485 83.7747 21.5353 83.7781 21.5233 83.7843C21.5113 83.7904 21.5007 83.799 21.4924 83.8097C21.4841 83.8203 21.4781 83.8326 21.4751 83.8457C21.472 83.8588 21.4717 83.8725 21.4745 83.8857C21.493 83.9335 21.554 83.9468 21.6044 83.9521C22.1717 84.0025 22.7311 83.9892 23.3011 83.9892C30.2949 83.9892 37.2895 83.9892 44.2851 83.9892C44.6112 83.9892 44.9373 83.9892 45.2607 83.96C45.3429 83.96 45.4781 83.96 45.4754 83.8432C45.4728 83.7264 45.3376 83.745 45.2554 83.7397C44.118 83.6707 42.9913 83.4557 41.846 83.4397C41.2786 83.4397 40.7086 83.3654 40.1413 83.3256C40.0461 83.3279 39.952 83.3044 39.869 83.2577C39.7859 83.211 39.717 83.1427 39.6694 83.0601C39.4706 82.7336 39.216 82.4416 38.988 82.131C38.9395 82.067 38.877 82.0148 38.8054 81.9785C38.7337 81.9422 38.6548 81.9226 38.5745 81.9213C37.6348 81.826 36.7041 81.6574 35.7907 81.4169C35.4275 81.3213 35.4037 81.2523 35.6078 80.9364C35.9521 80.4019 36.4005 79.9423 36.9262 79.5852C37.4518 79.2281 38.044 78.9807 38.6672 78.8579C39.8247 78.6014 41.0228 78.5887 42.1853 78.8207C42.4133 78.8658 42.5273 78.8207 42.5326 78.5552C42.5645 76.9625 42.9383 75.4254 43.1822 73.8672C43.2299 73.5672 43.3147 73.2699 43.3598 72.9699C43.4049 72.67 43.5507 72.6354 43.7654 72.7974C44.2108 73.1345 44.6536 73.4743 45.091 73.8327C46.1674 74.7273 47.196 75.6776 48.1796 76.6705C49.2772 77.7819 50.3297 78.9322 51.3372 80.1215C51.8966 80.7798 52.4506 81.4488 52.965 82.1363C52.9968 82.1814 53.01 82.2558 53.0975 82.2372C53.1324 82.2295 53.1641 82.2111 53.1879 82.1844C53.2117 82.1577 53.2264 82.1241 53.2301 82.0885C53.4395 81.0665 53.9167 80.1374 54.2402 79.1685C54.492 78.396 54.8552 77.6606 55.1681 76.9094C55.1898 76.8415 55.2075 76.7723 55.2211 76.7023C55.3033 76.4183 55.4703 76.3785 55.7089 76.5457C55.8945 76.6607 56.0493 76.8191 56.1601 77.0073C56.271 77.1955 56.3345 77.4079 56.3452 77.6261C56.3797 78.2234 56.7959 78.5685 57.2572 78.8738C57.8868 79.2967 58.547 79.672 59.2323 79.9967C59.28 80.03 59.3344 80.0525 59.3916 80.0625C59.4489 80.0725 59.5076 80.0698 59.5637 80.0546C59.6198 80.0394 59.6719 80.0121 59.7164 79.9746C59.7608 79.9371 59.7965 79.8902 59.8209 79.8374C60.147 79.349 60.4837 78.8685 60.8124 78.3827C60.8829 78.3022 60.9243 78.2004 60.93 78.0935C60.9358 77.9867 60.9056 77.881 60.8442 77.7934C60.6401 77.4775 60.7276 77.2412 61.0643 77.0793C61.5945 76.8138 62.1247 76.5643 62.655 76.3094C63.0133 76.0937 63.3044 75.782 63.4954 75.4095C64.1767 74.3795 64.8528 73.3442 65.4413 72.2558C65.9007 71.4214 66.3166 70.5637 66.6874 69.6862C67.0045 68.9292 67.2607 68.148 67.4536 67.3501C67.5066 67.1351 67.618 66.8749 67.4774 66.7024C67.3369 66.5298 67.101 66.7024 66.9127 66.7369C66.2897 66.8298 65.9186 67.2678 65.558 67.7271C65.0278 68.4066 64.6699 69.1977 64.1767 69.9012C63.7617 70.5495 63.2664 71.1427 62.7027 71.6665C62.492 71.8242 62.2563 71.9454 62.0054 72.0249C60.7611 72.4709 59.6533 73.2318 58.7896 74.2335C58.7392 74.2972 58.7047 74.3716 58.6597 74.4406C58.6152 74.5331 58.5378 74.6057 58.4426 74.644C58.3475 74.6823 58.2414 74.6836 58.1453 74.6476C57.9014 74.568 57.6443 74.5176 57.4481 74.7724C57.3553 74.8945 57.2174 74.8414 57.1061 74.8228C56.8675 74.783 56.6448 74.6768 56.3956 74.6476C56.2047 74.6238 56.1914 74.4459 56.263 74.284C56.4778 73.7875 56.6899 73.2938 56.9126 72.8027C57.1061 72.3806 57.0849 72.3275 56.6474 72.1125C56.3823 71.9744 56.1172 71.8045 55.8521 71.6479C55.7991 71.6187 55.7354 71.5816 55.746 71.5152C55.7566 71.4488 55.8441 71.4329 55.9131 71.417C56.0695 71.3984 56.2185 71.3398 56.3457 71.2468C56.4729 71.1538 56.5741 71.0296 56.6395 70.8861C56.6699 70.8208 56.7194 70.7663 56.7814 70.7298C56.8434 70.6933 56.915 70.6765 56.9868 70.6816C57.1498 70.6689 57.3139 70.6779 57.4746 70.7082C58.2699 70.9046 58.8002 70.4905 59.3013 69.9914C59.7148 69.572 60.0966 69.126 60.0701 68.465C60.0701 68.2951 60.1814 68.2421 60.3591 68.2447C61.1677 68.2447 61.8013 67.9208 62.13 67.159C62.3633 66.6281 62.419 65.7042 61.8013 65.3007C61.5998 65.168 61.3665 65.0884 61.1544 64.9716C60.9821 64.876 60.937 64.7911 61.1544 64.6504C61.7642 64.2442 62.4296 63.9416 63.0606 63.5885C64.0177 63.0417 64.9853 62.5134 65.9583 61.9957C67.0188 61.433 68.0952 60.8941 69.1636 60.3446C69.9881 59.9225 70.8126 59.4924 71.6424 59.081C72.5677 58.6191 73.4982 58.1678 74.4288 57.7192C75.5131 57.1882 76.6001 56.6786 77.695 56.1795C78.5142 55.8052 79.3467 55.4654 80.1765 55.1176C80.887 54.8097 81.5922 54.4885 82.2974 54.1991C83.2466 53.8169 84.2036 53.4558 85.1607 53.0948C85.8155 52.8506 86.4677 52.6037 87.1332 52.3913C87.7085 52.2055 88.2732 51.9905 88.8564 51.8286C89.323 51.7011 89.7923 51.5817 90.2562 51.4436C90.4922 51.3746 90.4392 51.1331 90.3676 50.9738C90.265 50.7273 90.2285 50.4583 90.2615 50.1933ZM49.6431 64.3345C49.6934 64.1407 49.8472 64.1221 50.0063 64.1619C50.3258 64.2614 50.6518 64.3385 50.9819 64.3929C51.1198 64.4061 51.1834 64.4911 51.141 64.6583C50.9365 65.3349 50.6794 65.9943 50.3721 66.6307C50.3465 66.6772 50.3076 66.715 50.2603 66.7392C50.2131 66.7633 50.1597 66.7727 50.107 66.7661C49.7915 66.6918 49.4628 66.5882 49.1181 66.5378C48.906 66.5086 48.9458 66.2723 49.0041 66.0998C49.2083 65.5105 49.484 64.945 49.6431 64.3345ZM40.2712 54.7991C40.4329 54.5734 40.5363 54.5788 40.6821 54.8309C41.2124 55.8025 41.7691 56.7582 42.2728 57.7377C42.4717 58.1174 42.6864 58.489 42.8879 58.866C42.9198 58.9058 42.9383 58.9548 42.9407 59.0058C42.9431 59.0569 42.9292 59.1073 42.9012 59.15C42.8057 59.2827 42.7447 59.15 42.6679 59.15C41.6998 59.0408 40.7255 58.9974 39.7516 59.0199C39.1385 59.0218 38.5288 59.1112 37.9408 59.2854C37.6996 59.3703 37.4928 59.3225 37.5352 58.9801C37.5417 58.8962 37.5417 58.8118 37.5352 58.7279C37.5034 58.1067 37.7181 57.5466 37.8003 56.9652C37.8287 56.8616 37.8812 56.7662 37.9536 56.6868C38.0259 56.6074 38.1161 56.5464 38.2165 56.5087C39.0272 56.1101 39.7315 55.5241 40.2712 54.7991ZM40.8014 44.5576C41.5968 44.9797 42.1429 45.5982 41.9335 46.5751C41.8248 47.0795 41.4351 47.3874 41.0241 47.6369C40.1268 48.1177 39.1256 48.3711 38.1079 48.3749C37.2035 48.4258 36.2966 48.3363 35.4196 48.1095C35.24 48.0798 35.0628 48.0373 34.8893 47.982C34.7011 47.8997 34.6004 47.7723 34.8019 47.5626C34.9661 47.3445 35.0908 47.0992 35.1704 46.8379C35.4213 46.2731 35.6081 45.6818 35.7271 45.0752C35.8146 44.6027 36.2282 44.5443 36.5622 44.4275C37.2162 44.2236 37.8975 44.1216 38.5824 44.1249C39.4202 44.1435 40.1439 44.2151 40.7961 44.5576H40.8014ZM32.6093 42.6808C32.8745 42.4286 33.1396 42.1206 33.4047 41.8658C33.866 41.449 34.3246 41.0269 34.8019 40.6261C35.1757 40.3102 35.5415 39.981 35.9286 39.681C36.5497 39.1632 37.2141 38.6996 37.9143 38.2953C38.3326 38.0304 38.7767 37.8089 39.2399 37.6343C39.3232 37.5965 39.4135 37.5766 39.505 37.5759C39.5437 37.5882 39.5803 37.6061 39.6137 37.629C39.5928 37.6605 39.5688 37.6899 39.5421 37.7166C39.3141 37.9343 39.0835 38.144 38.8581 38.3617C38.3891 38.8207 37.9631 39.3219 37.5856 39.8589C36.5438 41.4005 35.7061 43.0709 35.0935 44.8283C34.8193 45.64 34.4252 46.406 33.9243 47.1007C33.2144 48.0801 32.3483 48.9357 31.3606 49.6332C30.3608 50.3234 29.2865 50.8987 28.158 51.3481C27.2779 51.6985 26.3552 51.8445 25.4485 52.0728C25.3371 52.087 25.2238 52.0696 25.1217 52.0227C25.0196 51.9758 24.9326 51.9012 24.8706 51.8073C24.7539 51.6003 24.8494 51.3959 25.0085 51.2047C25.6898 50.3765 26.334 49.5137 27.0313 48.7014C27.4157 48.2528 27.7683 47.775 28.1899 47.3529C28.5478 46.9919 28.8447 46.5565 29.1867 46.1928C29.4067 45.9512 29.6612 45.7415 29.8999 45.5132C30.0987 45.3248 30.21 45.0752 30.4089 44.8788C31.1379 44.1567 31.8326 43.3869 32.6093 42.6808ZM17.4394 43.1958C17.6901 42.9539 18.0174 42.8074 18.3646 42.7816C18.4362 42.7816 18.5105 42.7604 18.5608 42.8321C18.6112 42.9038 18.5237 42.9542 18.4866 43.0073C17.938 43.7751 17.4309 44.5717 16.9675 45.3938C16.9012 45.5185 16.7766 45.5929 16.7024 45.723C16.6281 45.853 16.5221 45.7601 16.4611 45.6592C16.3713 45.5077 16.3262 45.3337 16.3312 45.1575C16.4298 44.3867 16.8221 43.6838 17.4261 43.1958H17.4394ZM19.3535 53.2514C18.8454 53.0922 18.3471 52.9034 17.8609 52.686C17.1004 52.2895 16.5282 51.6068 16.2702 50.788C15.9229 49.7553 16.4425 48.9032 16.766 48.0165C17.0047 47.3946 17.2892 46.7912 17.617 46.2114C17.9719 45.562 18.3761 44.9407 18.8259 44.3532C19.1149 43.9762 19.388 43.586 19.6982 43.2303C20.1342 42.6909 20.6063 42.1818 21.1112 41.7065C21.3949 41.4596 21.6627 41.1597 21.9437 40.9101C22.2863 40.5746 22.7299 40.3619 23.2057 40.3049C23.6113 40.2704 24.001 40.1217 24.4199 40.1828C25.0865 40.2413 25.7482 40.346 26.4003 40.496C26.9836 40.6633 27.5748 40.8093 28.1395 41.0269C28.7042 41.2446 29.2344 41.4304 29.7646 41.6932C30.2445 41.9322 30.7668 42.0861 31.236 42.3622C31.4534 42.487 31.4428 42.6117 31.3156 42.7737C31.0242 43.1589 30.7127 43.5284 30.3824 43.8807C29.6586 44.6452 28.9799 45.4522 28.3304 46.2857C27.6199 47.1963 26.8908 48.0935 26.1803 49.0067C25.8065 49.4845 25.4883 50.0048 25.0906 50.4588C24.8255 50.7641 24.6797 51.1702 24.2953 51.3879C23.9864 51.5289 23.6481 51.5935 23.3091 51.5764C22.6953 51.5787 22.0903 51.7222 21.5407 51.9958C21.2756 52.163 21.098 52.4471 20.7745 52.5453C20.6102 52.5958 20.5359 52.7816 20.4432 52.9196C20.3278 53.0924 20.1562 53.2199 19.9575 53.2804C19.7589 53.3409 19.5455 53.3307 19.3535 53.2514ZM27.4714 56.6255C26.7202 56.2772 26.073 55.7382 25.5944 55.0619C25.3613 54.724 25.0407 54.456 24.6671 54.2867C24.2934 54.1175 23.8808 54.0532 23.4734 54.1009C23.4436 54.0958 23.4131 54.0958 23.3833 54.1009C23.2212 54.1525 23.0745 54.2437 22.9565 54.3664C23.0888 54.4079 23.23 54.4124 23.3647 54.3797C24.1309 54.3531 24.5869 54.815 24.9554 55.399C25.0376 55.5291 25.0244 55.63 24.8494 55.707C24.0172 56.0745 23.0997 56.205 22.1982 56.0839C21.8147 56.0289 21.457 55.8582 21.1728 55.5945C20.8886 55.3308 20.6914 54.9867 20.6075 54.608C20.4829 54.0346 20.9177 53.2143 21.554 52.8586C22.5498 52.3108 23.7095 52.1411 24.8202 52.3807C25.3427 52.4946 25.8474 52.6786 26.3208 52.9276C26.403 52.9674 26.4984 53.0444 26.5673 52.9701C26.6363 52.8957 26.509 52.8533 26.4772 52.7948C26.3632 52.5666 26.5514 52.5719 26.684 52.5453C27.2142 52.4365 27.7445 52.4205 28.2747 52.2799C29.3519 52.0124 30.3887 51.6026 31.358 51.0614C32.5457 50.4004 33.4551 49.4288 34.3061 48.4068C34.3989 48.2953 34.4572 48.2608 34.5712 48.3059C35.4805 48.6457 36.4562 48.6802 37.3894 48.9032C37.5092 48.9314 37.6322 48.9439 37.7552 48.9403C37.9727 48.9365 38.1879 48.9843 38.3833 49.0798C38.5787 49.1753 38.7487 49.3158 38.8793 49.4899C39.5633 50.2862 40.0061 51.1888 39.9239 52.2852C39.8591 53.0277 39.5297 53.7221 38.996 54.2416C38.1533 55.0658 37.1521 55.7097 36.0532 56.1344C34.9685 56.5963 33.8274 56.9123 32.6597 57.0741C32.0208 57.1617 31.3872 57.3661 30.9338 57.2918C29.7483 57.2963 28.5733 57.07 27.474 56.6255H27.4714ZM33.4418 58.1731C32.6783 58.3961 31.9253 58.6828 31.0558 58.704C30.6157 58.8208 30.3426 58.4226 29.9953 58.1943C29.9078 58.1359 29.7063 58.1253 29.754 57.974C29.8018 57.8227 29.9714 57.8944 30.0801 57.9183C31.1541 58.1045 32.2515 58.1116 33.3278 57.9395C33.5213 57.9156 33.8368 57.7961 33.8846 57.9713C33.9323 58.1466 33.6009 58.1359 33.4445 58.1731H33.4418ZM34.6693 81.0214C33.9597 80.73 33.2759 80.3793 32.6252 79.9728C32.3053 79.7969 31.9458 79.7055 31.5807 79.7073C30.9365 79.6941 30.6289 79.3649 30.5043 78.7835V78.7543C30.2684 77.958 30.2684 77.9579 31.2228 77.4775C31.8007 77.1801 31.8034 77.1775 32.2488 77.6527C33.0632 78.5275 33.817 79.457 34.5049 80.4347C34.6242 80.6046 34.7568 80.7665 34.8814 80.9258C34.8337 81.0293 34.7992 81.0745 34.6719 81.0214H34.6693ZM55.8972 72.7071C56.1623 73.0018 55.8733 73.2566 55.7779 73.4876C55.3484 74.5494 54.8844 75.5874 54.4178 76.628C54.0334 77.4801 53.6225 78.3269 53.2354 79.1738C53.1187 79.4233 52.9172 79.4392 52.7449 79.2401C52.0861 78.3895 51.3779 77.5785 50.624 76.8112C49.9031 76.1158 49.1474 75.4575 48.3599 74.8388C47.8138 74.4193 47.2623 74.0052 46.6844 73.6362C46.1064 73.2672 45.5841 72.9168 45.0115 72.5903C44.3593 72.2134 43.7018 71.8497 43.0417 71.494C41.9534 70.9123 40.8287 70.4015 39.6747 69.9649C39.5925 69.933 39.4706 69.8083 39.4096 69.9251C39.3486 70.0419 39.505 70.1295 39.6005 70.1773C40.4117 70.594 41.2071 71.04 41.9865 71.5285C42.0919 71.5879 42.1738 71.6817 42.2187 71.7942C42.2635 71.9067 42.2686 72.0312 42.2331 72.147C41.9708 73.5038 41.5702 74.8301 41.0374 76.105C40.9419 76.3493 40.8439 76.5935 40.7458 76.8377C40.6742 77.0156 40.5973 77.074 40.4197 77.0633C39.4858 77.0416 38.5561 77.1947 37.6784 77.5146C36.8574 77.7865 36.0863 78.1909 35.3957 78.7119C35.2128 78.8499 35.0431 78.8977 34.8893 78.6535C34.2479 77.6991 33.478 76.838 32.6014 76.0944C32.304 75.8102 31.9897 75.5443 31.6602 75.298C31.2334 74.9901 30.7933 74.7034 30.3824 74.3742C30.1172 74.1645 30.1172 74.0955 30.4142 73.9442C30.989 73.6758 31.6014 73.4967 32.2302 73.4132C32.8027 73.2701 33.3934 73.2138 33.9826 73.246H34.5951C35.112 73.246 35.1439 73.246 35.1995 72.7151C35.2817 71.9187 35.4355 71.1223 35.5813 70.3259C35.6105 70.1693 35.5813 69.9384 35.7801 69.8985C35.979 69.8587 36.0797 70.0817 36.1725 70.2197C36.4164 70.5781 36.8061 70.7507 37.1296 71.0161C37.178 71.0448 37.2351 71.0552 37.2905 71.0455C37.3459 71.0358 37.396 71.0065 37.4318 70.963C37.4954 70.8781 37.3708 70.833 37.3178 70.7772C36.4588 69.8481 35.6582 68.8712 34.884 67.8571C34.0195 66.6983 33.2228 65.4902 32.498 64.2389C32.4264 64.1221 32.2753 63.9602 32.3628 63.8301C32.4503 63.7 32.6146 63.8566 32.7446 63.8726C33.0097 63.8991 33.2059 64.138 33.4763 64.138C33.5266 64.138 33.5876 64.1831 33.6141 64.138C33.6406 64.0929 33.5664 64.0478 33.524 64.0133C33.1078 63.6602 32.5881 63.4823 32.1321 63.1956C31.2785 62.6647 30.4009 62.1497 29.587 61.5551C28.9702 61.0864 28.4057 60.5524 27.9035 59.9623C27.816 59.8641 27.6941 59.7314 27.771 59.58C27.8479 59.4287 27.9937 59.5163 28.105 59.5243C29.2397 59.5854 30.3612 59.3889 31.4746 59.2403C33.0448 59.0451 34.5696 58.5799 35.9816 57.8652C36.2229 57.7404 36.313 57.8041 36.3263 58.0616C36.3501 58.6217 36.2786 59.1845 36.3926 59.742C36.4244 59.9013 36.2733 60.0074 36.1486 60.0977C35.901 60.2557 35.6954 60.4716 35.5495 60.7268C35.5332 60.7703 35.5234 60.8159 35.5203 60.8622C35.5678 60.8668 35.6156 60.8614 35.6608 60.8463C37.005 60.1057 38.4631 59.9225 39.969 59.8827C41.0877 59.8775 42.2047 59.9717 43.3068 60.1641C44.5423 60.3562 45.763 60.6338 46.9601 60.995C47.5858 61.1808 48.2114 61.3772 48.8345 61.5737C48.9074 61.5866 48.9766 61.6151 49.0375 61.6573C49.0984 61.6995 49.1494 61.7544 49.1872 61.8181C49.2249 61.8819 49.2485 61.9531 49.2563 62.0268C49.264 62.1005 49.2558 62.175 49.2321 62.2453C49.142 62.7098 49.0598 63.177 48.967 63.6443C48.7714 64.5722 48.4698 65.4745 48.0683 66.3334C47.7793 66.9785 47.4877 67.6209 47.1669 68.25C47.0184 68.542 46.8859 68.4889 46.7241 68.3058C46.2548 67.7936 45.7039 67.363 45.0937 67.0315C44.3005 66.5831 43.4703 66.2039 42.6122 65.898C41.8168 65.6113 41.0215 65.3671 40.2129 65.1494C39.2901 64.8938 38.3851 64.5781 37.5034 64.2044C36.8092 63.9261 36.1388 63.5913 35.4991 63.2036C35.34 63.1001 35.1863 62.9859 35.0272 62.8771C34.9848 62.8479 34.953 62.755 34.8867 62.8266C34.8204 62.8983 34.8999 62.9355 34.9397 62.978C35.3653 63.416 35.8586 63.7826 36.4005 64.0637C37.5245 64.6804 38.6999 65.1982 39.9133 65.6113C40.5657 65.8132 41.2005 66.068 41.8115 66.3732C42.8635 66.9092 43.8592 67.5495 44.7835 68.2845C45.5133 68.8692 46.1467 69.5653 46.6605 70.3472C46.7798 70.5383 46.8885 70.5808 47.0158 70.3206C47.318 69.7074 47.652 69.1101 47.9728 68.5049C48.0895 68.2872 48.4394 68.2686 48.7682 68.4757C48.9856 68.6164 48.8981 68.7756 48.7867 68.9402C48.6065 69.2057 48.4315 69.4711 48.2751 69.7631C48.222 69.8587 48.1346 69.9755 48.23 70.1029C48.3254 70.2304 48.466 70.1613 48.5614 70.1534C49.1632 70.1056 49.7597 70.0153 50.3589 69.9569C50.6113 69.9322 50.8619 69.8914 51.1092 69.8348C51.6394 69.7154 52.045 70.0445 52.4719 70.2675C53.5204 70.8538 54.5204 71.5231 55.4624 72.2691C55.6233 72.3992 55.7699 72.546 55.8998 72.7071H55.8972ZM61.1173 65.9724C61.1708 66.0652 61.199 66.1705 61.199 66.2776C61.199 66.3848 61.1708 66.4901 61.1173 66.5829C60.9317 66.9015 60.8045 67.2652 60.4678 67.4722C60.3807 67.5395 60.2728 67.5743 60.1629 67.5704C59.8394 67.5492 59.5133 67.5704 59.1899 67.5704C58.9248 67.5704 58.8426 67.7191 58.9407 67.9447C59.0653 68.2394 59.227 68.5394 59.0441 68.8447C58.7917 69.2081 58.4502 69.5006 58.0526 69.6941C57.9253 69.7711 57.7159 69.7074 57.5011 69.7074C57.122 69.7738 56.7217 69.6357 56.3187 69.5694C56.1119 69.5375 56.0536 69.5853 56.0695 69.7658C56.0695 70.0498 56.1808 70.3657 55.7832 70.5064C55.5083 70.6021 55.2085 70.5965 54.9374 70.4905C54.0855 70.1902 53.3306 69.6646 52.7529 68.9694C52.6336 68.834 52.509 68.8712 52.3658 68.9163C51.5095 69.1951 50.616 69.2243 49.7332 69.3039C49.6272 69.3039 49.4813 69.365 49.4098 69.2163C49.3382 69.0676 49.4999 69.0092 49.5715 68.9349C50.2828 68.231 50.8803 67.4205 51.3425 66.5325C51.9106 65.455 52.2141 64.2574 52.2279 63.039C52.2279 62.4152 52.2836 62.3833 52.8218 62.7178C53.36 63.0523 53.9379 63.4478 54.4973 63.8142C54.561 63.8566 54.6166 63.9522 54.7015 63.8779C54.7863 63.8035 54.728 63.7372 54.7015 63.6788C54.4761 63.3018 54.7015 63.0868 54.9666 62.8612C55.7564 62.1677 56.497 61.4199 57.183 60.6233C57.2698 60.492 57.3839 60.3811 57.5175 60.2982C57.6511 60.2153 57.8011 60.1622 57.9571 60.1428C58.0446 60.1275 58.1344 60.1325 58.2197 60.1573C58.305 60.1822 58.3834 60.2264 58.449 60.2864C58.5145 60.3464 58.5654 60.4206 58.5978 60.5034C58.6302 60.5862 58.6432 60.6754 58.6358 60.764C58.598 61.401 58.3862 62.0153 58.0234 62.5399C57.8398 62.828 57.6878 63.135 57.57 63.4558C57.4454 63.7903 57.5913 63.9602 57.8537 64.0876C58.7366 64.5282 59.6326 64.9503 60.5049 65.4149C60.7657 65.5277 60.9819 65.7237 61.1199 65.9724H61.1173Z" fill="black"/>
<path d="M67.6174 2.05724C67.7628 2.02934 67.9132 2.0476 68.0478 2.10947C68.1823 2.17134 68.2941 2.27373 68.3677 2.40234C69.0756 3.34208 69.8205 4.26057 70.5178 5.20562C71.337 6.32055 72.1085 7.47 72.8508 8.62741C73.3121 9.33885 73.7496 10.0662 74.1764 10.7989C75.2159 11.0701 76.1827 11.5677 77.0078 12.2563C76.5916 11.4599 76.1727 10.6635 75.7167 9.89367C75.1229 8.88491 74.5096 7.88589 73.8768 6.89661C73.1 5.68345 72.2861 4.50745 71.4218 3.35269C70.8091 2.50286 70.1479 1.68919 69.4414 0.915757C69.2373 0.71555 69.0511 0.497935 68.8847 0.265377C68.6487 -0.0983057 68.3359 -0.0319404 68.0284 0.0848627C67.4212 0.31316 66.785 0.44589 66.1725 0.647641C65.4329 0.889211 64.6879 1.12016 63.9456 1.35908C63.3968 1.53428 62.8506 1.70949 62.3071 1.89C61.5295 2.15015 60.7553 2.41562 59.9847 2.68639C59.306 2.9253 58.63 3.16953 57.9566 3.42437C56.8961 3.83052 55.8356 4.24465 54.7752 4.65611C53.8314 5.04368 52.8902 5.37817 51.9623 5.75778C50.8196 6.22499 49.685 6.71609 48.5529 7.20985C47.4209 7.70361 46.257 8.22126 45.1064 8.74156C43.9558 9.26187 42.8529 9.78217 41.7368 10.3343C40.7664 10.8033 39.8049 11.29 38.8523 11.7944C37.7918 12.3439 36.7685 12.9173 35.7319 13.4854C34.6953 14.0534 33.6109 14.6481 32.5505 15.2507C31.8797 15.6383 28.8389 17.2841 28.1602 17.6717C28.5366 17.7938 29.5282 17.7752 29.9152 17.9372C30.1069 18.0045 30.2831 18.1096 30.4334 18.2464C30.5837 18.3833 30.705 18.5489 30.7901 18.7335C31.0552 18.5822 33.2716 17.1726 33.5367 17.0903L34.2949 16.6337C35.0903 16.14 35.9254 15.6728 36.742 15.2056C37.5585 14.7383 38.4175 14.2871 39.2579 13.8358C40.0056 13.4349 40.7267 12.9889 41.4902 12.6253C42.2007 12.2855 42.8953 11.9165 43.6111 11.5634C44.38 11.1891 45.1303 10.767 45.9017 10.4166C46.5274 10.122 47.1584 9.83526 47.7867 9.54591C48.1976 9.35478 48.6112 9.14241 49.0248 8.96455C49.4384 8.78669 49.8334 8.55309 50.2603 8.39381C50.8356 8.17613 51.3897 7.91067 51.9517 7.6691C52.641 7.37178 53.3223 7.04792 54.0223 6.78511C54.7222 6.52231 55.4247 6.2011 56.1273 5.9144C56.4534 5.77901 56.7927 5.66486 57.1294 5.54806C57.6597 5.36489 58.1634 5.13129 58.6883 4.95608C59.2636 4.76495 59.831 4.55789 60.3983 4.34818C60.9657 4.13846 61.5303 3.91016 62.103 3.73496C62.6757 3.55975 63.1635 3.2996 63.752 3.25182C63.9669 3.21171 64.1749 3.14109 64.3697 3.0421C65.1174 2.74744 65.8968 2.56958 66.6604 2.33863C66.9864 2.24572 67.294 2.12361 67.6174 2.05724Z" fill="black"/>
<path d="M15.1355 40.1881C14.1204 39.3809 12.9188 38.8423 11.6413 38.6218C11.2566 38.5174 10.8502 38.5248 10.4695 38.6431C9.93926 38.8501 9.67415 39.0997 9.65824 39.535C9.65625 39.7844 9.73173 40.0282 9.87423 40.2327C10.0167 40.4372 10.2192 40.5923 10.4536 40.6765C11.2993 41.011 12.4605 40.7668 13.3487 40.6765C13.5395 40.6579 14.5311 40.4562 13.8789 40.3526C13.1843 40.2165 12.4789 40.1437 11.7712 40.135C11.6434 40.1483 11.5146 40.1483 11.3868 40.135C11.2707 40.11 11.1584 40.0698 11.0528 40.0155C10.846 39.9173 10.618 39.7341 10.6683 39.5085C10.8354 38.7625 12.67 39.3704 13.0809 39.5085C13.7499 39.7347 14.377 40.0702 14.9367 40.5013C15.056 40.5969 15.2204 40.8199 15.3635 40.6234C15.5067 40.427 15.2575 40.281 15.1355 40.1881Z" fill="#000B0D"/>
<path d="M33.9831 73.2354H34.5955C35.1125 73.2354 35.1443 73.2354 35.2 72.7045C35.2822 71.9081 35.4359 71.1117 35.5818 70.3153C35.6109 70.1587 35.5818 69.9277 35.7806 69.8879C35.9794 69.8481 36.0802 70.0711 36.173 70.2091C36.4169 70.5675 36.8066 70.74 37.13 71.0055C37.1785 71.0342 37.2355 71.0446 37.2909 71.0349C37.3464 71.0251 37.3965 70.9959 37.4323 70.9524C37.4959 70.8675 37.3713 70.8223 37.3183 70.7666C36.4593 69.8375 35.6586 68.8606 34.8845 67.8465C34.0199 66.6877 33.2232 65.4795 32.4985 64.2283C32.4269 64.1115 32.2758 63.9495 32.3632 63.8195C32.4507 63.6894 32.6151 63.846 32.745 63.8619C33.0101 63.8885 33.2063 64.1274 33.4767 64.1274C33.5271 64.1274 33.5881 64.1725 33.6146 64.1274C33.6411 64.0823 33.5669 64.0371 33.5244 64.0026C33.1082 63.6496 32.5886 63.4717 32.1326 63.185C31.2789 62.6541 30.4014 62.1391 29.5875 61.5445C28.9706 61.0758 28.4062 60.5418 27.904 59.9517C27.8165 59.8535 27.6945 59.7207 27.7714 59.5694C27.8483 59.4181 27.9941 59.5057 28.1055 59.5137C29.2402 59.5747 30.3616 59.3783 31.4751 59.2296C33.0453 59.0345 34.57 58.5693 35.9821 57.8545C36.2233 57.7298 36.3135 57.7935 36.3267 58.051C36.3506 58.6111 36.279 59.1739 36.393 59.7313C36.4248 59.8906 36.2737 59.9968 36.1491 60.0871C35.9015 60.2451 35.6958 60.461 35.5499 60.7162C35.5337 60.7597 35.5238 60.8053 35.5208 60.8516C35.5691 60.856 35.6178 60.8506 35.6639 60.8357C37.0054 60.095 38.4636 59.9119 39.9694 59.872C41.0881 59.8669 42.2051 59.9611 43.3072 60.1534C44.5427 60.3456 45.7634 60.6232 46.9605 60.9843C47.5862 61.1702 48.2119 61.3666 48.8349 61.563C48.9078 61.576 48.9771 61.6045 49.0379 61.6467C49.0988 61.6889 49.1499 61.7437 49.1876 61.8075C49.2254 61.8713 49.2489 61.9424 49.2567 62.0162C49.2645 62.0899 49.2562 62.1644 49.2326 62.2347C49.1424 62.6992 49.0603 63.1664 48.9675 63.6336C48.7721 64.562 48.4696 65.4644 48.0661 66.3228C47.7798 66.9678 47.4881 67.6102 47.1673 68.2394C47.0189 68.5314 46.8863 68.4783 46.7246 68.2951C46.2553 67.7829 45.7043 67.3524 45.0941 67.0209C44.301 66.5725 43.4707 66.1933 42.6126 65.8874C41.8173 65.6007 41.0219 65.3565 40.2133 65.1388C39.2906 64.8831 38.3855 64.5675 37.5038 64.1938C36.8096 63.9154 36.1393 63.5807 35.4996 63.193C35.3405 63.0894 35.1867 62.9753 35.0277 62.8665C34.9852 62.8373 34.9534 62.7443 34.8871 62.816C34.8209 62.8877 34.9004 62.9249 34.9402 62.9673C35.3658 63.4054 35.859 63.7719 36.401 64.0531C37.5247 64.6702 38.7001 65.1881 39.9138 65.6007C40.5661 65.8025 41.201 66.0573 41.812 66.3626C42.864 66.8986 43.8596 67.5389 44.7839 68.2739C45.5146 68.8618 46.1481 69.5615 46.661 70.3472C46.7803 70.5383 46.889 70.5808 47.0162 70.3206C47.3184 69.7074 47.6525 69.1101 47.9733 68.5049C48.0899 68.2872 48.4399 68.2686 48.7686 68.4757C48.986 68.6164 48.8985 68.7756 48.7872 68.9402C48.6069 69.2057 48.4319 69.4711 48.2755 69.7631C48.2225 69.8587 48.135 69.9755 48.2304 70.1029C48.3259 70.2303 48.4664 70.1613 48.5618 70.1534C49.1637 70.1056 49.7602 70.0153 50.3593 69.9569C50.6118 69.9322 50.8624 69.8914 51.1096 69.8348C51.6398 69.7154 52.0455 70.0445 52.4723 70.2675C53.5209 70.8538 54.5209 71.5231 55.4628 72.2691C55.6266 72.3996 55.776 72.5473 55.9082 72.7098C56.1733 73.0044 55.8844 73.2593 55.7889 73.4902C55.3594 74.5521 54.8955 75.59 54.4289 76.6306C54.0444 77.4828 53.6335 78.3296 53.2464 79.1764C53.1298 79.4259 52.9283 79.4419 52.756 79.2428C52.0972 78.3922 51.389 77.5811 50.6351 76.8138C49.9142 76.1184 49.1585 75.4601 48.371 74.8414C47.8248 74.422 47.2734 74.0079 46.6954 73.6389C46.1175 73.2699 45.5952 72.9195 45.0225 72.593C44.3704 72.216 43.7129 71.8523 43.0527 71.4966C41.9644 70.9149 40.8398 70.4042 39.6858 69.9675C39.6036 69.9357 39.4816 69.8109 39.4206 69.9277C39.3597 70.0445 39.5161 70.1321 39.6115 70.1799C40.4228 70.5967 41.2181 71.0427 41.9976 71.5311C42.103 71.5906 42.1849 71.6843 42.2297 71.7969C42.2746 71.9094 42.2797 72.0338 42.2441 72.1496C41.9819 73.5065 41.5812 74.8328 41.0484 76.1077C40.953 76.3519 40.8549 76.5961 40.7568 76.8403C40.6852 77.0182 40.6084 77.0766 40.4307 77.066C39.4935 77.0421 38.5601 77.1943 37.6788 77.5146C36.8579 77.7864 36.0868 78.1909 35.3962 78.7118C35.2132 78.8499 35.0436 78.8977 34.8898 78.6534C34.2483 77.6991 33.4784 76.838 32.6018 76.0944C32.3044 75.8102 31.9901 75.5443 31.6607 75.298C31.2338 74.9901 30.7938 74.7034 30.3828 74.3742C30.1177 74.1645 30.1177 74.0955 30.4146 73.9442C30.9895 73.6758 31.6019 73.4967 32.2307 73.4132C32.8027 73.2665 33.3934 73.2066 33.9831 73.2354Z" fill="#DD052C"/>
<path d="M23.4838 51.7039C22.8537 51.705 22.2324 51.8513 21.6678 52.1313C21.6678 52.1313 21.6678 52.1154 21.6492 52.1074H21.6651H21.6916C21.4027 52.2747 21.2197 52.5853 20.8777 52.6888C20.7081 52.7419 20.6338 52.933 20.5357 53.0764C20.4192 53.2488 20.248 53.3769 20.0498 53.44C19.8517 53.5031 19.6381 53.4975 19.4434 53.4241C18.9216 53.2596 18.4091 53.0664 17.9084 52.8454C17.5202 52.6442 17.1754 52.3683 16.8938 52.0335C16.6122 51.6987 16.3994 51.3116 16.2674 50.8943C15.9094 49.8324 16.4423 48.9564 16.7737 48.0459C17.0208 47.4064 17.3132 46.7854 17.6486 46.1877C18.0147 45.5211 18.4304 44.8831 18.892 44.279C19.1863 43.8914 19.47 43.4826 19.7881 43.1242C20.2367 42.5709 20.7221 42.0485 21.2409 41.5607C21.5299 41.2952 21.8056 40.9979 22.0973 40.7324C22.4486 40.3886 22.9033 40.1703 23.391 40.1112C23.8073 40.0741 24.2129 39.9228 24.6397 39.9865C25.3249 40.0477 26.0051 40.155 26.6758 40.3077C27.2723 40.4802 27.8821 40.6289 28.4601 40.8386C29.038 41.0483 29.5868 41.2554 30.1329 41.5261C30.6234 41.7704 31.1589 41.9297 31.6441 42.211C31.8668 42.3411 31.8562 42.4765 31.7263 42.6358C31.426 43.0307 31.1057 43.4099 30.7666 43.772C30.0216 44.5683 29.3243 45.3886 28.6456 46.2434C27.9139 47.1805 27.1636 48.1016 26.4346 49.0387C26.0528 49.5298 25.7267 50.066 25.3158 50.5333C25.0507 50.8465 24.8942 51.2633 24.4833 51.4863C24.1723 51.6379 23.8296 51.7125 23.4838 51.7039Z" fill="white"/>
<path d="M30.9471 57.3157C29.7556 57.3144 28.5758 57.08 27.4741 56.6255C26.7228 56.2773 26.0757 55.7383 25.597 55.062C25.364 54.7241 25.0434 54.4561 24.6697 54.2868C24.2961 54.1175 23.8835 54.0533 23.4761 54.101C23.4463 54.0959 23.4158 54.0959 23.386 54.101C23.2239 54.1526 23.0772 54.2438 22.9591 54.3665C23.0915 54.4079 23.2326 54.4125 23.3674 54.3797C24.1336 54.3532 24.5896 54.8151 24.9581 55.3991C25.0403 55.5292 25.027 55.6301 24.8521 55.707C24.0198 56.0746 23.1024 56.2051 22.2009 56.084C21.8171 56.0297 21.459 55.8592 21.1747 55.5954C20.8904 55.3316 20.6934 54.9871 20.6102 54.608C20.4856 54.0346 20.9204 53.2144 21.5567 52.8586C22.5525 52.3109 23.7122 52.1412 24.8229 52.3808C25.3454 52.4947 25.8501 52.6787 26.3235 52.9277C26.4057 52.9675 26.5011 53.0445 26.57 52.9701C26.639 52.8958 26.5117 52.8533 26.4799 52.7949C26.3659 52.5666 26.5541 52.5719 26.6867 52.5454C27.2169 52.4366 27.7471 52.4206 28.2774 52.2799C29.3545 52.0125 30.3914 51.6027 31.3607 51.0615C32.5484 50.4005 33.4577 49.4289 34.3088 48.4069C34.4016 48.2954 34.4599 48.2609 34.5739 48.306C35.4832 48.6458 36.4589 48.6803 37.3921 48.9033C37.5119 48.9315 37.6349 48.944 37.7579 48.9404C37.9753 48.9366 38.1906 48.9844 38.386 49.0799C38.5813 49.1754 38.7514 49.3159 38.882 49.4899C39.566 50.2863 40.0088 51.1889 39.9266 52.2852C39.8618 53.0278 39.5324 53.7222 38.9987 54.2417C38.156 55.0658 37.1548 55.7098 36.0559 56.1344C34.9712 56.5964 33.8301 56.9124 32.6624 57.0742C32.0341 57.1857 31.4004 57.3901 30.9471 57.3157Z" fill="#CEB48D"/>
<path d="M57.493 69.7022C57.1139 69.7685 56.7136 69.6305 56.3106 69.5641C56.1038 69.5323 56.0455 69.5801 56.0614 69.7606C56.0614 70.0446 56.1728 70.3605 55.7751 70.5012C55.5003 70.5969 55.2004 70.5912 54.9294 70.4853C54.0774 70.185 53.3225 69.6594 52.7448 68.9642C52.6255 68.8288 52.5009 68.866 52.3577 68.9111C51.5014 69.1898 50.6079 69.219 49.7251 69.2987C49.6191 69.2987 49.4732 69.3597 49.4017 69.2111C49.3301 69.0624 49.4918 69.004 49.5634 68.9297C50.2747 68.2258 50.8722 67.4153 51.3344 66.5273C51.9045 65.452 52.2107 64.2563 52.2278 63.0391C52.2278 62.4153 52.2835 62.3834 52.8217 62.7179C53.3599 63.0524 53.9378 63.4479 54.4972 63.8142C54.5608 63.8567 54.6165 63.9523 54.7014 63.878C54.7862 63.8036 54.7279 63.7373 54.7014 63.6789C54.476 63.3019 54.7014 63.0869 54.9665 62.8612C55.7563 62.1678 56.4969 61.42 57.1828 60.6234C57.2696 60.4921 57.3837 60.3812 57.5174 60.2983C57.651 60.2154 57.801 60.1624 57.957 60.1429C58.0445 60.1276 58.1343 60.1326 58.2196 60.1574C58.3048 60.1823 58.3833 60.2265 58.4488 60.2865C58.5144 60.3465 58.5653 60.4207 58.5977 60.5035C58.6301 60.5863 58.6431 60.6755 58.6357 60.7641C58.5976 61.4006 58.3868 62.0146 58.0259 62.54C57.8404 62.8274 57.6875 63.1346 57.5699 63.4559C57.4453 63.7904 57.5911 63.9603 57.8536 64.0877C58.7364 64.5283 59.6325 64.9504 60.5048 65.415C60.7693 65.5277 60.9886 65.7258 61.1278 65.9778C61.1813 66.0706 61.2095 66.1759 61.2095 66.283C61.2095 66.3902 61.1813 66.4955 61.1278 66.5883C60.9422 66.9069 60.8149 67.2706 60.4782 67.4776C60.3912 67.5449 60.2833 67.5797 60.1734 67.5758C59.8499 67.5546 59.5238 67.5758 59.2004 67.5758C58.9353 67.5758 58.8531 67.7245 58.9512 67.9501C59.0758 68.2448 59.2402 68.5448 59.0546 68.85C58.8021 69.2135 58.4607 69.506 58.063 69.6995C57.9172 69.7659 57.7078 69.7022 57.493 69.7022Z" fill="white"/>
<path d="M25.451 52.0728C25.3395 52.087 25.2263 52.0697 25.1242 52.0228C25.022 51.9759 24.935 51.9012 24.8731 51.8074C24.7564 51.6003 24.8518 51.3959 25.0109 51.2048C25.6923 50.3765 26.3365 49.5138 27.0337 48.7015C27.4182 48.2528 27.7708 47.775 28.1923 47.3529C28.5502 46.9919 28.8471 46.5565 29.1891 46.1929C29.4092 45.9513 29.6637 45.7416 29.9023 45.5133C30.1011 45.3275 30.2125 45.0753 30.4113 44.8788C31.151 44.1515 31.8456 43.3816 32.6091 42.6755C32.8743 42.4233 33.1394 42.1154 33.4045 41.8605C33.8658 41.4438 34.3244 41.0217 34.8017 40.6208C35.1755 40.3049 35.5413 39.9758 35.9284 39.6758C36.5495 39.1579 37.2139 38.6943 37.9141 38.2901C38.3324 38.0252 38.7765 37.8037 39.2397 37.6291C39.323 37.5912 39.4133 37.5713 39.5048 37.5707C39.5435 37.5829 39.5801 37.6008 39.6135 37.6238C39.5926 37.6553 39.5686 37.6846 39.5419 37.7114C39.3139 37.9291 39.0833 38.1388 38.8579 38.3564C38.3889 38.8155 37.9629 39.3166 37.5854 39.8536C36.5436 41.3953 35.7059 43.0657 35.0933 44.8231C34.8191 45.6348 34.425 46.4007 33.9241 47.0954C33.2142 48.0748 32.3481 48.9304 31.3604 49.6279C30.3606 50.3182 29.2863 50.8934 28.1578 51.3428C27.2671 51.6985 26.3444 51.8445 25.451 52.0728Z" fill="white"/>
<path d="M38.5793 44.1197C39.4198 44.1436 40.1435 44.2153 40.7957 44.5577C41.5911 44.9798 42.1372 45.5983 41.9277 46.5752C41.819 47.0796 41.4293 47.3875 41.0184 47.6371C40.1211 48.1179 39.1198 48.3712 38.1021 48.3751C37.1977 48.426 36.2909 48.3364 35.4138 48.1096C35.2343 48.08 35.0571 48.0374 34.8836 47.9822C34.6954 47.8999 34.5946 47.7725 34.7961 47.5627C34.9603 47.3446 35.0851 47.0993 35.1646 46.838C35.4156 46.2732 35.6024 45.682 35.7214 45.0754C35.8089 44.6029 36.2251 44.5445 36.5565 44.4277C37.211 44.2217 37.8933 44.1178 38.5793 44.1197Z" fill="#CEB48D"/>
<path d="M40.9526 38.2981C40.9059 38.4937 40.8375 38.6833 40.7484 38.8635C40.6844 39.0681 40.6101 39.2692 40.5257 39.4661C40.0081 40.6793 39.3477 41.8262 38.5586 42.8826C38.4033 43.0968 38.1699 43.2409 37.909 43.2835C37.4716 43.3472 37.1137 43.5888 36.716 43.7321C36.6312 43.7613 36.549 43.833 36.4695 43.7587C36.3899 43.6843 36.4244 43.5861 36.4695 43.4932C36.7134 43.0074 36.8565 42.4818 37.1031 41.996C37.4905 41.1581 37.9463 40.3537 38.4658 39.5909C38.9528 38.9007 39.5534 38.2983 40.2421 37.8097C40.3138 37.7586 40.3961 37.7244 40.4829 37.7097C40.5697 37.695 40.6586 37.7001 40.7431 37.7247C40.9261 37.8282 40.9632 38.0698 40.9526 38.2981Z" fill="#DD052C"/>
<path d="M50.1063 66.7661C49.7908 66.6917 49.4621 66.5882 49.1174 66.5378C48.9053 66.5086 48.9451 66.2723 49.0034 66.0998C49.2129 65.5104 49.4886 64.945 49.6477 64.3344C49.698 64.1407 49.8518 64.1221 50.0109 64.1619C50.3304 64.2613 50.6564 64.3385 50.9865 64.3929C51.1244 64.4061 51.188 64.4911 51.1456 64.6583C50.9394 65.335 50.6806 65.9945 50.3714 66.6307C50.3458 66.6772 50.3069 66.715 50.2596 66.7391C50.2124 66.7633 50.159 66.7727 50.1063 66.7661Z" fill="#CEB48D"/>
<path d="M16.3362 45.1072C16.4381 44.318 16.8409 43.5989 17.4603 43.1003C17.718 42.851 18.0547 42.6998 18.412 42.6729C18.4836 42.6729 18.5632 42.6517 18.6109 42.726C18.6586 42.8003 18.5738 42.8508 18.5367 42.9039C17.9778 43.6914 17.4601 44.5075 16.9857 45.3488C16.9194 45.4788 16.7895 45.5532 16.7206 45.6859C16.6517 45.8186 16.535 45.7257 16.4714 45.6222C16.3789 45.4667 16.3321 45.2882 16.3362 45.1072Z" fill="white"/>
<path d="M31.0531 58.712C30.613 58.8288 30.3399 58.4306 29.9926 58.2023C29.9051 58.1439 29.7036 58.1333 29.7514 57.982C29.7991 57.8307 29.9687 57.9024 30.0774 57.9263C31.1514 58.1125 32.2488 58.1196 33.3251 57.9475C33.5187 57.9236 33.8341 57.8042 33.8819 57.9794C33.9296 58.1546 33.5982 58.128 33.4418 58.1731C32.6809 58.4014 31.928 58.6828 31.0531 58.712Z" fill="#CEB48D"/>
<path d="M16.3149 56.1636C16.3096 56.1458 16.3005 56.1294 16.2881 56.1157C16.2757 56.1019 16.2604 56.0911 16.2433 56.0839C16.1796 56.0627 16.1108 56.0627 16.0471 56.0839C14.4564 56.4742 12.8896 58.0961 12.1261 59.5004C11.8504 59.9251 11.6955 60.417 11.678 60.9233C11.617 61.6798 12.4336 62.1922 13.2157 61.9851C13.8122 61.8338 14.1356 61.4011 14.4299 60.91C14.5894 60.5557 14.7172 60.1879 14.8117 59.811L15.3419 58.3881C15.4109 58.197 15.5116 58.0271 15.5911 57.8413C15.6327 57.6503 15.6922 57.4636 15.7688 57.2838C15.7926 57.252 15.7396 57.1989 15.6998 57.2201C15.0291 57.6289 14.6208 58.4917 14.2735 59.2031C14.1012 59.5562 13.4066 61.1781 12.8048 60.7773C12.7399 60.7278 12.688 60.6633 12.6533 60.5893C12.6187 60.5154 12.6025 60.4341 12.6059 60.3525C12.6059 59.5084 13.4225 58.6562 13.9501 58.0749C14.6248 57.3648 15.4013 56.7591 16.2539 56.2777C16.2744 56.2674 16.2924 56.2529 16.3069 56.2352C16.3136 56.2247 16.3178 56.2127 16.3192 56.2003C16.3206 56.1879 16.3191 56.1753 16.3149 56.1636Z" fill="#000B0D"/>
<path d="M100.37 44.2709L45.3721 43.3019L45.6663 33.8701L102.725 32.9011L100.37 44.2709Z" fill="white"/>
<path d="M100.919 44.9557C91.6153 44.7787 82.3274 44.569 73.0554 44.3265L45.3667 43.5673H45.1016V43.3019L45.3958 33.87V33.6046H45.6477L102.706 32.6356H103.022L102.971 32.9621C102.672 34.9027 102.361 36.883 102.019 38.8899C101.677 40.8968 101.319 42.9249 100.919 44.9557ZM99.8242 43.5859C100.206 41.8286 100.62 40.0712 101.062 38.2767C101.505 36.4822 101.98 34.685 102.465 32.8374L102.73 33.1559L45.6689 34.1249L45.934 33.8594L45.6424 43.2886L45.3773 43.0231L72.6843 43.2328C81.7565 43.3302 90.8032 43.4479 99.8242 43.5859Z" fill="black"/>
<path d="M55.144 40.5598L54.9744 40.6925C54.4786 41.0816 53.865 41.2895 53.2352 41.2819C52.8797 41.2835 52.527 41.2178 52.1959 41.0881C51.8698 40.9599 51.5711 40.7707 51.3158 40.5306C51.0538 40.2836 50.8437 39.9867 50.698 39.6572C50.5565 39.3314 50.4834 38.9799 50.4834 38.6246C50.4834 38.2693 50.5565 37.9178 50.698 37.5919C50.8446 37.2653 51.0546 36.9711 51.3158 36.7265C51.568 36.4804 51.8674 36.2881 52.1959 36.1611C52.527 36.0314 52.8797 35.9656 53.2352 35.9673C53.862 35.9607 54.4724 36.1676 54.9664 36.554L55.1361 36.6814L54.7198 37.9317L54.3858 37.6185C54.2323 37.4757 54.0521 37.3648 53.8556 37.292C53.6547 37.2168 53.4417 37.179 53.2272 37.1805C53.0125 37.1784 52.7993 37.2171 52.5989 37.2946C52.4026 37.3703 52.2226 37.4829 52.0687 37.6265C51.9279 37.7516 51.8154 37.9054 51.7386 38.0775C51.6618 38.2496 51.6225 38.4361 51.6233 38.6246C51.6233 38.8076 51.6622 38.9886 51.7373 39.1555C51.8161 39.3292 51.9288 39.4853 52.0687 39.6148C52.2228 39.7574 52.4028 39.8692 52.5989 39.9439C52.7991 40.0224 53.0123 40.062 53.2272 40.0607C53.443 40.0615 53.657 40.0219 53.8582 39.9439C54.0546 39.8696 54.2346 39.7578 54.3885 39.6148L54.7225 39.3015L55.144 40.5598Z" fill="black"/>
<path d="M60.0831 37.2919C60.0433 37.2919 60.0221 37.3104 60.0221 37.3503V38.3404C60.0221 38.3856 60.0433 38.4068 60.0831 38.4068H62.4983V39.5908H60.0831C60.0433 39.5908 60.0221 39.6147 60.0221 39.6571V40.0447C60.0213 40.0529 60.0223 40.0612 60.0251 40.069C60.0279 40.0768 60.0323 40.0839 60.0382 40.0897C60.044 40.0956 60.0511 40.1 60.0588 40.1028C60.0666 40.1056 60.0749 40.1066 60.0831 40.1058H63.071V41.295H58.8291V36.0867H63.071V37.2919H60.0831Z" fill="black"/>
<path d="M69.3361 36.1027C69.6397 36.1012 69.9403 36.1627 70.219 36.2832C70.7616 36.5108 71.1943 36.9412 71.4252 37.4831C71.5456 37.7621 71.607 38.0631 71.6055 38.3671C71.6043 38.6477 71.5484 38.9254 71.4411 39.1847C71.3342 39.4505 71.1807 39.695 70.9878 39.9068C70.7799 40.1387 70.5251 40.3238 70.2404 40.4497C69.9556 40.5755 69.6474 40.6393 69.3361 40.6368H68.0105V41.3057H66.8281V36.1027H69.3361ZM69.3361 39.4448C69.4799 39.4461 69.6224 39.4181 69.755 39.3626C69.8833 39.3102 70.0003 39.2336 70.0997 39.1369C70.1994 39.0389 70.2795 38.9226 70.3356 38.7945C70.3919 38.6609 70.4207 38.5174 70.4204 38.3724C70.4209 38.2283 70.392 38.0856 70.3356 37.953C70.2795 37.8253 70.2014 37.7085 70.105 37.6079C70.0071 37.508 69.891 37.4278 69.763 37.3716C69.6296 37.3152 69.4862 37.2864 69.3414 37.2866H68.1007C68.0896 37.2854 68.0783 37.2866 68.0678 37.2903C68.0572 37.294 68.0477 37.3 68.0398 37.3079C68.0319 37.3158 68.0258 37.3254 68.0222 37.336C68.0185 37.3466 68.0172 37.3578 68.0185 37.3689V39.3705C68.0185 39.421 68.0477 39.4448 68.1007 39.4448H69.3361Z" fill="black"/>
<path d="M79.1719 38.6697C79.299 38.8111 79.3988 38.9749 79.4662 39.1528C79.5328 39.3311 79.5669 39.5199 79.5669 39.7103C79.5679 39.9211 79.5255 40.1299 79.4423 40.3235C79.2847 40.7045 78.9824 41.0072 78.6019 41.165C78.4085 41.2483 78.2 41.2908 77.9895 41.2898H75.2031V36.1027H77.9895C78.2043 36.1015 78.4172 36.144 78.6152 36.2275C78.8059 36.3086 78.9775 36.4289 79.1189 36.5805C79.2501 36.7264 79.3526 36.8957 79.4211 37.0796C79.4929 37.2723 79.5289 37.4765 79.5272 37.6822C79.5314 38.0434 79.4052 38.3941 79.1719 38.6697ZM76.3829 38.0273C76.3829 38.0724 76.4094 38.0963 76.4571 38.0963H77.9444C77.9948 38.0946 78.0442 38.0827 78.0898 38.0612C78.1354 38.0398 78.1761 38.0092 78.2095 37.9715C78.2482 37.9336 78.2788 37.8881 78.2993 37.8379C78.3198 37.7876 78.3299 37.7338 78.3288 37.6795C78.3327 37.6265 78.3247 37.5732 78.3055 37.5236C78.2862 37.474 78.2561 37.4293 78.2175 37.3928C78.1803 37.3555 78.136 37.326 78.0874 37.3059C78.0387 37.2859 77.9865 37.2757 77.9338 37.276H76.4465C76.3988 37.276 76.3723 37.2999 76.3723 37.345L76.3829 38.0273ZM76.3829 40.0395C76.3829 40.0819 76.4094 40.1058 76.4571 40.1058H77.9815C78.0342 40.1061 78.0864 40.096 78.1351 40.0759C78.1838 40.0559 78.228 40.0263 78.2652 39.989C78.304 39.9523 78.3347 39.9078 78.3553 39.8584C78.3758 39.809 78.3858 39.7558 78.3845 39.7023C78.3809 39.5928 78.3365 39.4886 78.2599 39.4103C78.2269 39.3721 78.1862 39.3413 78.1406 39.3198C78.0949 39.2983 78.0452 39.2866 77.9948 39.2856H76.4624C76.4147 39.2856 76.3882 39.3095 76.3882 39.3546L76.3829 40.0395Z" fill="black"/>
<path d="M84.5453 36.0867V38.8103C84.5453 38.8103 84.5453 38.8262 84.5453 38.8289C84.5453 38.8315 84.5453 38.8289 84.5612 38.8289L86.4037 36.0973H87.4881V41.3136H86.3004V38.4227C86.3004 38.4227 86.3004 38.4068 86.3004 38.4041C86.3004 38.4015 86.3004 38.4041 86.2844 38.4041L84.4286 41.2924H83.3682V36.0867H84.5453Z" fill="black"/>
<path d="M95.8452 40.5598L95.6756 40.6925C95.1798 41.0816 94.5662 41.2895 93.9364 41.2819C93.5809 41.2835 93.2282 41.2178 92.8971 41.0881C92.571 40.9599 92.2723 40.7707 92.0169 40.5306C91.7549 40.2836 91.5449 39.9867 91.3992 39.6572C91.2576 39.3314 91.1846 38.9799 91.1846 38.6246C91.1846 38.2693 91.2576 37.9178 91.3992 37.5919C91.5458 37.2653 91.7557 36.9711 92.0169 36.7265C92.2692 36.4804 92.5686 36.2881 92.8971 36.1611C93.2282 36.0314 93.5809 35.9656 93.9364 35.9673C94.5632 35.9607 95.1736 36.1676 95.6676 36.554L95.8373 36.6814L95.421 37.9317L95.087 37.6185C94.9334 37.4757 94.7533 37.3648 94.5568 37.292C94.3568 37.2166 94.1447 37.1788 93.9311 37.1805C93.7163 37.1781 93.503 37.2168 93.3028 37.2946C93.1065 37.3703 92.9265 37.4829 92.7725 37.6265C92.6318 37.7516 92.5192 37.9054 92.4424 38.0775C92.3656 38.2496 92.3263 38.4361 92.3271 38.6246C92.3272 38.8076 92.366 38.9886 92.4411 39.1555C92.5199 39.3292 92.6326 39.4853 92.7725 39.6148C92.9266 39.7574 93.1066 39.8692 93.3028 39.9439C93.5028 40.0226 93.7161 40.0623 93.9311 40.0607C94.1468 40.0615 94.3608 40.0219 94.5621 39.9439C94.7584 39.8696 94.9385 39.7578 95.0923 39.6148L95.4263 39.3015L95.8452 40.5598Z" fill="black"/>
<path d="M15.5255 17.8363C15.014 18.7061 14.4229 19.5263 13.7598 20.2866L12.4342 21.9324L11.6654 23.2757C12.5751 25.2315 13.6952 27.0821 15.0059 28.7946C15.0324 29.5432 14.3934 30.2352 13.0891 30.8705C11.7847 31.5058 11.0203 31.666 10.7958 31.351L8.54762 27.7726L6.36306 29.9679C4.49841 31.9908 3.32837 32.8969 2.85292 32.6863C2.39536 32.7245 1.93971 32.5932 1.57241 32.3173C1.27018 32.0607 0.935249 31.7465 0.567621 31.3749C0.0833425 30.6511 0.682505 29.4122 2.36511 27.6584L5.83283 23.2332C5.34855 22.5005 4.79092 21.7218 4.15995 20.8971C3.12352 19.8151 2.17576 18.6512 1.32585 17.4169C1.13979 17.1996 1.02478 16.9304 0.996334 16.6456C0.96789 16.3607 1.02738 16.074 1.16678 15.8241C1.355 15.4455 1.61422 15.1066 1.93032 14.826C2.24595 14.5554 2.58586 14.3146 2.94571 14.1066C3.44943 13.9526 3.96641 14.1066 4.49134 14.5818C5.20045 15.2516 5.85227 15.9798 6.43995 16.7586C7.06032 17.4842 7.75139 18.2098 8.51315 18.9354C9.81222 16.9886 10.8586 15.4383 11.6521 14.2845C12.269 13.9093 12.9574 13.9827 13.7174 14.5048C14.4774 15.0269 15.1844 15.5578 15.8383 16.0976C16.1423 16.609 16.038 17.1886 15.5255 17.8363Z" fill="#DD052C"/>
<path d="M3.00899 33.1189C2.93254 33.1192 2.8565 33.1076 2.78364 33.0844C2.25781 33.1087 1.74062 32.9439 1.3255 32.6198C1.01797 32.3544 0.670666 32.0332 0.294201 31.6562L0.235875 31.5898C-0.379194 30.6687 0.20141 29.3361 2.06253 27.3955L5.33406 23.2145C4.89662 22.5668 4.3982 21.8872 3.84676 21.1545C2.80391 20.0612 1.84915 18.8868 0.991457 17.6425C0.76565 17.3694 0.626358 17.0351 0.591408 16.6823C0.556459 16.3295 0.627441 15.9743 0.795271 15.6621C1.00587 15.2361 1.29663 14.8549 1.6516 14.5392C1.98543 14.2536 2.34486 13.9995 2.72532 13.78L2.81015 13.7402C3.45439 13.5438 4.10392 13.7402 4.73755 14.3003C5.46406 14.9855 6.13184 15.7305 6.73387 16.5276C7.24025 17.1169 7.81025 17.7248 8.42797 18.3327C9.61304 16.5568 10.5807 15.1312 11.3177 14.0694L11.3655 14.0004L11.4397 13.9552C11.9699 13.6393 12.8183 13.4243 13.9344 14.1888C14.7006 14.7198 15.4297 15.2507 16.0978 15.8135L16.1508 15.8586L16.1853 15.917C16.4504 16.3656 16.6068 17.1009 15.8565 18.0699C15.3313 18.948 14.727 19.7761 14.0511 20.544L12.7467 22.158L12.1157 23.2915C12.9965 25.1532 14.0709 26.9168 15.321 28.553L15.3979 28.6538V28.7813C15.4297 29.6971 14.7112 30.52 13.2557 31.2288C11.665 32.0013 10.8352 32.1075 10.4641 31.5819L8.48364 28.4043L6.64639 30.2625C4.5069 32.572 3.55778 33.1189 3.00899 33.1189ZM2.93211 32.288L3.01164 32.3225C3.05936 32.3225 3.65057 32.3225 6.07108 29.6971L8.6162 27.138L11.1083 31.104C11.1825 31.1226 11.5749 31.1651 12.9137 30.5121C13.6587 30.151 14.5336 29.5883 14.6025 28.9193C13.3137 27.2156 12.2091 25.3799 11.3071 23.4428L11.2196 23.257L12.1184 21.6828L13.444 20.0343C14.0924 19.2929 14.671 18.4931 15.1725 17.6451L15.2043 17.5974C15.6975 16.9735 15.6391 16.6045 15.5251 16.3762C14.8915 15.8453 14.1995 15.3409 13.4784 14.8419C12.7255 14.3056 12.2297 14.4198 11.9302 14.6003C11.1348 15.7205 10.0982 17.2549 8.8336 19.1583L8.56848 19.5538L8.21853 19.2246C7.45234 18.492 6.74713 17.7513 6.1188 17.0213C5.54244 16.2567 4.90399 15.5411 4.20997 14.8817C3.8176 14.5207 3.44643 14.3879 3.09383 14.4782C2.77114 14.6697 2.46517 14.8882 2.17918 15.1312C1.90296 15.3785 1.67702 15.6769 1.51374 16.0099C1.40944 16.1918 1.36484 16.4019 1.38625 16.6105C1.40766 16.8191 1.49398 17.0158 1.63304 17.1726L1.65425 17.2018C2.491 18.4177 3.4246 19.5638 4.44592 20.6289L4.46713 20.6555C5.10076 21.4837 5.66811 22.2774 6.15592 23.0128L6.31499 23.2517L2.65108 27.9371C0.705131 29.9599 0.691875 30.7988 0.880108 31.1226C1.22741 31.473 1.5482 31.7703 1.82922 32.0093C2.12444 32.2179 2.48522 32.3122 2.84462 32.2747L2.93211 32.288Z" fill="black"/>
<path d="M26.7366 23.0049C25.3246 22.8922 23.9057 22.8984 22.4947 23.0235C22.5212 23.7137 22.5583 24.726 22.6061 26.0603C22.6709 27.2979 22.5348 28.5378 22.2031 29.7317C21.8832 30.836 21.2009 31.4236 20.1564 31.4943C19.2776 31.5882 18.3894 31.4547 17.5768 31.1068C16.8981 30.7802 16.6065 30.398 16.6966 29.9573C16.7676 29.5645 16.9183 29.1905 17.1394 28.8583C17.3021 28.6165 17.4985 28.3993 17.7226 28.2132C17.9055 28.0699 18.1495 28.1203 18.4596 28.3619C18.7138 28.5823 19.0334 28.7129 19.369 28.7335C19.6659 28.7335 19.8807 28.4867 20.0079 27.9717C20.151 27.3139 20.1983 26.6388 20.1484 25.9674C20.1078 25.1498 20.0123 23.9349 19.8621 22.3226C19.7119 20.7104 19.7446 19.7547 19.9602 19.4557C20.1776 19.1557 21.2407 18.9805 23.1575 18.9247C25.0743 18.869 26.323 18.8557 26.9142 18.8823C27.5054 18.9088 28.0542 18.9566 28.5606 19.023C29.0669 19.0893 29.401 19.4557 29.5627 20.1167C29.7582 21.0686 29.8532 22.0384 29.8464 23.0102C29.8729 24.2791 29.9409 25.4728 30.0505 26.5913C30.1601 27.7097 30.214 28.7318 30.2122 29.6573C30.2122 30.5776 29.9904 31.0953 29.5468 31.2103C29.1412 31.318 28.723 31.3707 28.3034 31.3669C28.1411 31.3779 27.9788 31.3444 27.834 31.2701C27.6892 31.1957 27.5674 31.0833 27.4816 30.9448C27.3198 30.6794 27.1634 29.8352 27.0123 28.4309C26.8612 27.0266 26.7763 25.2188 26.7366 23.0049Z" fill="#DD052C"/>
<path d="M19.6341 31.9004C18.867 31.9221 18.105 31.7706 17.4044 31.4571C16.344 30.9421 16.2167 30.3103 16.3069 29.8643C16.3887 29.4177 16.562 28.9929 16.8159 28.6167C16.9994 28.3409 17.2227 28.094 17.4787 27.884C17.6722 27.7327 18.0884 27.5548 18.7035 28.0353C18.891 28.2014 19.1274 28.302 19.3769 28.322C19.4405 28.322 19.5439 28.1786 19.6235 27.8601C19.7525 27.2425 19.7936 26.6097 19.7454 25.9806C19.7056 25.1842 19.6102 23.9498 19.4617 22.3544C19.2496 20.09 19.4299 19.4954 19.6341 19.214C19.8382 18.9326 20.4453 18.5981 23.1389 18.5211C25.0822 18.4681 26.3203 18.4521 26.9274 18.4787C27.5345 18.5052 28.0939 18.5557 28.6083 18.6247C29.0749 18.6857 29.6873 18.9804 29.9338 20.0157C30.136 20.9963 30.2346 21.9955 30.2281 22.9968C30.2546 24.2445 30.3209 25.4391 30.4296 26.5487C30.5361 27.5797 30.591 28.6154 30.594 29.6519C30.594 30.7749 30.2652 31.4279 29.629 31.5898C29.1891 31.7083 28.735 31.7655 28.2795 31.7597C28.0486 31.7712 27.8189 31.7198 27.6148 31.6108C27.4108 31.5019 27.2401 31.3396 27.1209 31.1412C26.9884 30.9182 26.8108 30.4112 26.5907 28.468C26.4476 27.1407 26.3574 25.4258 26.3256 23.3764C25.1833 23.3 24.0373 23.3 22.895 23.3764C22.9215 24.0401 22.9542 24.925 22.9931 26.0311C23.0547 27.3085 22.9105 28.5876 22.5663 29.8192C22.2004 31.0801 21.3679 31.7863 20.1643 31.8659C19.9946 31.8951 19.8117 31.9004 19.6341 31.9004ZM17.9506 28.5237C17.7657 28.688 17.6027 28.8754 17.4654 29.0812C17.2758 29.3679 17.1468 29.6904 17.0863 30.0289C17.0386 30.2652 17.2613 30.5041 17.7491 30.7403C18.5016 31.0589 19.3232 31.1786 20.1351 31.0881C21.0127 31.0297 21.5509 30.5572 21.8266 29.6121C22.1451 28.4621 22.2767 27.2681 22.2163 26.0762C22.1686 24.7489 22.1315 23.7268 22.1049 23.0393V22.6677L22.4735 22.6278C23.9038 22.5022 25.3421 22.4951 26.7736 22.6066L27.1422 22.6305V22.9995C27.1713 25.1895 27.2615 27.0026 27.4073 28.3884C27.6035 30.2121 27.7625 30.6421 27.8235 30.743C27.8845 30.8439 27.9932 30.9633 28.3113 30.9686C28.6953 30.9717 29.0779 30.9226 29.4487 30.8226C29.6793 30.7642 29.8119 30.3395 29.8145 29.6546C29.8145 28.752 29.7615 27.7327 29.6528 26.631C29.5441 25.5293 29.4752 24.287 29.4487 23.0181C29.456 22.0762 29.3671 21.136 29.1836 20.2121C29.0218 19.5591 28.7223 19.4476 28.5128 19.4158C28.0223 19.3494 27.4815 19.3043 26.9036 19.2777C26.3256 19.2512 25.0689 19.2777 23.1734 19.3202C20.7316 19.3919 20.334 19.6467 20.2783 19.6971C20.2226 19.7476 20.0636 20.1325 20.2783 22.2827C20.4268 23.8755 20.5249 25.1232 20.5646 25.9435C20.6171 26.6547 20.568 27.3698 20.4188 28.0671C20.1988 28.9432 19.7481 29.129 19.4034 29.129H19.353C18.9332 29.1044 18.5329 28.9431 18.213 28.6697C18.0275 28.5264 17.9506 28.5237 17.9506 28.5237Z" fill="black"/>
<path d="M42.3995 31.8977C41.6925 32.4038 41.0315 32.1251 40.4165 31.0615C39.5716 31.6632 38.8381 31.9605 38.216 31.9534C37.4634 31.924 36.7177 31.7982 35.997 31.5791C35.0069 31.2622 34.0958 30.7372 33.3246 30.0395C32.4815 29.0944 32.0803 27.6662 32.121 25.7549C32.2055 24.0306 32.901 22.3929 34.0828 21.1359C34.6225 20.5287 35.2833 20.0416 36.0226 19.7059C36.7619 19.3703 37.5633 19.1937 38.3751 19.1874C39.1048 19.199 39.8253 19.3532 40.496 19.6413C40.9686 19.8275 41.3844 20.1341 41.7023 20.5306C41.9422 20.8331 42.1002 21.1924 42.1609 21.5739C42.2033 21.9137 42.2696 22.3809 42.3598 22.9755C42.4553 23.7415 42.4775 24.5148 42.426 25.285C42.3689 26.0326 42.4054 26.7844 42.5347 27.5229C42.6514 28.0538 42.776 28.5847 42.9032 29.0626C43.0432 29.5698 43.2586 30.053 43.5422 30.496C43.5461 30.7701 43.4521 31.0365 43.2771 31.2473C43.0086 31.4949 42.7144 31.7129 42.3995 31.8977ZM37.6592 21.9668C36.5988 22.4375 35.9201 22.9268 35.6232 23.4348C35.3262 23.9427 35.1168 24.7798 34.9948 25.946C34.8799 27.1088 35.1999 27.922 35.9545 28.3856C36.7092 28.8493 37.7839 28.8767 39.1784 28.4679C39.5181 28.1307 39.7364 27.6899 39.7987 27.2149C39.993 26.2523 40.1127 25.276 40.1566 24.2949C40.1653 23.8871 40.1306 23.4795 40.0532 23.079C39.938 22.7495 39.7146 22.4688 39.4196 22.2827C39.067 22.0039 38.4785 21.9031 37.6592 21.9668Z" fill="#DD052C"/>
<path d="M41.7318 32.5428C41.6425 32.5419 41.5536 32.5312 41.4667 32.5109C40.982 32.3734 40.5683 32.0552 40.3108 31.6217C39.5313 32.1207 38.8473 32.3623 38.2243 32.3517C37.4357 32.3222 36.6543 32.1911 35.8992 31.9614C34.8544 31.6292 33.8926 31.0771 33.0784 30.3421L33.0413 30.305C32.1319 29.2856 31.6918 27.7539 31.7342 25.747C31.8238 23.9249 32.5566 22.1939 33.8022 20.8625C34.3788 20.2171 35.0837 19.6994 35.8716 19.3424C36.6595 18.9854 37.5132 18.797 38.3781 18.7892C39.1629 18.8017 39.938 18.9657 40.6607 19.2724C41.2016 19.4853 41.677 19.8368 42.0393 20.2918C42.3193 20.6496 42.5019 21.074 42.5695 21.5235C42.6093 21.8606 42.6756 22.3199 42.7657 22.9172C42.8647 23.7095 42.8887 24.5095 42.8373 25.3063C42.7827 26.0157 42.8165 26.7291 42.9381 27.43C43.0521 27.9609 43.174 28.4759 43.3013 28.9511C43.4301 29.421 43.6294 29.8685 43.8925 30.2784L43.9614 30.3873V30.5173C43.9562 30.8866 43.8188 31.2417 43.5743 31.5181C43.2874 31.7862 42.9728 32.0229 42.6358 32.2242C42.3757 32.4235 42.0592 32.535 41.7318 32.5428ZM40.5414 30.4828L40.7615 30.8624C41.0557 31.3721 41.3553 31.6747 41.6257 31.7331C41.7224 31.7472 41.821 31.7402 41.9148 31.7127C42.0086 31.6852 42.0953 31.6379 42.1692 31.5739H42.1878C42.4728 31.4039 42.7394 31.2046 42.9831 30.9792C43.07 30.8705 43.1226 30.7384 43.1342 30.5996C42.8635 30.1557 42.6564 29.6758 42.5192 29.1741C42.3893 28.6856 42.2541 28.1627 42.1454 27.6158C42.0091 26.8442 41.9699 26.0585 42.0287 25.2771C42.0798 24.5335 42.0584 23.7867 41.9651 23.0472C41.8749 22.45 41.8087 21.9854 41.7662 21.6323C41.7146 21.3192 41.5831 21.0248 41.3845 20.7776C41.1019 20.4369 40.7368 20.1746 40.324 20.0157C39.7032 19.7504 39.037 19.608 38.3621 19.5962C37.6036 19.6003 36.8545 19.7645 36.1637 20.0784C35.473 20.3922 34.8562 20.8484 34.3536 21.4173C33.2372 22.6096 32.5796 24.1598 32.4978 25.7921C32.4607 27.5601 32.8265 28.9007 33.5848 29.774C34.3065 30.4267 35.1587 30.9181 36.0848 31.2155C36.7731 31.4276 37.4861 31.5489 38.2057 31.5765H38.2243C38.7545 31.5765 39.4067 31.3111 40.1702 30.7589L40.5414 30.4828ZM37.4369 29.1555C36.848 29.174 36.2657 29.0269 35.7561 28.7308C34.8626 28.1839 34.4755 27.2362 34.6055 25.9116C34.7274 24.6772 34.9475 23.8038 35.2815 23.2384C35.6155 22.6729 36.342 22.1155 37.5005 21.6084L37.5615 21.5819H37.6278C38.5557 21.5076 39.2185 21.6323 39.6665 21.9668C40.037 22.2035 40.3136 22.5621 40.4486 22.9809C40.5311 23.4121 40.5693 23.8506 40.5626 24.2896C40.5202 25.2994 40.3979 26.3042 40.1968 27.2946C40.1233 27.8526 39.8647 28.3696 39.4624 28.7626L39.3908 28.8317L39.298 28.8609C38.6942 29.0439 38.0677 29.1413 37.4369 29.1502V29.1555ZM37.7577 22.365C36.5912 22.8959 36.1378 23.3472 35.9655 23.6419C35.7004 24.0985 35.5068 24.8896 35.3982 25.9912C35.3001 26.9973 35.5519 27.6716 36.1723 28.0512C36.7927 28.4308 37.7497 28.4627 38.9746 28.1202C39.2161 27.8529 39.3689 27.5171 39.412 27.1592C39.6039 26.2124 39.7226 25.2521 39.7673 24.287C39.7766 23.9086 39.7455 23.5304 39.6745 23.1587C39.6533 23.0658 39.5605 22.872 39.1893 22.5933C39.0037 22.4526 38.6008 22.2986 37.7577 22.3597V22.365Z" fill="black"/>
<path d="M58.728 30.3421C58.1253 30.0271 57.6693 29.3493 57.36 28.3087C57.0507 27.2681 56.6866 26.2248 56.2678 25.1789C56.1484 25.4045 55.8913 25.9567 55.4963 26.83C55.2114 27.4854 54.8938 28.126 54.5445 28.7493C54.3265 29.1296 54.013 29.4462 53.6351 29.6678C53.2543 29.8811 52.8254 29.9935 52.3891 29.9943C52.1933 30.0131 51.996 29.9809 51.8162 29.9009C51.6365 29.8209 51.4804 29.6958 51.3631 29.5378C51.0018 28.9176 50.7093 28.2598 50.4909 27.576C50.1884 26.7053 49.804 25.8653 49.3429 25.0674C48.5811 27.6583 48.0924 29.2865 47.8768 29.9519C47.6594 30.6155 47.161 30.942 46.3763 30.9261C45.2866 30.9261 44.8068 30.5545 44.9314 29.8404C45.056 29.1263 45.4139 27.7459 45.9918 25.6965C46.5698 23.6472 46.9834 22.1659 47.1955 21.2421C47.4076 20.3183 47.6303 19.6891 47.8583 19.352C48.0003 19.1681 48.1795 19.0162 48.3842 18.9064C48.5888 18.7966 48.8144 18.7314 49.046 18.7149C49.5652 18.6253 50.0994 18.7191 50.5571 18.9804C51.0078 19.237 51.7245 20.774 52.7072 23.5914C53.2944 22.2434 53.9492 20.9259 54.6691 19.644C55.0226 19.083 55.6483 18.7556 56.5461 18.6618C57.2725 18.6618 57.7975 19.0069 58.1368 19.7236C58.5395 20.6683 58.8623 21.6451 59.1018 22.6437C59.4147 23.8648 59.7947 25.2948 60.2418 26.9336C60.6872 28.5768 60.7005 29.5457 60.2843 29.8537C59.8247 30.1659 59.2834 30.3358 58.728 30.3421Z" fill="#DD052C"/>
<path d="M46.43 31.3243H46.369C45.5896 31.3243 45.0646 31.1385 44.7783 30.7934C44.6667 30.6534 44.5883 30.4899 44.5488 30.3152C44.5093 30.1405 44.5098 29.9591 44.5503 29.7846C44.6802 29.0493 45.0355 27.6822 45.632 25.601C46.2179 23.5675 46.6209 22.0756 46.8303 21.1651C47.0556 20.1855 47.2916 19.5219 47.5541 19.1396C47.7262 18.9127 47.944 18.7246 48.1933 18.5874C48.4427 18.4502 48.7181 18.367 49.0016 18.3432C49.6086 18.2361 50.2338 18.344 50.7699 18.6485C51.1331 18.8556 51.6581 19.5033 52.7716 22.5535C53.244 21.4841 53.7705 20.4395 54.349 19.4237C54.7679 18.76 55.4996 18.3618 56.5176 18.2609H56.5548C56.9743 18.25 57.3868 18.3694 57.7358 18.6028C58.0847 18.8362 58.3529 19.1721 58.5034 19.5644C58.9138 20.5282 59.2436 21.5244 59.4896 22.5428C59.8024 23.7533 60.1842 25.1975 60.6269 26.8274C61.1386 28.7148 61.1068 29.7475 60.5209 30.1669C60.004 30.5271 59.3928 30.7274 58.7632 30.7429H58.6518L58.5564 30.6925C57.8618 30.3262 57.3342 29.5616 56.9922 28.4202C56.7722 27.6795 56.5203 26.9309 56.2419 26.1797C56.1359 26.408 56.0113 26.6787 55.8708 26.992C55.5807 27.6606 55.2559 28.3137 54.8978 28.9484C54.644 29.3898 54.2781 29.7561 53.8373 30.0103C53.3988 30.2583 52.904 30.389 52.4004 30.3899C52.1397 30.4092 51.8783 30.3618 51.6409 30.2522C51.4034 30.1426 51.1977 29.9744 51.043 29.7634C50.6605 29.1151 50.3519 28.4259 50.123 27.7087C49.9288 27.1667 49.7067 26.635 49.4576 26.116C48.8452 28.1919 48.4528 29.4926 48.2619 30.0819C48.071 30.6713 47.5991 31.3243 46.43 31.3243ZM49.4629 19.0812C49.3457 19.081 49.2287 19.0899 49.1129 19.1078C48.9367 19.1189 48.7646 19.1661 48.6072 19.2464C48.4499 19.3268 48.3107 19.4386 48.1983 19.575C48.0604 19.7794 47.843 20.2493 47.5938 21.3323C47.3817 22.2561 46.9735 23.7613 46.3876 25.808C45.8016 27.8547 45.4464 29.2139 45.3271 29.9094C45.2847 30.1536 45.3563 30.2439 45.3801 30.2731C45.457 30.366 45.6903 30.52 46.3823 30.5385C47 30.5545 47.342 30.3341 47.5037 29.8377C47.7158 29.1847 48.2089 27.5441 48.9671 24.9665L49.2323 24.0905L49.6989 24.8869C50.1721 25.707 50.5671 26.5701 50.8786 27.4645C51.3134 28.6591 51.5653 29.1396 51.7031 29.3227C51.7822 29.4283 51.8881 29.5106 52.0099 29.561C52.1316 29.6115 52.2647 29.6282 52.3951 29.6094C52.7655 29.6138 53.1308 29.5223 53.4556 29.344C53.7752 29.1571 54.0396 28.8887 54.2217 28.5662C54.4524 28.1759 54.7652 27.5441 55.1523 26.6867C55.5394 25.8293 55.8124 25.2452 55.9344 25.0143L56.3347 24.2498L56.6555 25.0461C57.0744 26.108 57.4509 27.1698 57.7584 28.2078C58.0235 29.0812 58.3841 29.6678 58.8401 29.9545C59.2773 29.9294 59.6992 29.7843 60.0596 29.5351C60.102 29.5059 60.444 29.1847 59.8661 27.0504C59.4207 25.4151 59.0389 23.9684 58.7234 22.7552C58.4896 21.7811 58.1748 20.8283 57.7822 19.9068C57.5171 19.3334 57.146 19.0679 56.5892 19.0706C55.823 19.1555 55.3114 19.4157 55.025 19.867C54.683 20.3979 54.0335 21.7252 53.095 23.764L52.6841 24.6612L52.358 23.7295C51.0324 19.9413 50.5022 19.4077 50.3855 19.3334C50.1061 19.1681 49.7875 19.081 49.4629 19.0812Z" fill="black"/>
<path d="M72.157 30.7113C68.6681 31.1201 66.123 30.5175 64.5217 28.9035C62.9204 27.2894 62.0738 25.2144 61.9819 22.6784C61.8596 20.2649 62.4836 17.8723 63.7687 15.8268C65.0519 13.7952 66.7363 12.6059 68.8219 12.259C70.9074 11.9122 72.6873 11.9343 74.1613 12.3254C75.6885 12.7569 77.0254 13.6924 77.9551 14.98C79.0156 16.3569 79.5697 18.2089 79.6174 20.5361C79.6861 22.76 79.3261 24.9764 78.5569 27.0638C77.7952 29.0884 75.6619 30.3042 72.157 30.7113ZM69.3786 17.1302C67.6218 17.4364 66.6886 18.7469 66.579 21.0617C66.4694 23.3765 67.0093 24.8092 68.1988 25.3595C69.255 25.882 70.4169 26.1545 71.595 26.1559C72.5726 26.1704 73.5223 25.8289 74.2673 25.195C74.9743 24.5773 75.4586 23.427 75.7202 21.744C75.9818 20.0609 75.4303 18.7956 74.0659 17.9479C72.6979 17.0966 71.1354 16.8241 69.3786 17.1302Z" fill="#DD052C"/>
<path d="M70.1761 31.2316C67.5833 31.2316 65.5896 30.5467 64.2375 29.1848C62.5699 27.5045 61.6791 25.3197 61.5863 22.6916C61.4666 20.198 62.1143 17.7276 63.4421 15.6144C64.781 13.4907 66.5732 12.2325 68.7657 11.8661C70.8999 11.5104 72.7424 11.5343 74.2722 11.9404C75.884 12.3948 77.2961 13.3795 78.2807 14.7358C79.3862 16.1746 79.9722 18.1204 80.0252 20.5255C80.0906 22.8006 79.7189 25.0671 78.9303 27.2018C78.1137 29.368 75.8549 30.682 72.2149 31.1068C71.5383 31.1888 70.8576 31.2305 70.1761 31.2316ZM71.5574 12.413C70.6624 12.4191 69.7695 12.499 68.8876 12.6519C66.9258 12.9784 65.3165 14.1172 64.1155 16.0392C62.8731 18.0213 62.2704 20.3385 62.3896 22.6757C62.4771 25.0994 63.291 27.1036 64.8128 28.638C66.3346 30.1724 68.7763 30.7219 72.1221 30.329C75.444 29.9414 77.4827 28.7999 78.1853 26.9337C78.9378 24.8966 79.2924 22.7337 79.2298 20.5626C79.1795 18.3328 78.6492 16.5436 77.6391 15.2534C76.7617 14.0364 75.4996 13.1516 74.0574 12.7421C73.2419 12.5239 72.4015 12.4133 71.5574 12.413ZM71.4699 26.5462C70.2743 26.5235 69.0981 26.24 68.0234 25.7153C66.6792 25.0941 66.0562 23.5199 66.1675 21.0378C66.2789 18.5558 67.3394 17.0745 69.2959 16.732C71.0003 16.3854 72.7725 16.6924 74.2615 17.5921C75.7727 18.5266 76.3825 19.9388 76.0988 21.7891C75.8178 23.5863 75.3035 24.7968 74.5081 25.4843C73.6952 26.1779 72.6598 26.5549 71.5918 26.5462H71.4699ZM70.7275 17.401C70.3025 17.4045 69.8785 17.4445 69.4603 17.5205C67.8961 17.7859 67.0901 18.9566 66.9894 21.0776C66.8887 23.1987 67.3553 24.5286 68.3786 24.9959C69.376 25.4849 70.4707 25.7426 71.5812 25.7498C72.4655 25.7686 73.326 25.4616 73.9991 24.887C74.6274 24.3349 75.0728 23.2518 75.3247 21.6696C75.5633 20.1432 75.0834 19.0336 73.8533 18.2744C72.9139 17.6957 71.8304 17.3948 70.7275 17.4063V17.401Z" fill="black"/>
<path d="M89.2623 24.0559C89.6539 24.4291 89.9936 24.8532 90.2724 25.3169C90.6471 25.8956 90.8194 26.7424 90.7894 27.8573C90.7593 28.9723 89.918 29.8076 88.2655 30.3633C86.8136 30.8897 85.2715 31.1207 83.7293 31.0429C82.3587 30.9394 81.6561 30.6978 81.6084 30.3208C81.5607 29.9439 81.513 28.2821 81.4361 25.3381C81.3592 22.3941 81.338 20.6049 81.3724 19.9678C81.4069 19.3307 81.4997 18.9431 81.6614 18.8024C81.9736 18.5991 82.325 18.4634 82.6927 18.4043C83.4633 18.2591 84.2475 18.2004 85.0311 18.229C86.17 18.2692 87.2786 18.6069 88.2469 19.2086C89.3604 19.8546 89.9313 20.7102 89.9596 21.7756C89.9878 22.841 89.7554 23.6011 89.2623 24.0559ZM86.2559 28.3033C87.9155 27.8396 88.5668 27.2441 88.2098 26.5168C87.8528 25.7894 87.3632 25.3726 86.7411 25.2664C86.1598 25.1638 85.5709 25.1105 84.9807 25.1072C84.4292 25.1072 84.1164 25.2107 84.0395 25.4231C83.9149 26.0634 83.8501 26.7139 83.846 27.3662C83.7912 28.4476 84.5945 28.759 86.2559 28.3007V28.3033ZM86.9876 21.5261C86.9631 21.3354 86.893 21.1535 86.7831 20.9959C86.6732 20.8383 86.5269 20.7096 86.3566 20.6209C85.9386 20.403 85.4697 20.3022 84.9992 20.3288C84.4531 20.3288 84.1403 20.3979 84.0607 20.5094C83.9616 20.6908 83.9208 20.8985 83.9441 21.104C83.9441 21.3907 83.9679 21.6854 83.9971 21.9906C83.996 22.1088 84.0225 22.2255 84.0745 22.3315C84.1265 22.4376 84.2026 22.5299 84.2967 22.6012C84.5981 22.727 84.9262 22.7754 85.2511 22.7419C85.6913 22.7419 86.1247 22.6335 86.5131 22.426C86.6826 22.3517 86.8219 22.2219 86.9081 22.0579C86.9943 21.8939 87.0224 21.7055 86.9876 21.5234V21.5261Z" fill="#DD052C"/>
<path d="M84.3763 31.4651C84.1483 31.4651 83.9203 31.4651 83.6976 31.4385C82.0274 31.3111 81.285 30.9899 81.2214 30.3608C81.1816 29.9705 81.1233 28.33 81.0464 25.3488C80.9695 22.3677 80.9483 20.6024 80.9828 19.9494C81.0226 19.1716 81.1525 18.7256 81.4096 18.5026C81.7685 18.2526 82.179 18.0865 82.6106 18.0168C83.4113 17.8622 84.2269 17.7998 85.0417 17.831C86.2494 17.8723 87.4255 18.2282 88.4538 18.8636C89.6892 19.5804 90.3335 20.5573 90.3653 21.7651C90.3918 22.742 90.2062 23.5039 89.8112 24.0375C90.1048 24.3691 90.3708 24.7242 90.6065 25.0993C91.0254 25.7523 91.2163 26.6576 91.1845 27.8654C91.1527 29.1609 90.2115 30.1272 88.3902 30.7404C87.0995 31.1951 85.7443 31.4397 84.3763 31.4651ZM82.0088 30.2625C82.0539 30.3103 82.3402 30.5413 83.7586 30.6475C85.2471 30.723 86.7358 30.502 88.1383 29.9971C89.6309 29.498 90.3706 28.7972 90.3918 27.8734C90.4183 26.8434 90.2672 26.0656 89.9384 25.5586C89.6795 25.1255 89.3639 24.7291 88.9999 24.3799L88.6632 24.0852L88.9946 23.7853C89.4029 23.4163 89.5964 22.7526 89.5699 21.8129C89.5434 20.8732 89.0397 20.1538 88.0535 19.5777C87.1457 19.0107 86.1056 18.6914 85.0364 18.6512C84.285 18.6221 83.5327 18.6773 82.7936 18.8158C82.4857 18.855 82.189 18.9561 81.9213 19.1132C81.9213 19.1132 81.8047 19.2645 81.7649 19.9998C81.7331 20.6236 81.7649 22.4208 81.8312 25.3382C81.9213 28.1972 81.9717 29.8537 82.0088 30.2625ZM85.0046 28.906C84.616 28.9291 84.2315 28.8155 83.9176 28.5848C83.7433 28.433 83.6093 28.2403 83.5274 28.024C83.4455 27.8077 83.4184 27.5745 83.4484 27.3451C83.5226 25.8532 83.6048 25.4603 83.6658 25.2878C83.8752 24.7064 84.7103 24.7064 84.9914 24.7091C85.6029 24.7129 86.213 24.7679 86.8154 24.8737C87.5683 25.0011 88.1595 25.4948 88.5757 26.3417C88.6569 26.4939 88.7026 26.6625 88.7095 26.8348C88.7164 27.0072 88.6843 27.179 88.6155 27.3372C88.3504 27.8999 87.6505 28.33 86.37 28.6883C85.9262 28.8195 85.4672 28.8918 85.0046 28.9034V28.906ZM84.4055 25.5851C84.3038 26.1798 84.2498 26.7816 84.2437 27.3849C84.2225 27.8097 84.3683 27.9159 84.4161 27.9636C84.5645 28.0858 84.9914 28.2291 86.1499 27.9212C87.5153 27.5389 87.8149 27.1566 87.8811 27.0106C87.9025 26.9593 87.9112 26.9036 87.9066 26.8481C87.902 26.7927 87.8842 26.7392 87.8546 26.6921C87.555 26.0815 87.168 25.7444 86.6749 25.6594C86.1154 25.5612 85.5487 25.5097 84.9808 25.5055C84.7856 25.4864 84.5887 25.5128 84.4055 25.5824V25.5851ZM85.1504 23.1429C84.7853 23.1711 84.4193 23.1014 84.09 22.9411C83.9425 22.8395 83.8213 22.7041 83.7364 22.5462C83.6516 22.3883 83.6056 22.2125 83.6022 22.0332C83.5703 21.7226 83.5518 21.412 83.5465 21.1147C83.5177 20.8206 83.5857 20.5251 83.74 20.2732C83.9123 20.0423 84.2702 19.9467 84.9914 19.9334C85.5331 19.9087 86.0718 20.0278 86.5529 20.2785C86.7757 20.3971 86.9672 20.567 87.1115 20.7742C87.2557 20.9815 87.3487 21.2201 87.3827 21.4704C87.4259 21.7333 87.3819 22.003 87.2574 22.2384C87.1329 22.4738 86.9348 22.6619 86.6934 22.7739C86.2486 23.0113 85.7526 23.1362 85.2485 23.1375L85.1504 23.1429ZM84.3551 20.7856C84.335 20.8878 84.327 20.992 84.3312 21.0961C84.3312 21.3749 84.3551 21.6616 84.3843 21.9509C84.4028 22.1421 84.4532 22.2376 84.493 22.2615C84.7301 22.3488 84.9848 22.377 85.2353 22.3438C85.6111 22.3442 85.9814 22.2531 86.3143 22.0784C86.4107 22.0413 86.4906 21.9708 86.5392 21.8796C86.5879 21.7885 86.6022 21.6828 86.5794 21.5819C86.5645 21.4541 86.5188 21.3317 86.4463 21.2254C86.3738 21.119 86.2767 21.0319 86.1632 20.9714C85.8051 20.7898 85.4053 20.7064 85.0046 20.7298C84.7903 20.7225 84.5759 20.7403 84.3657 20.7829L84.3551 20.7856Z" fill="black"/>
<path d="M103.904 20.9501C104.876 23.1322 104.858 25.2019 103.848 27.1593C102.839 29.1166 101.292 30.1457 99.2063 30.2466C97.1224 30.3475 95.4929 29.9617 94.3175 29.0892C93.1422 28.2167 92.5076 26.9584 92.414 25.3143C92.3304 23.6164 92.6636 21.9239 93.3843 20.3847C94.1231 18.7406 95.8181 17.8778 98.4692 17.7964C101.12 17.715 102.932 18.7663 103.904 20.9501ZM101.902 23.5224C101.871 23.1382 101.757 22.7653 101.568 22.4297C101.378 22.0941 101.118 21.8039 100.805 21.5793C100.149 21.0908 99.2655 20.9209 98.1537 21.0696C97.042 21.2182 96.2988 21.6545 95.9241 22.3783C95.5515 23.1221 95.419 23.9635 95.545 24.786C95.6616 25.6709 96.0213 26.3063 96.624 26.6921C97.2855 27.0913 98.0539 27.2767 98.8245 27.223C99.6905 27.1947 100.442 26.7708 101.078 25.9514C101.714 25.132 101.989 24.3224 101.902 23.5224Z" fill="#DD052C"/>
<path d="M98.5804 30.6608C96.7246 30.6608 95.2002 30.2414 94.0734 29.4105C92.8035 28.4655 92.1116 27.0957 92.0108 25.3357C91.9253 23.5741 92.2702 21.8182 93.0156 20.2202C93.811 18.4337 95.6509 17.4833 98.4531 17.3984C101.255 17.3134 103.225 18.4602 104.262 20.7883C105.283 23.0766 105.261 25.2826 104.196 27.3426C103.13 29.4025 101.446 30.5281 99.2193 30.6449C98.9984 30.6555 98.7854 30.6608 98.5804 30.6608ZM98.758 18.1841H98.4929C95.9849 18.2611 94.4366 19.031 93.7579 20.5361C93.0658 22.0178 92.7446 23.646 92.8221 25.2799C92.9069 26.8143 93.4769 27.9531 94.5639 28.7601C95.6509 29.5671 97.2151 29.9361 99.1981 29.8379C101.181 29.7397 102.554 28.8053 103.506 26.9683C104.458 25.1313 104.482 23.1881 103.551 21.1016C102.666 19.1478 101.099 18.1895 98.758 18.1895V18.1841ZM98.6361 27.6213C97.8488 27.6419 97.0725 27.4335 96.4011 27.0214C95.6986 26.5727 95.2744 25.8347 95.1445 24.834C95.0081 23.9316 95.1534 23.0091 95.5607 22.1926C95.9902 21.3484 96.8439 20.8388 98.0926 20.6689C99.3413 20.499 100.304 20.7034 101.041 21.2555C101.398 21.5128 101.696 21.8447 101.914 22.2282C102.131 22.6118 102.263 23.038 102.3 23.4774C102.387 24.3827 102.08 25.2985 101.383 26.1958C100.685 27.093 99.8158 27.5841 98.8296 27.6186L98.6361 27.6213ZM98.8879 21.4175C98.6574 21.4184 98.4271 21.4343 98.1986 21.4652C97.2097 21.598 96.5788 21.9564 96.2686 22.559C95.9352 23.2316 95.8176 23.9909 95.9319 24.7331C96.0326 25.5029 96.3269 26.0338 96.8306 26.355C97.4239 26.712 98.1127 26.877 98.8031 26.8276C99.5534 26.801 100.19 26.4373 100.754 25.71C101.319 24.9826 101.576 24.2659 101.507 23.5624C101.481 23.233 101.384 22.9132 101.221 22.6257C101.058 22.3381 100.835 22.0897 100.566 21.898C100.074 21.5588 99.4847 21.3901 98.8879 21.4175Z" fill="black"/>
<path d="M108.766 20.5493C108.284 20.3847 107.912 19.9759 107.653 19.3282C107.393 18.6804 107.748 18.1681 108.713 17.7991C109.2 17.6186 109.722 17.5487 110.239 17.5946C110.757 17.6405 111.258 17.8011 111.706 18.0646C112.199 18.3175 112.621 18.6887 112.935 19.145C113.249 19.6013 113.446 20.1285 113.506 20.6794C113.692 21.8881 113.399 22.8287 112.626 23.5012C112.978 23.8512 113.246 24.2769 113.41 24.7461C113.574 25.2152 113.628 25.7155 113.57 26.2089C113.49 27.1616 113.135 28.0704 112.547 28.8237C111.978 29.5422 111.074 29.9307 109.837 29.9891C108.6 30.0475 107.653 29.8369 106.998 29.3573C106.34 28.8759 106.063 28.3715 106.165 27.8442C106.22 27.4053 106.43 27.0006 106.756 26.7027C107.045 26.4691 107.42 26.5062 107.883 26.8142C108.29 27.0971 108.746 27.3015 109.227 27.4168C109.422 27.4675 109.627 27.4668 109.822 27.4147C110.017 27.3626 110.194 27.2609 110.338 27.1195C110.642 26.8274 110.671 26.4151 110.426 25.8824C110.18 25.3497 109.85 25.0374 109.434 24.9453C109.024 24.8551 108.874 24.4525 108.983 23.7375C109.093 23.0225 109.293 22.6128 109.583 22.5084C109.883 22.3919 110.164 22.2318 110.418 22.0332C110.681 21.8368 110.693 21.497 110.455 21.0138C110.216 20.5307 109.653 20.3758 108.766 20.5493Z" fill="#DD052C"/>
<path d="M109.466 30.3847C108.332 30.3847 107.428 30.1432 106.773 29.668C105.977 29.0919 105.651 28.4495 105.787 27.7567C105.86 27.226 106.119 26.7387 106.518 26.3816C106.818 26.1373 107.34 25.9542 108.109 26.4718C108.475 26.7225 108.885 26.9025 109.318 27.0027C109.449 27.0401 109.588 27.0415 109.72 27.007C109.852 26.9725 109.972 26.9032 110.068 26.8063C110.145 26.7346 110.333 26.5674 110.068 26.0258C109.872 25.6064 109.639 25.3728 109.352 25.3091C108.986 25.2295 108.401 24.9056 108.594 23.6526C108.682 23.0951 108.859 22.3253 109.448 22.1103C109.707 22.013 109.951 21.8779 110.172 21.7094C110.288 21.6218 110.153 21.3139 110.092 21.1785C109.944 20.8785 109.519 20.7936 108.833 20.9131L108.729 20.9316L108.629 20.8971C108.037 20.6927 107.581 20.2043 107.276 19.4477C107.204 19.2869 107.166 19.113 107.164 18.9367C107.161 18.7605 107.195 18.5856 107.263 18.423C107.451 17.9956 107.881 17.6611 108.589 17.3983C109.127 17.1949 109.703 17.1133 110.277 17.1591C110.85 17.205 111.406 17.3774 111.905 17.6638C112.455 17.947 112.926 18.3618 113.276 18.8712C113.627 19.3807 113.846 19.969 113.915 20.5839C114.095 21.7705 113.849 22.7447 113.183 23.4854C113.493 23.8627 113.724 24.2991 113.86 24.7682C113.997 25.2372 114.037 25.7292 113.979 26.2143C113.889 27.2418 113.505 28.2214 112.873 29.0362C112.229 29.8326 111.219 30.2865 109.869 30.3476C109.729 30.3821 109.596 30.3847 109.466 30.3847ZM107.192 26.9337C107.128 26.9323 107.066 26.954 107.017 26.9948C106.766 27.2371 106.607 27.5588 106.566 27.9053C106.539 28.0407 106.46 28.4362 107.242 29.0176C107.82 29.4397 108.69 29.6282 109.83 29.5751C110.97 29.522 111.746 29.1901 112.247 28.561C112.786 27.8649 113.112 27.0279 113.186 26.1506C113.238 25.7148 113.189 25.2728 113.044 24.8587C112.899 24.4446 112.661 24.0692 112.348 23.7615L112.062 23.4615L112.375 23.196C113.043 22.612 113.289 21.8077 113.125 20.7352C113.074 20.2457 112.902 19.7766 112.624 19.3705C112.346 18.9644 111.972 18.6342 111.534 18.4097C111.135 18.1741 110.688 18.031 110.227 17.9911C109.765 17.9511 109.301 18.0152 108.867 18.1788C108.273 18.4018 108.072 18.6301 108.003 18.7787C107.977 18.844 107.966 18.9141 107.97 18.9841C107.973 19.0542 107.992 19.1226 108.024 19.1849C108.152 19.5972 108.438 19.9419 108.819 20.1432C110.084 19.9362 110.606 20.4087 110.824 20.852C111.259 21.7386 110.914 22.1793 110.667 22.3651C110.385 22.5791 110.074 22.7508 109.742 22.8748C109.668 22.904 109.501 23.1403 109.4 23.7933C109.35 24.1145 109.334 24.5048 109.543 24.5499C110.073 24.6693 110.503 25.0596 110.805 25.7073C111.213 26.5833 110.938 27.1142 110.633 27.4036C110.442 27.5896 110.207 27.7236 109.95 27.7929C109.693 27.8621 109.422 27.8643 109.164 27.7991C108.634 27.6734 108.132 27.4491 107.685 27.1381C107.544 27.0246 107.372 26.9554 107.192 26.939V26.9337Z" fill="black"/>
</g>
<defs>
<clipPath id="clip0">
<rect width="114" height="84" fill="white"/>
</clipPath>
</defs>
</svg>
