<svg width="36" height="26" viewBox="0 0 36 26" fill="none" xmlns="http://www.w3.org/2000/svg">
<path fill-rule="evenodd" clip-rule="evenodd" d="M31.5 0H4.5C3.30762 0.00342924 2.16507 0.461054 1.32193 1.27297C0.478787 2.08489 0.00356114 3.18512 0 4.33333V21.6667C0.00356114 22.8149 0.478787 23.9151 1.32193 24.727C2.16507 25.5389 3.30762 25.9966 4.5 26H31.5C32.6924 25.9966 33.8349 25.5389 34.6781 24.727C35.5212 23.9151 35.9964 22.8149 36 21.6667V4.33333C35.9964 3.18512 35.5212 2.08489 34.6781 1.27297C33.8349 0.461054 32.6924 0.00342924 31.5 0ZM31.5 21.6667H4.5V13H31.5V21.6667ZM31.5 8.66667H4.5V4.33333H31.5V8.66667ZM11.25 19.5H15.75C16.3467 19.5 16.919 19.2717 17.341 18.8654C17.7629 18.459 18 17.908 18 17.3333C18 16.7587 17.7629 16.2076 17.341 15.8013C16.919 15.395 16.3467 15.1667 15.75 15.1667H11.25C10.6533 15.1667 10.081 15.395 9.65904 15.8013C9.23709 16.2076 9 16.7587 9 17.3333C9 17.908 9.23709 18.459 9.65904 18.8654C10.081 19.2717 10.6533 19.5 11.25 19.5Z" fill="#E73125"/>
</svg>
