<svg width="38" height="32" viewBox="0 0 38 32" fill="none" xmlns="http://www.w3.org/2000/svg">
<g clip-path="url(#clip0)">
<path fill-rule="evenodd" clip-rule="evenodd" d="M28.5 11.4972V11.4286C28.4962 10.2173 27.9946 9.05658 27.1046 8.20006C26.2146 7.34353 25.0086 6.86076 23.75 6.85714H21.375V4.57143C21.3712 3.36012 20.8696 2.19944 19.9796 1.34291C19.0896 0.486387 17.8836 0.00361766 16.625 0H4.75C3.49138 0.00361766 2.28535 0.486387 1.39537 1.34291C0.505386 2.19944 0.00375898 3.36012 0 4.57143V6.85714C0.00375898 8.06845 0.505386 9.22913 1.39537 10.0857C2.28535 10.9422 3.49138 11.425 4.75 11.4286H7.125V13.7143C5.86638 13.7179 4.66035 14.2007 3.77037 15.0572C2.88039 15.9137 2.37876 17.0744 2.375 18.2857V20.5714C2.37645 21.3815 2.60151 22.1766 3.02717 22.8754C3.45282 23.5742 4.06383 24.1516 4.79755 24.5485C4.76901 24.7455 4.7531 24.944 4.75 25.1429V27.4286C4.75376 28.6399 5.25539 29.8006 6.14537 30.6571C7.03535 31.5136 8.24138 31.9964 9.5 32H21.375C22.1998 32.0069 23.0114 31.8018 23.7262 31.4057C24.8768 31.8025 26.0903 32.0036 27.3125 32C30.0364 31.9893 32.6534 30.9779 34.6286 29.1726C36.6037 27.3673 37.7881 24.9043 37.9397 22.2868C38.0913 19.6693 37.1987 17.0949 35.4442 15.0896C33.6898 13.0842 31.2058 11.7992 28.5 11.4972ZM4.75 6.85714V4.57143H16.625V6.85714H4.75ZM11.875 11.4286H23.75V12.0229C22.6089 12.403 21.5473 12.9757 20.615 13.7143H11.875V11.4286ZM7.125 18.2857H17.2425C16.9631 19.023 16.7797 19.7907 16.6963 20.5714H7.125V18.2857ZM9.5 27.4286V25.1429H17.2425C17.5272 25.9537 17.9268 26.7229 18.43 27.4286H9.5ZM27.3125 27.4286C26.9139 27.4256 26.5163 27.3874 26.125 27.3143C25.2178 27.1383 24.3664 26.7589 23.6401 26.2069C22.9138 25.6549 22.3331 24.9457 21.945 24.1371C21.5615 23.3833 21.3663 22.5536 21.375 21.7143C21.378 21.3306 21.4178 20.9481 21.4937 20.5714C21.6718 19.7434 22.0367 18.9631 22.5625 18.2857C23.1172 17.5777 23.8347 17.003 24.6587 16.6064C25.4828 16.2099 26.3912 16.0023 27.3125 16C27.4949 15.9962 27.6773 16.0039 27.8587 16.0229C29.3827 16.1544 30.7952 16.8471 31.8014 17.9565C32.8077 19.0659 33.3302 20.5063 33.2597 21.9774C33.1893 23.4485 32.5314 24.8365 31.4234 25.8521C30.3153 26.8677 28.8426 27.4325 27.3125 27.4286Z" fill="#E73125"/>
</g>
<defs>
<clipPath id="clip0">
<rect width="38" height="32" fill="white"/>
</clipPath>
</defs>
</svg>
