<svg width="24" height="24" viewBox="0 0 24 24" fill="none" xmlns="http://www.w3.org/2000/svg">
<g clip-path="url(#clip0)">
<path d="M20.4835 3.51307C15.7965 -1.1725 8.19853 -1.17138 3.51295 3.51565C-1.17263 8.20268 -1.1715 15.8007 3.51553 20.4862C8.20256 25.1718 15.8005 25.1707 20.4861 20.4837C22.7364 18.2327 24.0002 15.1799 23.9995 11.9971C23.9989 8.81473 22.7341 5.76298 20.4835 3.51307ZM18.1731 16.7155C18.1726 16.716 18.1721 16.7166 18.1715 16.7171V16.7131L17.5635 17.3171C16.7772 18.1134 15.632 18.441 14.5435 18.1811C13.4468 17.8876 12.4043 17.4203 11.4555 16.7971C10.574 16.2337 9.75703 15.5751 9.0195 14.8331C8.34089 14.1595 7.73123 13.4198 7.19948 12.6251C6.61786 11.77 6.1575 10.8385 5.83148 9.85709C5.45775 8.70415 5.76745 7.43904 6.6315 6.5891L7.34348 5.87712C7.54144 5.67828 7.86309 5.67757 8.06189 5.87553C8.0624 5.87604 8.06297 5.87656 8.06348 5.87712L10.3115 8.1251C10.5103 8.32306 10.511 8.64471 10.3131 8.84351C10.3125 8.84403 10.312 8.84454 10.3115 8.84511L8.99147 10.1651C8.61272 10.5397 8.56509 11.135 8.87948 11.5651C9.3569 12.2203 9.88523 12.8369 10.4595 13.4091C11.0998 14.0522 11.7958 14.6371 12.5395 15.1572C12.9692 15.4569 13.5517 15.4063 13.9235 15.0372L15.1995 13.7412C15.3974 13.5423 15.7191 13.5416 15.9179 13.7396C15.9184 13.7401 15.9189 13.7406 15.9195 13.7412L18.1715 15.9972C18.3704 16.1951 18.3711 16.5167 18.1731 16.7155Z" fill="#E73125"/>
</g>
<defs>
<clipPath id="clip0">
<rect width="24" height="24" fill="white"/>
</clipPath>
</defs>
</svg>
