<svg width="44px" height="44px" viewBox="0 0 44 44" fill="none" xmlns="http://www.w3.org/2000/svg">
<g clip-path="url(#clip0)">
<path d="M37.5547 14.2667H25.7812C25.7812 13.9087 25.7812 8.17576 25.7812 7.82136C25.7812 6.82405 24.6744 6.17016 23.7725 6.75187C23.772 6.75221 23.7715 6.75247 23.7711 6.75281C21.623 8.13529 19.6507 8.18101 17.473 6.74886C17.0473 6.46535 16.5076 6.44859 16.0382 6.75187C16.0377 6.75221 16.0372 6.75247 16.0368 6.75281C13.8887 8.13529 11.9164 8.18101 9.7387 6.74886C9.30256 6.45839 8.73151 6.46638 8.30723 6.74972C8.30663 6.75015 8.30294 6.75247 8.30251 6.75281C6.14874 8.13881 4.17398 8.17912 2.0014 6.74697C1.14778 6.1809 0 6.79715 0 7.82136V33.6026C0 34.3145 0.577156 34.8917 1.28906 34.8917H2.79984C3.33197 36.392 4.7648 37.4698 6.44531 37.4698C8.12582 37.4698 9.55866 36.392 10.0908 34.8917H13.1124C13.6446 36.392 15.0774 37.4698 16.7579 37.4698C18.4384 37.4698 19.8712 36.392 20.4034 34.8917H31.1592C31.6913 36.392 33.1242 37.4698 34.8047 37.4698C36.4859 37.4698 37.9191 36.3911 38.4508 34.8898C38.4631 34.8901 38.4753 34.8917 38.4877 34.8917H42.7109C43.4228 34.8917 44 34.3145 44 33.6026V20.712C44 17.158 41.1086 14.2667 37.5547 14.2667ZM41.4219 20.712V22.001H36.0938V16.8448H37.5547C39.6871 16.8448 41.4219 18.5796 41.4219 20.712ZM30.9375 22.001V16.8448H33.5156V22.001H30.9375ZM16.7578 29.7354C15.0773 29.7354 13.6445 30.8132 13.1123 32.3135H10.0908C9.55866 30.8132 8.12582 29.7354 6.44531 29.7354C4.7648 29.7354 3.33197 30.8132 2.79984 32.3135H2.57812V27.1573H23.2031V32.3135H20.4033C19.8712 30.8132 18.4383 29.7354 16.7578 29.7354ZM23.2031 9.89323V24.5793H18.0469V9.89323C19.8573 10.5631 21.3783 10.5684 23.2031 9.89323ZM15.4688 9.89323V24.5793H10.3125V9.89323C12.1229 10.5631 13.644 10.5684 15.4688 9.89323ZM7.73438 9.89323V24.5793H2.57812V9.89323C4.38857 10.5631 5.90958 10.5684 7.73438 9.89323ZM6.44531 34.8917C5.73452 34.8917 5.15625 34.3134 5.15625 33.6026C5.15625 32.8918 5.73452 32.3135 6.44531 32.3135C7.1561 32.3135 7.73438 32.8918 7.73438 33.6026C7.73438 34.3134 7.1561 34.8917 6.44531 34.8917ZM16.7578 34.8917C16.047 34.8917 15.4688 34.3134 15.4688 33.6026C15.4688 32.8918 16.047 32.3135 16.7578 32.3135C17.4686 32.3135 18.0469 32.8918 18.0469 33.6026C18.0469 34.3134 17.4686 34.8917 16.7578 34.8917ZM34.8047 34.8917C34.0939 34.8917 33.5156 34.3134 33.5156 33.6026C33.5156 32.8918 34.0939 32.3135 34.8047 32.3135C35.5155 32.3135 36.0938 32.8918 36.0938 33.6026C36.0938 34.3134 35.5155 34.8917 34.8047 34.8917ZM38.4877 32.3135C38.4753 32.3135 38.4631 32.3151 38.4508 32.3154C37.9191 30.8141 36.4859 29.7354 34.8047 29.7354C33.1242 29.7354 31.6913 30.8132 31.1592 32.3135H25.7812V16.8448H28.3594V23.2901C28.3594 24.002 28.9365 24.5792 29.6484 24.5792H41.4219V27.1573H40.1328C39.4209 27.1573 38.8438 27.7344 38.8438 28.4464C38.8438 29.1583 39.4209 29.7354 40.1328 29.7354H41.4219V32.3135H38.4877Z" fill="white"/>
</g>
<defs>
<clipPath id="clip0">
<rect width="44" height="44" fill="white"/>
</clipPath>
</defs>
</svg>
