<svg width="26" height="26" viewBox="0 0 26 26" fill="none" xmlns="http://www.w3.org/2000/svg">
<path d="M13.8836 14.6895C13.5863 14.987 13.104 14.987 12.8065 14.6895L9.34503 11.228C9.20221 11.0852 9.12187 10.8914 9.12187 10.6895C9.12187 10.4873 9.20221 10.2937 9.34503 10.1507L9.96036 9.53557L8.15306 7.72827L6.67247 9.20886C6.17418 9.70715 6.17438 10.5179 6.67247 11.0162L13.0183 17.3624C13.2582 17.6022 13.5791 17.7342 13.9221 17.7342C14.2651 17.7342 14.586 17.6021 14.8258 17.3622L16.3064 15.8818L14.4991 14.0743L13.8836 14.6895Z" fill="#E73125"/>
<path d="M24.9074 9.17673C24.9074 6.73466 23.9505 4.43285 22.2124 2.69498C20.4746 0.957108 18.1727 0 15.7309 0H10.2935C10.2935 0 10.2935 0 10.2933 0C7.85165 0 5.54984 0.957108 3.81216 2.69478C2.0743 4.43265 1.11719 6.73466 1.11719 9.17653V13.4505C1.11719 15.3415 1.69403 17.1607 2.78543 18.7113C3.74829 20.0792 5.04321 21.1476 6.55296 21.8252V24.2802C6.55296 25.5495 7.2637 25.9998 7.87228 26C8.3071 26 8.74211 25.7854 9.16542 25.3623L11.9003 22.627H15.7311C18.1729 22.627 20.4748 21.6699 22.2126 19.932C23.9505 18.1942 24.9076 15.8923 24.9076 13.4505L24.9074 9.17673ZM17.9226 16.4204L15.9033 18.4395C15.3756 18.9672 14.6722 19.2574 13.9224 19.2574C13.1726 19.2574 12.4692 18.967 11.9415 18.4395L5.59546 12.0933C4.50346 11.0009 4.50346 9.22374 5.59546 8.13155L7.61481 6.1124C7.75763 5.96938 7.95123 5.88924 8.15337 5.88924C8.3553 5.88924 8.5491 5.96938 8.69193 6.1124L11.5765 8.99701C11.7194 9.13983 11.7995 9.33363 11.7995 9.53557C11.7995 9.7375 11.7194 9.9313 11.5763 10.0741L10.9612 10.6893L13.3456 13.0736L13.9609 12.4583C14.2584 12.1609 14.7406 12.1609 15.038 12.4585L17.9226 15.3431C18.0656 15.4859 18.1458 15.6797 18.1458 15.8816C18.1458 16.0838 18.0656 16.2776 17.9226 16.4204ZM12.4355 7.39482C12.4355 6.97429 12.7764 6.6331 13.1972 6.6331C15.8364 6.6331 17.9837 8.7802 17.9837 11.4192C17.9837 11.84 17.6427 12.181 17.222 12.181C16.8015 12.181 16.4603 11.84 16.4603 11.4192C16.4603 9.62027 14.9965 8.15654 13.1972 8.15654C12.7764 8.15654 12.4355 7.81555 12.4355 7.39482ZM20.4853 12.1814C20.0645 12.1814 19.7236 11.8402 19.7236 11.4196C19.7238 9.67621 19.0448 8.03732 17.8121 6.80449C16.5793 5.57185 14.9404 4.89285 13.197 4.89285C12.7764 4.89285 12.4353 4.55186 12.4353 4.13113C12.4353 3.7106 12.7764 3.36942 13.197 3.36942C15.3472 3.36942 17.3688 4.20691 18.8892 5.72737C20.4099 7.24783 21.2472 9.26936 21.247 11.4196C21.247 11.8402 20.906 12.1814 20.4853 12.1814Z" fill="#E73125"/>
</svg>
