<svg width="30" height="21" viewBox="0 0 30 21" fill="none" xmlns="http://www.w3.org/2000/svg">
<path d="M28.4683 3.97024C28.1442 2.76535 27.1942 1.81554 25.9895 1.4911C23.7887 0.888916 14.985 0.888916 14.985 0.888916C14.985 0.888916 6.1817 0.888916 3.98083 1.46827C2.79928 1.79237 1.82613 2.76552 1.50204 3.97024C0.922852 6.17094 0.922852 10.7349 0.922852 10.7349C0.922852 10.7349 0.922852 15.3219 1.50204 17.4996C1.82648 18.7043 2.77611 19.6541 3.981 19.9785C6.20487 20.5809 14.9853 20.5809 14.9853 20.5809C14.9853 20.5809 23.7887 20.5809 25.9895 20.0015C27.1944 19.6773 28.1442 18.7275 28.4687 17.5227C29.0477 15.3219 29.0477 10.7581 29.0477 10.7581C29.0477 10.7581 29.0709 6.17094 28.4683 3.97024ZM12.1821 14.9512V6.51855L19.5028 10.7349L12.1821 14.9512Z" fill="#E73125"/>
</svg>
