<svg width="30" height="21" viewBox="0 0 30 21" fill="none" xmlns="http://www.w3.org/2000/svg">
<path d="M28.4683 3.97048C28.1442 2.76559 27.1942 1.81579 25.9895 1.49135C23.7887 0.88916 14.985 0.88916 14.985 0.88916C14.985 0.88916 6.1817 0.88916 3.98083 1.46852C2.79928 1.79261 1.82613 2.76576 1.50204 3.97048C0.922852 6.17118 0.922852 10.7351 0.922852 10.7351C0.922852 10.7351 0.922852 15.3221 1.50204 17.4998C1.82648 18.7045 2.77611 19.6543 3.981 19.9788C6.20487 20.5811 14.9853 20.5811 14.9853 20.5811C14.9853 20.5811 23.7887 20.5811 25.9895 20.0018C27.1944 19.6775 28.1442 18.7277 28.4687 17.523C29.0477 15.3221 29.0477 10.7583 29.0477 10.7583C29.0477 10.7583 29.0709 6.17118 28.4683 3.97048ZM12.1821 14.9515V6.5188L19.5028 10.7351L12.1821 14.9515Z" fill="white"/>
</svg>
